<?xml version="1.0" encoding="UTF-8"?>
<svg id="Layer_1" xmlns="http://www.w3.org/2000/svg" xmlns:xlink="http://www.w3.org/1999/xlink" version="1.1" viewBox="0 0 287 124">
  <!-- Generator: Adobe Illustrator 29.5.1, SVG Export Plug-In . SVG Version: 2.1.0 Build 141)  -->
  <defs>
    <style>
      .st0, .st1, .st2, .st3 {
        fill: none;
      }

      .st1 {
        stroke: #a5a8ab;
      }

      .st1, .st2, .st3 {
        stroke-linecap: round;
        stroke-linejoin: round;
      }

      .st4 {
        clip-path: url(#clippath-1);
      }

      .st2, .st3 {
        stroke: #7f7f82;
      }

      .st3 {
        stroke-width: 2px;
      }

      .st5 {
        fill: #7f7f82;
      }

      .st6 {
        clip-path: url(#clippath);
      }

      .st7 {
        fill: #303136;
      }
    </style>
    <clipPath id="clippath">
      <rect class="st0" width="287" height="124"/>
    </clipPath>
    <clipPath id="clippath-1">
      <rect class="st0" x="200.5" y="98.5" width="16" height="16"/>
    </clipPath>
  </defs>
  <g class="st6">
    <g>
      <path class="st2" d="M271.6,50v-17.4"/>
      <path class="st2" d="M267,37.1l4.6-4.6,4.6,4.6"/>
      <path class="st2" d="M271.6,50H82"/>
      <path class="st5" d="M117.9,118.7c0,.3,0,.5-.2.8-.1.2-.2.4-.4.6-.2.2-.4.3-.6.4-.2,0-.5.1-.8.1s-.6,0-.9-.2c-.3-.1-.5-.3-.6-.5-.2-.2-.3-.5-.4-.8s-.1-.6-.1-1v-.8c0-.3,0-.7.1-1,0-.3.2-.6.4-.8.2-.2.4-.4.6-.5.3-.1.6-.2.9-.2s.6,0,.8.1c.2,0,.4.2.6.4.2.2.3.4.4.6,0,.2.2.5.2.8h-.9c0-.2,0-.3,0-.5,0-.1-.1-.3-.2-.4,0,0-.2-.2-.3-.2-.1,0-.3,0-.4,0s-.4,0-.5.1c-.1,0-.3.2-.3.4,0,.2-.2.3-.2.6,0,.2,0,.4,0,.7v.8c0,.2,0,.5,0,.7,0,.2.1.4.2.6,0,.2.2.3.3.4.1,0,.3.1.5.1.3,0,.6,0,.8-.3.2-.2.3-.5.3-.8h.9ZM121.6,120.5c0,0,0-.1,0-.2,0,0,0-.1,0-.2,0,0-.1.1-.2.2,0,0-.2.1-.3.2,0,0-.2,0-.3.1-.1,0-.2,0-.4,0-.2,0-.4,0-.6,0-.2,0-.3-.2-.5-.3-.1-.1-.2-.2-.3-.4,0-.2-.1-.3-.1-.5,0-.5.2-.8.5-1,.3-.2.8-.4,1.5-.4h.7v-.3c0-.2,0-.4-.2-.5-.2-.1-.4-.2-.6-.2s-.2,0-.3,0c0,0-.2,0-.2.1,0,0-.1.1-.1.2,0,0,0,.1,0,.2h-.9c0-.2,0-.3.1-.5,0-.2.2-.3.3-.4.1-.1.3-.2.5-.3.2,0,.5-.1.7-.1s.5,0,.7,0c.2,0,.4.2.6.3.2.1.3.3.4.5,0,.2.1.4.1.6v1.9c0,.2,0,.4,0,.5,0,.2,0,.3.1.4h0c0,0-1,0-1,0ZM120.5,119.8c.1,0,.2,0,.3,0,.1,0,.2,0,.3-.1,0,0,.2-.1.2-.2,0,0,.1-.1.1-.2v-.8h-.6c-.4,0-.7,0-.8.2-.2.1-.3.3-.3.5s0,.2,0,.2c0,0,0,.1.1.2,0,0,.1,0,.2.1,0,0,.2,0,.3,0ZM123.9,114.5h2.3v5.2h1.3v.8h-3.6v-.8h1.3v-4.4h-1.3v-.8ZM128.7,114.5h2.3v5.2h1.3v.8h-3.6v-.8h1.3v-4.4h-1.3v-.8ZM142.1,115.5h-1.7v4.9h-.9v-4.9h-1.7v-.8h4.4v.8ZM145.8,116.1c0,0,.2,0,.2,0,0,0,.1,0,.2,0,0,0,.1,0,.2,0,0,0,.1,0,.1,0v.9c-.4,0-.7,0-1,0s-.6,0-.8.2c-.2.1-.3.3-.4.5v2.6h-.9v-4.2h.9v.7c.2-.2.4-.4.7-.5.2-.1.5-.2.8-.2ZM150.4,120.5c0,0,0-.1,0-.2,0,0,0-.1,0-.2,0,0-.1.1-.2.2,0,0-.2.1-.3.2,0,0-.2,0-.3.1-.1,0-.2,0-.4,0-.2,0-.4,0-.6,0-.2,0-.3-.2-.5-.3-.1-.1-.2-.2-.3-.4,0-.2-.1-.3-.1-.5,0-.5.2-.8.5-1,.3-.2.8-.4,1.5-.4h.7v-.3c0-.2,0-.4-.2-.5-.2-.1-.4-.2-.6-.2s-.2,0-.3,0c0,0-.2,0-.2.1,0,0-.1.1-.1.2,0,0,0,.1,0,.2h-.9c0-.2,0-.3.1-.5,0-.2.2-.3.3-.4.1-.1.3-.2.5-.3.2,0,.5-.1.7-.1s.5,0,.7,0c.2,0,.4.2.6.3.2.1.3.3.4.5,0,.2.1.4.1.6v1.9c0,.2,0,.4,0,.5,0,.2,0,.3.1.4h0c0,0-1,0-1,0ZM149.3,119.8c.1,0,.2,0,.3,0,.1,0,.2,0,.3-.1,0,0,.2-.1.2-.2,0,0,.1-.1.1-.2v-.8h-.6c-.4,0-.7,0-.8.2-.2.1-.3.3-.3.5s0,.2,0,.2c0,0,0,.1.1.2,0,0,.1,0,.2.1,0,0,.2,0,.3,0ZM153.4,116.2v.6c.2-.2.4-.4.6-.5.2-.1.5-.2.7-.2s.4,0,.6,0c.2,0,.3.2.5.3.1.1.2.3.3.5,0,.2.1.5.1.8v2.6h-.9v-2.6c0-.2,0-.3,0-.4,0-.1,0-.2-.2-.3,0,0-.2-.1-.3-.1-.1,0-.2,0-.4,0-.2,0-.4,0-.5.1-.2,0-.3.2-.4.4v3h-.9v-4.2h.8ZM160.1,119.3c0,0,0-.1,0-.2,0,0,0-.1-.2-.2,0,0-.2,0-.3-.1-.1,0-.3,0-.5-.1-.2,0-.5-.1-.7-.2-.2,0-.4-.2-.5-.3-.1-.1-.3-.2-.3-.4,0-.1-.1-.3-.1-.5s0-.3.1-.5c0-.2.2-.3.3-.4.2-.1.3-.2.5-.3.2,0,.5-.1.7-.1s.5,0,.8.1c.2,0,.4.2.6.3.2.1.3.3.4.4,0,.2.1.3.1.5h-.9c0,0,0-.2,0-.2,0,0,0-.1-.2-.2,0,0-.2-.1-.3-.1-.1,0-.2,0-.4,0s-.3,0-.4,0c-.1,0-.2,0-.3.1,0,0-.1.1-.2.2,0,0,0,.1,0,.2s0,.1,0,.2c0,0,0,.1.1.2,0,0,.2,0,.3.1.1,0,.3,0,.5.1.3,0,.5.1.7.2.2,0,.4.2.5.3.2.1.3.2.3.4,0,.1.1.3.1.5s0,.4-.1.5c0,.2-.2.3-.4.4-.2.1-.3.2-.6.3-.2,0-.5,0-.7,0s-.6,0-.8-.1c-.2,0-.4-.2-.6-.3-.2-.1-.3-.3-.4-.5,0-.2-.1-.3-.1-.5h.9c0,.1,0,.2.1.3,0,0,.1.2.2.2,0,0,.2,0,.3.1.1,0,.2,0,.3,0,.3,0,.5,0,.7-.1.2,0,.2-.2.2-.4ZM163.2,120.5v-3.5h-1.1v-.7h1.1v-.3c0-.3,0-.5.1-.7,0-.2.2-.4.4-.5.2-.1.3-.3.6-.3.2,0,.5-.1.7-.1s.3,0,.5,0c.2,0,.3,0,.5,0v.7c-.2,0-.3,0-.4,0-.1,0-.3,0-.5,0-.3,0-.6,0-.7.2-.2.2-.2.4-.2.7v.3h1.6v.7h-1.6v3.5h-.9ZM168.9,120.5c-.3,0-.6,0-.9-.2-.3-.1-.5-.2-.7-.4-.2-.2-.3-.4-.4-.6-.1-.2-.2-.5-.2-.8v-.2c0-.3,0-.6.2-.9.1-.3.3-.5.4-.7.2-.2.4-.3.6-.4.2-.1.5-.2.8-.2s.6,0,.8.2c.2.1.4.2.6.4.2.2.3.4.4.7,0,.3.1.5.1.8v.4h-2.9c0,.2,0,.3.1.5,0,.1.1.3.3.4.1.1.2.2.4.2.1,0,.3,0,.5,0s.5,0,.7-.1c.2,0,.4-.2.5-.4l.5.5c0,.1-.2.2-.3.3-.1,0-.2.2-.4.3-.1,0-.3.1-.5.2-.2,0-.4,0-.6,0ZM168.8,116.9c-.1,0-.3,0-.4,0s-.2.1-.3.2c0,0-.2.2-.2.3,0,.1-.1.3-.1.4h2c0-.2,0-.3,0-.4,0-.1,0-.2-.2-.3,0,0-.2-.2-.3-.2-.1,0-.3,0-.4,0ZM174.7,116.1c0,0,.2,0,.2,0,0,0,.1,0,.2,0,0,0,.1,0,.2,0,0,0,.1,0,.1,0v.9c-.4,0-.7,0-1,0s-.6,0-.8.2c-.2.1-.3.3-.4.5v2.6h-.9v-4.2h.9v.7c.2-.2.4-.4.7-.5.2-.1.5-.2.8-.2Z"/>
      <path class="st2" d="M9.6,79.5c0-.4-.2-.8-.4-1-.3-.3-.6-.4-1-.4H3.5c-.2,0-.4,0-.6.1-.2,0-.3.2-.5.3-.1.1-.2.3-.3.5,0,.2-.1.4-.1.6v4.7c0,.2,0,.4.1.6,0,.2.2.3.3.5.1.1.3.2.5.3.2,0,.4.1.6.1h4.7c.2,0,.4,0,.6-.1s.3-.2.5-.3c.1-.1.2-.3.3-.5,0-.2.1-.4.1-.6v-4.7Z"/>
      <path class="st2" d="M11.6,83c.2,0,.3-.2.4-.4,0-.2.1-.4.1-.5v-5.4c0-.6-.5-1.1-1.1-1.1h-5.4c-.4,0-.6.2-.8.5"/>
      <path class="st2" d="M14.1,80.5c.2,0,.3-.2.4-.4,0-.2.1-.4.1-.5v-5.4c0-.6-.5-1.1-1.1-1.1h-5.4c-.4,0-.6.2-.8.5"/>
      <path class="st2" d="M16.4,78c.2,0,.3-.2.4-.4,0-.2.1-.4.1-.5v-5.4c0-.6-.5-1.1-1.1-1.1h-5.4c-.4,0-.6.2-.8.5"/>
      <path class="st2" d="M26.6,78.5h29.1"/>
      <path class="st2" d="M51.5,73.9l4.1,4.6-4.1,4.6"/>
      <rect class="st2" x="65.5" y="61.6" width="98" height="33" rx="4" ry="4"/>
      <path class="st3" d="M77.9,70.1h-4.4M73.5,70.1v4.4M73.5,70.1l6.7,6.7c.8.8,1.3,2,1.3,3.1v6.2M85.1,70.1h4.4v4.4M86.8,72.8h0M85.1,74.6h0M83.3,76.3h0"/>
      <path class="st7" d="M101.9,73.9c0,.3,0,.5-.2.8-.1.2-.2.4-.4.6-.2.2-.4.3-.6.4-.2,0-.5.1-.8.1s-.6,0-.9-.2c-.3-.1-.5-.3-.6-.5-.2-.2-.3-.5-.4-.8,0-.3-.1-.6-.1-1v-.8c0-.3,0-.7.1-1,0-.3.2-.6.4-.8.2-.2.4-.4.6-.5.3-.1.6-.2.9-.2s.6,0,.8.1c.2,0,.4.2.6.4.2.2.3.4.4.6,0,.2.2.5.2.8h-.9c0-.2,0-.3,0-.5,0-.1-.1-.3-.2-.4,0,0-.2-.2-.3-.2-.1,0-.3,0-.4,0s-.4,0-.5.1c-.1,0-.3.2-.3.4,0,.2-.2.3-.2.6,0,.2,0,.4,0,.7v.8c0,.2,0,.5,0,.7,0,.2.1.4.2.6,0,.2.2.3.3.4.1,0,.3.1.5.1.3,0,.6,0,.8-.3.2-.2.3-.5.3-.8h.9ZM102.7,73.4c0-.3,0-.6.1-.9,0-.3.2-.5.4-.7.2-.2.4-.3.6-.5.2-.1.5-.2.8-.2s.6,0,.8.2c.2.1.5.3.6.5.2.2.3.4.4.7,0,.3.1.5.1.9h0c0,.4,0,.7-.1.9,0,.3-.2.5-.4.7-.2.2-.4.3-.6.4-.2.1-.5.2-.8.2s-.6,0-.8-.2c-.2-.1-.4-.3-.6-.4-.2-.2-.3-.4-.4-.7,0-.3-.1-.5-.1-.9h0ZM103.7,73.5c0,.2,0,.4,0,.5,0,.2.1.3.2.4,0,.1.2.2.3.3.1,0,.3.1.5.1s.3,0,.5-.1c.1,0,.2-.2.3-.3,0-.1.1-.3.2-.4,0-.2,0-.4,0-.5h0c0-.3,0-.4,0-.6,0-.2-.1-.3-.2-.4,0-.1-.2-.2-.3-.3-.1,0-.3-.1-.5-.1s-.3,0-.5.1c-.1,0-.2.2-.3.3s-.1.3-.2.4c0,.2,0,.3,0,.5h0ZM108.6,71.4v.6c.2-.2.4-.4.6-.5.2-.1.5-.2.7-.2s.4,0,.6,0c.2,0,.3.2.5.3.1.1.2.3.3.5,0,.2.1.5.1.8v2.6h-.9v-2.6c0-.2,0-.3,0-.4,0-.1,0-.2-.2-.3,0,0-.2-.1-.3-.1-.1,0-.2,0-.4,0-.2,0-.4,0-.5.1-.2,0-.3.2-.4.4v3h-.9v-4.2h.8ZM114.2,74.4v.3c0,0,.1-.3.1-.3l1-3.1h1l-1.7,4.2h-.8l-1.7-4.2h1l1,3ZM119.3,75.7c-.3,0-.6,0-.9-.2-.3-.1-.5-.2-.7-.4-.2-.2-.3-.4-.4-.6-.1-.2-.2-.5-.2-.8v-.2c0-.3,0-.6.2-.9.1-.3.3-.5.4-.7.2-.2.4-.3.6-.4.2-.1.5-.2.8-.2s.6,0,.8.2c.2.1.4.2.6.4.2.2.3.4.4.7,0,.3.1.5.1.8v.4h-2.9c0,.2,0,.3.1.5,0,.1.2.3.3.4.1.1.2.2.4.2.1,0,.3,0,.5,0s.5,0,.7-.1c.2,0,.4-.2.5-.4l.5.5c0,.1-.2.2-.3.3-.1,0-.2.2-.4.3-.1,0-.3.1-.5.2-.2,0-.4,0-.6,0ZM119.2,72.1c-.1,0-.3,0-.4,0s-.2.1-.3.2c0,0-.2.2-.2.3,0,.1-.1.3-.1.4h2c0-.2,0-.3,0-.4,0-.1,0-.2-.2-.3,0,0-.2-.2-.3-.2-.1,0-.3,0-.4,0ZM125,71.3c0,0,.2,0,.2,0,0,0,.1,0,.2,0,0,0,.1,0,.2,0,0,0,.1,0,.1,0v.9c-.4,0-.7,0-1,0s-.6,0-.8.2c-.2.1-.3.3-.4.5v2.6h-.9v-4.2h.9v.7c.2-.2.4-.4.7-.5.2-.1.5-.2.8-.2ZM129.7,74.5c0,0,0-.1,0-.2,0,0,0-.1-.2-.2,0,0-.2,0-.3-.1-.1,0-.3,0-.5-.1-.2,0-.5-.1-.7-.2-.2,0-.4-.2-.5-.3-.1-.1-.3-.2-.3-.4,0-.1-.1-.3-.1-.5s0-.3.1-.5c0-.2.2-.3.3-.4.2-.1.3-.2.5-.3.2,0,.5-.1.7-.1s.5,0,.8.1c.2,0,.4.2.6.3.2.1.3.3.4.4,0,.2.1.3.1.5h-.9c0,0,0-.2,0-.2,0,0,0-.1-.2-.2s-.2-.1-.3-.1c-.1,0-.2,0-.4,0s-.3,0-.4,0c-.1,0-.2,0-.3.1,0,0-.1.1-.2.2,0,0,0,.1,0,.2s0,.1,0,.2c0,0,0,.1.1.2,0,0,.2,0,.3.1.1,0,.3,0,.5.1.3,0,.5.1.7.2.2,0,.4.2.5.3.2.1.3.2.3.4,0,.1.1.3.1.5s0,.4-.1.5c0,.2-.2.3-.4.4-.2.1-.3.2-.6.3-.2,0-.5,0-.7,0s-.6,0-.8-.1c-.2,0-.4-.2-.6-.3-.2-.1-.3-.3-.4-.5,0-.2-.1-.3-.1-.5h.9c0,.1,0,.2.1.3,0,0,.1.2.2.2,0,0,.2,0,.3.1.1,0,.2,0,.3,0,.3,0,.5,0,.7-.1.2,0,.2-.2.2-.4ZM134.4,75.6c0,0,0-.1,0-.2,0,0,0-.1,0-.2,0,0-.1.1-.2.2,0,0-.2.1-.3.2,0,0-.2,0-.3.1-.1,0-.2,0-.4,0-.2,0-.4,0-.6,0-.2,0-.3-.2-.5-.3-.1-.1-.2-.2-.3-.4,0-.2-.1-.3-.1-.5,0-.5.2-.8.5-1,.3-.2.8-.4,1.5-.4h.7v-.3c0-.2,0-.4-.2-.5-.2-.1-.4-.2-.6-.2s-.2,0-.3,0c0,0-.2,0-.2.1,0,0-.1.1-.1.2,0,0,0,.1,0,.2h-.9c0-.2,0-.3.1-.5,0-.2.2-.3.3-.4.1-.1.3-.2.5-.3.2,0,.5-.1.7-.1s.5,0,.7,0c.2,0,.4.2.6.3.2.1.3.3.4.5,0,.2.1.4.1.6v1.9c0,.2,0,.4,0,.5,0,.2,0,.3.1.4h0c0,0-1,0-1,0ZM133.3,74.9c.1,0,.2,0,.3,0,.1,0,.2,0,.3-.1,0,0,.2-.1.2-.2,0,0,.1-.1.1-.2v-.8h-.6c-.4,0-.7,0-.8.2-.2.1-.3.3-.3.5s0,.2,0,.2c0,0,0,.1.1.2,0,0,.1,0,.2.1,0,0,.2,0,.3,0ZM138.4,70.4v1h1.6v.7h-1.6v2c0,.2,0,.3,0,.4,0,.1,0,.2.2.2,0,0,.1.1.2.1,0,0,.2,0,.3,0s.2,0,.2,0c0,0,.2,0,.3,0,0,0,.2,0,.2,0,0,0,.1,0,.2,0v.6s0,0-.1.1c0,0-.2,0-.3,0s-.2,0-.4,0c-.1,0-.2,0-.4,0-.2,0-.4,0-.6,0-.2,0-.3-.2-.5-.3-.1-.1-.2-.3-.3-.5,0-.2-.1-.4-.1-.7v-2.1h-1v-.7h1v-1h.9ZM141.6,71.4h2.3v3.5h1.3v.8h-3.5v-.8h1.3v-2.7h-1.3v-.8ZM142.8,70.3c0-.1,0-.3.1-.4,0,0,.2-.1.4-.1s.3,0,.4.1c0,0,.1.2.1.4s0,.3-.1.4c0,0-.2.1-.4.1s-.3,0-.4-.1c0,0-.1-.2-.1-.4ZM146,73.4c0-.3,0-.6.1-.9,0-.3.2-.5.4-.7.2-.2.4-.3.6-.5.2-.1.5-.2.8-.2s.6,0,.8.2c.2.1.4.3.6.5.2.2.3.4.4.7,0,.3.1.5.1.9h0c0,.4,0,.7-.1.9,0,.3-.2.5-.4.7-.2.2-.4.3-.6.4-.2.1-.5.2-.8.2s-.6,0-.8-.2c-.2-.1-.4-.3-.6-.4-.2-.2-.3-.4-.4-.7,0-.3-.1-.5-.1-.9h0ZM146.9,73.5c0,.2,0,.4,0,.5,0,.2.1.3.2.4,0,.1.2.2.3.3.1,0,.3.1.5.1s.3,0,.5-.1c.1,0,.2-.2.3-.3,0-.1.1-.3.2-.4,0-.2,0-.4,0-.5h0c0-.3,0-.4,0-.6,0-.2-.1-.3-.2-.4,0-.1-.2-.2-.3-.3-.1,0-.3-.1-.5-.1s-.3,0-.5.1c-.1,0-.2.2-.3.3,0,.1-.1.3-.2.4,0,.2,0,.3,0,.5h0ZM151.8,71.4v.6c.2-.2.4-.4.6-.5.2-.1.5-.2.7-.2s.4,0,.6,0c.2,0,.3.2.5.3.1.1.2.3.3.5,0,.2.1.5.1.8v2.6h-.9v-2.6c0-.2,0-.3,0-.4,0-.1,0-.2-.2-.3,0,0-.2-.1-.3-.1-.1,0-.2,0-.4,0-.2,0-.4,0-.5.1-.2,0-.3.2-.4.4v3h-.9v-4.2h.8ZM100,84.4h-1v2.2h-.9v-5.7h1.8c.3,0,.6,0,.8.1.2,0,.5.2.6.3.2.1.3.3.4.5,0,.2.1.5.1.8s0,.4,0,.5c0,.2-.1.3-.2.4,0,.1-.2.2-.3.3-.1,0-.3.2-.4.2l1.2,2.4h0s-1,0-1,0l-1.1-2.2ZM99,83.6h.9c.2,0,.3,0,.4,0,.1,0,.2-.1.3-.2,0,0,.2-.2.2-.3,0-.1,0-.3,0-.4s0-.3,0-.4c0-.1-.1-.2-.2-.3,0,0-.2-.1-.3-.2-.1,0-.3,0-.4,0h-.9v2ZM102.7,84.4c0-.3,0-.6.1-.9,0-.3.2-.5.4-.7.2-.2.4-.3.6-.5.2-.1.5-.2.8-.2s.6,0,.8.2c.2.1.5.3.6.5.2.2.3.4.4.7,0,.3.1.5.1.9h0c0,.4,0,.7-.1.9,0,.3-.2.5-.4.7-.2.2-.4.3-.6.4-.2.1-.5.2-.8.2s-.6,0-.8-.2c-.2-.1-.4-.3-.6-.4-.2-.2-.3-.4-.4-.7,0-.3-.1-.5-.1-.9h0ZM103.7,84.5c0,.2,0,.4,0,.5,0,.2.1.3.2.4,0,.1.2.2.3.3.1,0,.3.1.5.1s.3,0,.5-.1c.1,0,.2-.2.3-.3,0-.1.1-.3.2-.4,0-.2,0-.4,0-.5h0c0-.3,0-.4,0-.6,0-.2-.1-.3-.2-.4,0-.1-.2-.2-.3-.3-.1,0-.3-.1-.5-.1s-.3,0-.5.1c-.1,0-.2.2-.3.3s-.1.3-.2.4c0,.2,0,.3,0,.5h0ZM110.4,86c-.1.2-.3.4-.5.5-.2.1-.4.2-.7.2s-.4,0-.6-.1c-.2,0-.3-.2-.5-.3-.1-.1-.2-.3-.3-.6,0-.2-.1-.5-.1-.8v-2.5h.9v2.5c0,.2,0,.4,0,.5,0,.1,0,.2.1.3,0,0,.1.1.2.2,0,0,.2,0,.3,0,.2,0,.5,0,.6-.1.2,0,.3-.2.3-.4v-3h.9v4.2h-.8v-.6ZM114.4,81.4v1h1.6v.7h-1.6v2c0,.2,0,.3,0,.4,0,.1,0,.2.2.2,0,0,.1.1.2.1,0,0,.2,0,.3,0s.2,0,.2,0c0,0,.2,0,.3,0,0,0,.2,0,.2,0,0,0,.1,0,.2,0v.6s0,0-.1.1c0,0-.2,0-.3,0s-.2,0-.4,0c-.1,0-.2,0-.4,0-.2,0-.4,0-.6,0-.2,0-.3-.2-.5-.3-.1-.1-.2-.3-.3-.5,0-.2-.1-.4-.1-.7v-2.1h-1v-.7h1v-1h.9ZM119.3,86.7c-.3,0-.6,0-.9-.2-.3-.1-.5-.2-.7-.4-.2-.2-.3-.4-.4-.6-.1-.2-.2-.5-.2-.8v-.2c0-.3,0-.6.2-.9.1-.3.3-.5.4-.7.2-.2.4-.3.6-.4.2-.1.5-.2.8-.2s.6,0,.8.2c.2.1.4.2.6.4.2.2.3.4.4.7,0,.3.1.5.1.8v.4h-2.9c0,.2,0,.3.1.5,0,.1.2.3.3.4.1.1.2.2.4.2.1,0,.3,0,.5,0s.5,0,.7-.1c.2,0,.4-.2.5-.4l.5.5c0,.1-.2.2-.3.3-.1,0-.2.2-.4.3-.1,0-.3.1-.5.2-.2,0-.4,0-.6,0ZM119.2,83.1c-.1,0-.3,0-.4,0s-.2.1-.3.2c0,0-.2.2-.2.3,0,.1-.1.3-.1.4h2c0-.2,0-.3,0-.4,0-.1,0-.2-.2-.3,0,0-.2-.2-.3-.2-.1,0-.3,0-.4,0ZM125,82.3c0,0,.2,0,.2,0,0,0,.1,0,.2,0,0,0,.1,0,.2,0,0,0,.1,0,.1,0v.9c-.4,0-.7,0-1,0s-.6,0-.8.2c-.2.1-.3.3-.4.5v2.6h-.9v-4.2h.9v.7c.2-.2.4-.4.7-.5.2-.1.5-.2.8-.2Z"/>
      <path class="st2" d="M20.4,50v-17.4"/>
      <path class="st2" d="M25,37.1l-4.6-4.6-4.6,4.6"/>
      <path class="st2" d="M20.4,50h95.6"/>
      <path class="st2" d="M85.9,49.5v-17.1"/>
      <path class="st2" d="M81.4,36.6l4.6-4.1,4.6,4.1"/>
      <path class="st2" d="M150.4,49.5v-17.1"/>
      <path class="st2" d="M145.9,36.6l4.6-4.1,4.6,4.1"/>
      <path class="st2" d="M114.5,106.5h72.1"/>
      <path class="st2" d="M182.5,101.9l4.1,4.6-4.1,4.6"/>
      <path class="st2" d="M114.5,60.4v-9.4"/>
      <path class="st2" d="M217.4,49.5v-17.1"/>
      <path class="st2" d="M212.9,36.6l4.6-4.1,4.6,4.1"/>
      <path class="st2" d="M114.5,106.2v-11.3"/>
      <path class="st5" d="M3.7,92.8l.7,2.5.8-2.5h1.2v5.7h-.9v-4.4c0,0-.8,2.7-.8,2.7h-.5l-.8-2.6v2.4c0,0,0,2,0,2h-.9v-5.7h1.2ZM10.2,97.9c-.1.2-.3.4-.5.5-.2.1-.4.2-.7.2s-.4,0-.6-.1c-.2,0-.3-.2-.5-.3-.1-.1-.2-.3-.3-.6,0-.2-.1-.5-.1-.8v-2.5h.9v2.5c0,.2,0,.4,0,.5,0,.1,0,.2.1.3,0,0,.1.1.2.2,0,0,.2,0,.3,0,.2,0,.5,0,.6-.1.2,0,.3-.2.3-.4v-3h.9v4.2h-.8v-.6ZM12.4,92.5h2.3v5.2h1.3v.8h-3.6v-.8h1.3v-4.4h-1.3v-.8ZM18.9,93.3v1h1.6v.7h-1.6v2c0,.2,0,.3,0,.4,0,.1,0,.2.2.2s.1.1.2.1c0,0,.2,0,.3,0s.2,0,.2,0c0,0,.2,0,.3,0,0,0,.2,0,.2,0,0,0,.1,0,.2,0v.6s0,0-.1.1c0,0-.2,0-.3,0-.1,0-.2,0-.4,0-.1,0-.2,0-.4,0-.2,0-.4,0-.6,0-.2,0-.3-.2-.5-.3-.1-.1-.2-.3-.3-.5,0-.2-.1-.4-.1-.7v-2.1h-1v-.7h1v-1h.9ZM22.1,94.3h2.3v3.5h1.3v.8h-3.5v-.8h1.3v-2.7h-1.3v-.8ZM23.3,93.2c0-.1,0-.3.1-.4,0,0,.2-.1.4-.1s.3,0,.4.1c0,0,.1.2.1.4s0,.3-.1.4c0,0-.2.1-.4.1s-.3,0-.4-.1c0,0-.1-.2-.1-.4ZM30.2,96.4h-3.1v-.8h3.1v.8ZM33.4,93.3v1h1.6v.7h-1.6v2c0,.2,0,.3,0,.4,0,.1,0,.2.2.2s.1.1.2.1c0,0,.2,0,.3,0s.2,0,.2,0c0,0,.2,0,.3,0,0,0,.2,0,.2,0,0,0,.1,0,.2,0v.6s0,0-.1.1c0,0-.2,0-.3,0-.1,0-.2,0-.4,0-.1,0-.2,0-.4,0-.2,0-.4,0-.6,0-.2,0-.3-.2-.5-.3-.1-.1-.2-.3-.3-.5,0-.2-.1-.4-.1-.7v-2.1h-1v-.7h1v-1h.9ZM39,97.9c-.1.2-.3.4-.5.5-.2.1-.4.2-.7.2s-.4,0-.6-.1c-.2,0-.3-.2-.5-.3-.1-.1-.2-.3-.3-.6,0-.2-.1-.5-.1-.8v-2.5h.9v2.5c0,.2,0,.4,0,.5,0,.1,0,.2.1.3,0,0,.1.1.2.2,0,0,.2,0,.3,0,.2,0,.5,0,.6-.1.2,0,.3-.2.3-.4v-3h.9v4.2h-.8v-.6ZM44,94.2c0,0,.2,0,.2,0,0,0,.1,0,.2,0,0,0,.1,0,.2,0,0,0,.1,0,.1,0v.9c-.4,0-.7,0-1,0s-.6,0-.8.2c-.2.1-.3.3-.4.5v2.6h-.9v-4.2h.9v.7c.2-.2.4-.4.7-.5.2-.1.5-.2.8-.2ZM46.7,94.3v.6c.2-.2.4-.4.6-.5.2-.1.5-.2.7-.2s.4,0,.6,0c.2,0,.3.2.5.3.1.1.2.3.3.5,0,.2.1.5.1.8v2.6h-.9v-2.6c0-.2,0-.3,0-.4,0-.1,0-.2-.2-.3,0,0-.2-.1-.3-.1-.1,0-.2,0-.4,0-.2,0-.4,0-.5.1-.2,0-.3.2-.4.4v3h-.9v-4.2h.8ZM4.5,108.9c.1,0,.2,0,.3,0,.1,0,.2,0,.3-.2,0,0,.1-.1.2-.2,0,0,0-.2,0-.3h.9c0,.2,0,.4-.1.6,0,.2-.2.3-.4.5-.2.1-.3.2-.6.3-.2,0-.4.1-.7.1s-.6,0-.9-.2c-.2-.1-.4-.3-.6-.5-.2-.2-.3-.4-.4-.7,0-.3-.1-.5-.1-.8h0c0-.4,0-.7.1-1,0-.3.2-.5.4-.7.2-.2.4-.3.6-.5.2-.1.5-.2.9-.2s.5,0,.7.1c.2,0,.4.2.6.3.2.1.3.3.4.5,0,.2.1.4.1.6h-.9c0-.1,0-.2,0-.3,0-.1-.1-.2-.2-.3,0,0-.2-.1-.3-.2-.1,0-.2,0-.4,0-.2,0-.4,0-.5.1-.1,0-.2.2-.3.3,0,.1-.1.3-.2.4,0,.2,0,.3,0,.5h0c0,.3,0,.5,0,.6,0,.2,0,.3.2.4,0,.1.2.2.3.3.1,0,.3.1.5.1ZM7.3,107.4c0-.3,0-.6.1-.9,0-.3.2-.5.4-.7.2-.2.4-.3.6-.5.2-.1.5-.2.8-.2s.6,0,.8.2c.2.1.5.3.6.5.2.2.3.4.4.7s.1.5.1.9h0c0,.4,0,.7-.1.9s-.2.5-.4.7c-.2.2-.4.3-.6.4-.2.1-.5.2-.8.2s-.6,0-.8-.2c-.2-.1-.4-.3-.6-.4-.2-.2-.3-.4-.4-.7,0-.3-.1-.5-.1-.9h0ZM8.2,107.5c0,.2,0,.4,0,.5,0,.2.1.3.2.4,0,.1.2.2.3.3.1,0,.3.1.5.1s.3,0,.5-.1c.1,0,.2-.2.3-.3,0-.1.1-.3.2-.4,0-.2,0-.3,0-.5h0c0-.3,0-.4,0-.6,0-.2-.1-.3-.2-.4,0-.1-.2-.2-.3-.3-.1,0-.3-.1-.5-.1s-.3,0-.5.1c-.1,0-.2.2-.3.3,0,.1-.1.3-.2.4,0,.2,0,.3,0,.5h0ZM13.1,105.3v.6c.2-.2.4-.4.6-.5.2-.1.5-.2.7-.2s.4,0,.6,0c.2,0,.3.2.5.3.1.1.2.3.3.5,0,.2.1.5.1.8v2.6h-.9v-2.6c0-.2,0-.3,0-.4,0-.1,0-.2-.2-.3,0,0-.2-.1-.3-.1-.1,0-.2,0-.4,0-.2,0-.4,0-.5.1-.2,0-.3.2-.4.4v3h-.9v-4.2h.8ZM18.9,104.3v1h1.6v.7h-1.6v2c0,.2,0,.3,0,.4,0,.1,0,.2.2.2,0,0,.1.1.2.1,0,0,.2,0,.3,0s.2,0,.2,0c0,0,.2,0,.3,0,0,0,.2,0,.2,0,0,0,.1,0,.2,0v.6s0,0-.1.1c0,0-.2,0-.3,0-.1,0-.2,0-.4,0-.1,0-.2,0-.4,0-.2,0-.4,0-.6,0-.2,0-.3-.2-.5-.3-.1-.1-.2-.3-.3-.5,0-.2-.1-.4-.1-.7v-2.1h-1v-.7h1v-1h.9ZM23.8,109.6c-.3,0-.6,0-.9-.2-.3-.1-.5-.2-.7-.4-.2-.2-.3-.4-.4-.6-.1-.2-.2-.5-.2-.8v-.2c0-.3,0-.6.2-.9.1-.3.3-.5.4-.7.2-.2.4-.3.6-.4.2-.1.5-.2.8-.2s.6,0,.8.2c.2.1.4.2.6.4.2.2.3.4.4.7,0,.3.1.5.1.8v.4h-2.9c0,.2,0,.3.1.5,0,.1.1.3.3.4.1.1.2.2.4.2.1,0,.3,0,.5,0s.5,0,.7-.1c.2,0,.4-.2.5-.4l.5.5c0,.1-.2.2-.3.3-.1,0-.2.2-.4.3-.1,0-.3.1-.5.2-.2,0-.4,0-.6,0ZM23.7,106c-.1,0-.3,0-.4,0-.1,0-.2.1-.3.2,0,0-.2.2-.2.3,0,.1-.1.3-.1.4h2c0-.2,0-.3,0-.4,0-.1,0-.2-.2-.3,0,0-.2-.2-.3-.2-.1,0-.3,0-.4,0ZM28.5,106.7l1-1.4h1l-1.5,2.1,1.5,2.1h-1l-1-1.5-1,1.5h-1l1.5-2.1-1.5-2.1h1l1,1.4ZM33.4,104.3v1h1.6v.7h-1.6v2c0,.2,0,.3,0,.4,0,.1,0,.2.2.2,0,0,.1.1.2.1,0,0,.2,0,.3,0s.2,0,.2,0c0,0,.2,0,.3,0,0,0,.2,0,.2,0,0,0,.1,0,.2,0v.6s0,0-.1.1c0,0-.2,0-.3,0-.1,0-.2,0-.4,0-.1,0-.2,0-.4,0-.2,0-.4,0-.6,0-.2,0-.3-.2-.5-.3-.1-.1-.2-.3-.3-.5,0-.2-.1-.4-.1-.7v-2.1h-1v-.7h1v-1h.9Z"/>
      <rect class="st1" x="1.5" y="1" width="50" height="22" rx="4" ry="4"/>
      <path class="st7" d="M11.1,12.9v2.2h-.9v-5.7h1.9c.3,0,.5,0,.8.1.2,0,.5.2.6.4.2.2.3.3.4.6,0,.2.1.5.1.7s0,.5-.1.7c0,.2-.2.4-.4.5-.2.2-.4.3-.6.3-.2,0-.5.1-.8.1h-1ZM11.1,12.1h1c.2,0,.3,0,.4,0,.1,0,.2-.1.3-.2,0,0,.2-.2.2-.3,0-.1,0-.2,0-.4s0-.3,0-.4c0-.1-.1-.2-.2-.3,0,0-.2-.2-.3-.2-.1,0-.3,0-.4,0h-1v2ZM15.1,9h2.3v5.2h1.3v.8h-3.6v-.8h1.3v-4.4h-1.3v-.8ZM22.4,15c0,0,0-.1,0-.2,0,0,0-.1,0-.2,0,0-.1.1-.2.2,0,0-.2.1-.3.2,0,0-.2,0-.3.1-.1,0-.2,0-.4,0-.2,0-.4,0-.6,0-.2,0-.3-.2-.5-.3-.1-.1-.2-.2-.3-.4,0-.2-.1-.3-.1-.5,0-.5.2-.8.5-1,.3-.2.8-.4,1.5-.4h.7v-.3c0-.2,0-.4-.2-.5-.2-.1-.4-.2-.6-.2s-.2,0-.3,0c0,0-.2,0-.2.1,0,0-.1.1-.1.2,0,0,0,.1,0,.2h-.9c0-.2,0-.3.1-.5,0-.2.2-.3.3-.4.1-.1.3-.2.5-.3.2,0,.5-.1.7-.1s.5,0,.7,0c.2,0,.4.2.6.3.2.1.3.3.4.5,0,.2.1.4.1.6v1.9c0,.2,0,.4,0,.5,0,.2,0,.3.1.4h0c0,0-1,0-1,0ZM21.3,14.4c.1,0,.2,0,.3,0,.1,0,.2,0,.3-.1,0,0,.2-.1.2-.2,0,0,.1-.1.1-.2v-.8h-.6c-.4,0-.7,0-.8.2-.2.1-.3.3-.3.5s0,.2,0,.2c0,0,0,.1.1.2,0,0,.1,0,.2.1,0,0,.2,0,.3,0ZM27.3,13.9c0,0,0-.1,0-.2,0,0,0-.1-.2-.2,0,0-.2,0-.3-.1-.1,0-.3,0-.5-.1-.2,0-.5-.1-.7-.2-.2,0-.4-.2-.5-.3-.1-.1-.3-.2-.3-.4,0-.1-.1-.3-.1-.5s0-.3.1-.5c0-.2.2-.3.3-.4.2-.1.3-.2.5-.3.2,0,.5-.1.7-.1s.5,0,.8.1c.2,0,.4.2.6.3.2.1.3.3.4.4,0,.2.1.3.1.5h-.9c0,0,0-.2,0-.2,0,0,0-.1-.2-.2,0,0-.2-.1-.3-.1-.1,0-.2,0-.4,0s-.3,0-.4,0c-.1,0-.2,0-.3.1,0,0-.1.1-.2.2,0,0,0,.1,0,.2s0,.1,0,.2c0,0,0,.1.1.2,0,0,.2,0,.3.1.1,0,.3,0,.5.1.3,0,.5.1.7.2.2,0,.4.2.5.3.2.1.3.2.3.4,0,.1.1.3.1.5s0,.4-.1.5c0,.2-.2.3-.4.4-.2.1-.4.2-.6.3-.2,0-.5,0-.7,0s-.6,0-.8-.1c-.2,0-.4-.2-.6-.3-.2-.1-.3-.3-.4-.5,0-.2-.1-.3-.1-.5h.9c0,.1,0,.2.1.3,0,0,.1.2.2.2,0,0,.2,0,.3.1.1,0,.2,0,.3,0,.3,0,.5,0,.7-.1.2,0,.2-.2.2-.4ZM31.2,9.8v1h1.6v.7h-1.6v2c0,.2,0,.3,0,.4,0,.1,0,.2.2.2,0,0,.1.1.2.1,0,0,.2,0,.3,0s.2,0,.2,0c0,0,.2,0,.3,0,0,0,.2,0,.2,0,0,0,.1,0,.2,0v.6s0,0-.1.1c0,0-.2,0-.3,0-.1,0-.2,0-.4,0-.1,0-.2,0-.4,0-.2,0-.4,0-.6,0-.2,0-.3-.2-.5-.3-.1-.1-.2-.3-.3-.5,0-.2-.1-.4-.1-.7v-2.1h-1v-.7h1v-1h.9ZM34.3,10.8h2.3v3.5h1.3v.8h-3.5v-.8h1.3v-2.7h-1.3v-.8ZM35.6,9.7c0-.1,0-.3.1-.4,0,0,.2-.1.4-.1s.3,0,.4.1c0,0,.1.2.1.4s0,.3-.1.4c0,0-.2.1-.4.1s-.3,0-.4-.1c0,0-.1-.2-.1-.4ZM40.8,14.4c.1,0,.2,0,.3,0,.1,0,.2,0,.3-.2,0,0,.1-.1.2-.2,0,0,0-.2,0-.3h.9c0,.2,0,.4-.1.6,0,.2-.2.3-.4.5-.2.1-.3.2-.6.3-.2,0-.4.1-.7.1s-.6,0-.9-.2c-.2-.1-.4-.3-.6-.5-.2-.2-.3-.4-.4-.7,0-.3-.1-.5-.1-.8h0c0-.4,0-.7.1-1,0-.3.2-.5.4-.7.2-.2.4-.3.6-.5.2-.1.5-.2.9-.2s.5,0,.7.1c.2,0,.4.2.6.3.2.1.3.3.4.5,0,.2.1.4.1.6h-.9c0-.1,0-.2,0-.3,0-.1-.1-.2-.2-.3,0,0-.2-.1-.3-.2-.1,0-.2,0-.4,0-.2,0-.4,0-.5.1-.1,0-.2.2-.3.3,0,.1-.1.3-.2.4,0,.2,0,.3,0,.5h0c0,.3,0,.5,0,.6,0,.2,0,.3.2.4,0,.1.2.2.3.3.1,0,.3.1.5.1Z"/>
      <rect class="st1" x="63.5" y="1" width="45" height="22" rx="4" ry="4"/>
      <path class="st7" d="M73.2,9.4l.7,2.5.8-2.5h1.2v5.7h-.9v-4.4c0,0-.8,2.7-.8,2.7h-.5l-.8-2.6v2.4c0,0,0,2,0,2h-.9v-5.7h1.2ZM78.9,15.1c-.3,0-.6,0-.9-.2-.3-.1-.5-.2-.7-.4-.2-.2-.3-.4-.4-.6-.1-.2-.2-.5-.2-.8v-.2c0-.3,0-.6.2-.9.1-.3.3-.5.4-.7.2-.2.4-.3.6-.4.2-.1.5-.2.8-.2s.6,0,.8.2c.2.1.4.2.6.4.2.2.3.4.4.7,0,.3.1.5.1.8v.4h-2.9c0,.2,0,.3.1.5,0,.1.1.3.3.4.1.1.2.2.4.2.1,0,.3,0,.5,0s.5,0,.7-.1c.2,0,.4-.2.5-.4l.5.5c0,.1-.2.2-.3.3-.1,0-.2.2-.4.3-.1,0-.3.1-.5.2-.2,0-.4,0-.6,0ZM78.8,11.5c-.1,0-.3,0-.4,0-.1,0-.2.1-.3.2,0,0-.2.2-.2.3,0,.1-.1.3-.1.4h2c0-.2,0-.3,0-.4,0-.1,0-.2-.2-.3,0,0-.2-.2-.3-.2-.1,0-.3,0-.4,0ZM83.6,9.8v1h1.6v.7h-1.6v2c0,.2,0,.3,0,.4,0,.1,0,.2.2.2,0,0,.1.1.2.1,0,0,.2,0,.3,0s.2,0,.2,0c0,0,.2,0,.3,0,0,0,.2,0,.2,0,0,0,.1,0,.2,0v.6s0,0-.1.1c0,0-.2,0-.3,0-.1,0-.2,0-.4,0-.1,0-.2,0-.4,0-.2,0-.4,0-.6,0-.2,0-.3-.2-.5-.3-.1-.1-.2-.3-.3-.5,0-.2-.1-.4-.1-.7v-2.1h-1v-.7h1v-1h.9ZM89.2,15c0,0,0-.1,0-.2,0,0,0-.1,0-.2,0,0-.1.1-.2.2,0,0-.2.1-.3.2,0,0-.2,0-.3.1-.1,0-.2,0-.4,0-.2,0-.4,0-.6,0-.2,0-.3-.2-.5-.3-.1-.1-.2-.2-.3-.4,0-.2-.1-.3-.1-.5,0-.5.2-.8.5-1,.3-.2.8-.4,1.5-.4h.7v-.3c0-.2,0-.4-.2-.5-.2-.1-.4-.2-.6-.2s-.2,0-.3,0c0,0-.2,0-.2.1,0,0-.1.1-.1.2,0,0,0,.1,0,.2h-.9c0-.2,0-.3.1-.5,0-.2.2-.3.3-.4.1-.1.3-.2.5-.3.2,0,.5-.1.7-.1s.5,0,.7,0c.2,0,.4.2.6.3.2.1.3.3.4.5,0,.2.1.4.1.6v1.9c0,.2,0,.4,0,.5,0,.2,0,.3.1.4h0c0,0-1,0-1,0ZM88.1,14.4c.1,0,.2,0,.3,0,.1,0,.2,0,.3-.1,0,0,.2-.1.2-.2,0,0,.1-.1.1-.2v-.8h-.6c-.4,0-.7,0-.8.2-.2.1-.3.3-.3.5s0,.2,0,.2c0,0,0,.1.1.2,0,0,.1,0,.2.1,0,0,.2,0,.3,0ZM91.5,9h2.3v5.2h1.3v.8h-3.6v-.8h1.3v-4.4h-1.3v-.8ZM98.9,13.9c0,0,0-.1,0-.2,0,0,0-.1-.2-.2,0,0-.2,0-.3-.1-.1,0-.3,0-.5-.1-.2,0-.5-.1-.7-.2-.2,0-.4-.2-.5-.3-.1-.1-.3-.2-.3-.4,0-.1-.1-.3-.1-.5s0-.3.1-.5c0-.2.2-.3.3-.4.2-.1.3-.2.5-.3.2,0,.5-.1.7-.1s.5,0,.8.1c.2,0,.4.2.6.3.2.1.3.3.4.4,0,.2.1.3.1.5h-.9c0,0,0-.2,0-.2,0,0,0-.1-.2-.2,0,0-.2-.1-.3-.1-.1,0-.2,0-.4,0s-.3,0-.4,0c-.1,0-.2,0-.3.1,0,0-.1.1-.2.2,0,0,0,.1,0,.2s0,.1,0,.2c0,0,0,.1.1.2,0,0,.2,0,.3.1.1,0,.3,0,.5.1.3,0,.5.1.7.2.2,0,.4.2.5.3.2.1.3.2.3.4,0,.1.1.3.1.5s0,.4-.1.5c0,.2-.2.3-.4.4-.2.1-.4.2-.6.3-.2,0-.5,0-.7,0s-.6,0-.8-.1c-.2,0-.4-.2-.6-.3-.2-.1-.3-.3-.4-.5,0-.2-.1-.3-.1-.5h.9c0,.1,0,.2.1.3,0,0,.1.2.2.2,0,0,.2,0,.3.1.1,0,.2,0,.3,0,.3,0,.5,0,.7-.1.2,0,.2-.2.2-.4Z"/>
      <rect class="st1" x="120.5" y="1" width="60" height="22" rx="4" ry="4"/>
      <path class="st7" d="M132.5,12.6h-2.4v2.4h-.9v-5.7h3.7v.8h-2.7v1.7h2.4v.8ZM136.6,15c0,0,0-.1,0-.2,0,0,0-.1,0-.2,0,0-.1.1-.2.2,0,0-.2.1-.3.2,0,0-.2,0-.3.1-.1,0-.2,0-.4,0-.2,0-.4,0-.6,0-.2,0-.3-.2-.5-.3-.1-.1-.2-.2-.3-.4,0-.2-.1-.3-.1-.5,0-.5.2-.8.5-1,.3-.2.8-.4,1.5-.4h.7v-.3c0-.2,0-.4-.2-.5-.2-.1-.4-.2-.6-.2s-.2,0-.3,0c0,0-.2,0-.2.1,0,0-.1.1-.1.2,0,0,0,.1,0,.2h-.9c0-.2,0-.3.1-.5,0-.2.2-.3.3-.4.1-.1.3-.2.5-.3.2,0,.5-.1.7-.1s.5,0,.7,0c.2,0,.4.2.6.3.2.1.3.3.4.5,0,.2.1.4.1.6v1.9c0,.2,0,.4,0,.5,0,.2,0,.3.1.4h0c0,0-1,0-1,0ZM135.5,14.4c.1,0,.2,0,.3,0,.1,0,.2,0,.3-.1,0,0,.2-.1.2-.2,0,0,.1-.1.1-.2v-.8h-.6c-.4,0-.7,0-.8.2-.2.1-.3.3-.3.5s0,.2,0,.2c0,0,0,.1.1.2,0,0,.1,0,.2.1,0,0,.2,0,.3,0ZM141.5,13.9c0,0,0-.1,0-.2,0,0,0-.1-.2-.2,0,0-.2,0-.3-.1-.1,0-.3,0-.5-.1-.2,0-.5-.1-.7-.2-.2,0-.4-.2-.5-.3-.1-.1-.3-.2-.3-.4,0-.1-.1-.3-.1-.5s0-.3.1-.5c0-.2.2-.3.3-.4.2-.1.3-.2.5-.3.2,0,.5-.1.7-.1s.5,0,.8.1c.2,0,.4.2.6.3.2.1.3.3.4.4,0,.2.1.3.1.5h-.9c0,0,0-.2,0-.2,0,0,0-.1-.2-.2,0,0-.2-.1-.3-.1-.1,0-.2,0-.4,0s-.3,0-.4,0c-.1,0-.2,0-.3.1,0,0-.1.1-.2.2,0,0,0,.1,0,.2s0,.1,0,.2c0,0,0,.1.1.2,0,0,.2,0,.3.1.1,0,.3,0,.5.1.3,0,.5.1.7.2.2,0,.4.2.5.3.2.1.3.2.3.4,0,.1.1.3.1.5s0,.4-.1.5c0,.2-.2.3-.4.4-.2.1-.4.2-.6.3-.2,0-.5,0-.7,0s-.6,0-.8-.1c-.2,0-.4-.2-.6-.3s-.3-.3-.4-.5c0-.2-.1-.3-.1-.5h.9c0,.1,0,.2.1.3,0,0,.1.2.2.2,0,0,.2,0,.3.1.1,0,.2,0,.3,0,.3,0,.5,0,.7-.1.2,0,.2-.2.2-.4ZM145.4,9.8v1h1.6v.7h-1.6v2c0,.2,0,.3,0,.4,0,.1,0,.2.2.2,0,0,.1.1.2.1,0,0,.2,0,.3,0s.2,0,.2,0c0,0,.2,0,.3,0,0,0,.2,0,.2,0,0,0,.1,0,.2,0v.6s0,0-.1.1c0,0-.2,0-.3,0-.1,0-.2,0-.4,0-.1,0-.2,0-.4,0-.2,0-.4,0-.6,0-.2,0-.3-.2-.5-.3-.1-.1-.2-.3-.3-.5,0-.2-.1-.4-.1-.7v-2.1h-1v-.7h1v-1h.9ZM150.3,15.1c-.3,0-.6,0-.9-.2-.3-.1-.5-.2-.7-.4-.2-.2-.3-.4-.4-.6-.1-.2-.2-.5-.2-.8v-.2c0-.3,0-.6.2-.9.1-.3.3-.5.4-.7.2-.2.4-.3.6-.4.2-.1.5-.2.8-.2s.6,0,.8.2c.2.1.4.2.6.4.2.2.3.4.4.7,0,.3.1.5.1.8v.4h-2.9c0,.2,0,.3.1.5,0,.1.2.3.3.4.1.1.2.2.4.2.1,0,.3,0,.5,0s.5,0,.7-.1c.2,0,.4-.2.5-.4l.5.5c0,.1-.2.2-.3.3-.1,0-.2.2-.4.3-.1,0-.3.1-.5.2-.2,0-.4,0-.6,0ZM150.2,11.5c-.1,0-.3,0-.4,0-.1,0-.2.1-.3.2,0,0-.2.2-.2.3,0,.1-.1.3-.1.4h2c0-.2,0-.3,0-.4,0-.1,0-.2-.2-.3,0,0-.2-.2-.3-.2-.1,0-.3,0-.4,0ZM154,10.8v.6c.2-.2.4-.4.6-.5.2-.1.5-.2.7-.2s.4,0,.6,0c.2,0,.3.2.5.3.1.1.2.3.3.5,0,.2.1.5.1.8v2.6h-.9v-2.6c0-.2,0-.3,0-.4,0-.1,0-.2-.2-.3,0,0-.2-.1-.3-.1-.1,0-.2,0-.4,0-.2,0-.4,0-.5.1-.2,0-.3.2-.4.4v3h-.9v-4.2h.8ZM159.9,15.1c-.3,0-.6,0-.9-.2-.3-.1-.5-.2-.7-.4-.2-.2-.3-.4-.4-.6-.1-.2-.2-.5-.2-.8v-.2c0-.3,0-.6.2-.9.1-.3.3-.5.4-.7.2-.2.4-.3.6-.4.2-.1.5-.2.8-.2s.6,0,.8.2c.2.1.4.2.6.4.2.2.3.4.4.7,0,.3.1.5.1.8v.4h-2.9c0,.2,0,.3.1.5,0,.1.1.3.3.4.1.1.2.2.4.2.1,0,.3,0,.5,0s.5,0,.7-.1c.2,0,.4-.2.5-.4l.5.5c0,.1-.2.2-.3.3-.1,0-.2.2-.4.3-.1,0-.3.1-.5.2-.2,0-.4,0-.6,0ZM159.8,11.5c-.1,0-.3,0-.4,0-.1,0-.2.1-.3.2,0,0-.2.2-.2.3,0,.1-.1.3-.1.4h2c0-.2,0-.3,0-.4,0-.1,0-.2-.2-.3,0,0-.2-.2-.3-.2-.1,0-.3,0-.4,0ZM165.6,10.7c0,0,.2,0,.2,0,0,0,.1,0,.2,0,0,0,.1,0,.2,0,0,0,.1,0,.1,0v.9c-.4,0-.7,0-1,0s-.6,0-.8.2c-.2.1-.3.3-.4.5v2.6h-.9v-4.2h.9v.7c.2-.2.4-.4.7-.5.2-.1.5-.2.8-.2ZM170.3,13.9c0,0,0-.1,0-.2,0,0,0-.1-.2-.2,0,0-.2,0-.3-.1-.1,0-.3,0-.5-.1-.2,0-.5-.1-.7-.2-.2,0-.4-.2-.5-.3-.1-.1-.3-.2-.3-.4,0-.1-.1-.3-.1-.5s0-.3.1-.5c0-.2.2-.3.3-.4.2-.1.3-.2.5-.3.2,0,.5-.1.7-.1s.5,0,.8.1c.2,0,.4.2.6.3.2.1.3.3.4.4,0,.2.1.3.1.5h-.9c0,0,0-.2,0-.2,0,0,0-.1-.2-.2,0,0-.2-.1-.3-.1-.1,0-.2,0-.4,0s-.3,0-.4,0c-.1,0-.2,0-.3.1,0,0-.1.1-.2.2,0,0,0,.1,0,.2s0,.1,0,.2c0,0,0,.1.1.2,0,0,.2,0,.3.1.1,0,.3,0,.5.1.3,0,.5.1.7.2.2,0,.4.2.5.3.2.1.3.2.3.4,0,.1.1.3.1.5s0,.4-.1.5c0,.2-.2.3-.4.4-.2.1-.4.2-.6.3-.2,0-.5,0-.7,0s-.6,0-.8-.1c-.2,0-.4-.2-.6-.3s-.3-.3-.4-.5c0-.2-.1-.3-.1-.5h.9c0,.1,0,.2.1.3,0,0,.1.2.2.2,0,0,.2,0,.3.1.1,0,.2,0,.3,0,.3,0,.5,0,.7-.1.2,0,.2-.2.2-.4Z"/>
      <rect class="st1" x="192.5" y="1" width="50" height="22" rx="4" ry="4"/>
      <path class="st7" d="M201.1,15v-5.7h1.8c.3,0,.5,0,.8,0,.2,0,.4.2.6.3.2.1.3.3.4.5.1.2.2.4.1.7,0,.3,0,.5-.2.7-.2.2-.4.4-.6.5.2,0,.3.1.4.2.1,0,.2.2.3.3,0,.1.1.2.2.4,0,.1,0,.3,0,.4,0,.3,0,.5-.1.7s-.2.4-.4.5c-.2.1-.4.2-.6.3-.2,0-.5.1-.8.1h-1.9ZM202,12.5v1.8h1c.1,0,.3,0,.4,0,.1,0,.2-.1.3-.2,0,0,.2-.2.2-.3,0-.1,0-.2,0-.4s0-.3,0-.4c0-.1-.1-.2-.2-.3,0,0-.2-.1-.3-.2-.1,0-.3,0-.4,0h-1.1ZM202,11.8h.9c.1,0,.3,0,.4,0,.1,0,.2,0,.3-.2,0,0,.2-.2.2-.3,0-.1,0-.2,0-.3s0-.3,0-.4c0-.1-.1-.2-.2-.2,0,0-.2-.1-.3-.1-.1,0-.3,0-.4,0h-.9v1.6ZM206.1,10.8h2.3v3.5h1.3v.8h-3.5v-.8h1.3v-2.7h-1.3v-.8ZM207.3,9.7c0-.1,0-.3.1-.4,0,0,.2-.1.4-.1s.3,0,.4.1c0,0,.1.2.1.4s0,.3-.1.4c0,0-.2.1-.4.1s-.3,0-.4-.1c0,0-.1-.2-.1-.4ZM210.9,9h2.3v5.2h1.3v.8h-3.6v-.8h1.3v-4.4h-1.3v-.8ZM215.7,9h2.3v5.2h1.3v.8h-3.6v-.8h1.3v-4.4h-1.3v-.8ZM220.5,10.8h2.3v3.5h1.3v.8h-3.5v-.8h1.3v-2.7h-1.3v-.8ZM221.8,9.7c0-.1,0-.3.1-.4,0,0,.2-.1.4-.1s.3,0,.4.1c0,0,.1.2.1.4s0,.3-.1.4c0,0-.2.1-.4.1s-.3,0-.4-.1c0,0-.1-.2-.1-.4ZM226,10.8v.6c.2-.2.4-.4.6-.5.2-.1.5-.2.7-.2s.4,0,.6,0c.2,0,.3.2.5.3.1.1.2.3.3.5,0,.2.1.5.1.8v2.6h-.9v-2.6c0-.2,0-.3,0-.4,0-.1,0-.2-.2-.3,0,0-.2-.1-.3-.1-.1,0-.2,0-.4,0-.2,0-.4,0-.5.1-.2,0-.3.2-.4.4v3h-.9v-4.2h.8ZM229.8,12.9c0-.3,0-.6.1-.9,0-.3.2-.5.3-.7.1-.2.3-.3.5-.4.2-.1.4-.2.7-.2s.5,0,.7.1c.2,0,.3.2.5.4v-.4h.9v4.1c0,.3,0,.5-.1.8,0,.2-.2.4-.4.6-.2.2-.4.3-.6.3-.2,0-.5.1-.8.1s-.2,0-.4,0c-.1,0-.3,0-.4-.1-.1,0-.3-.1-.4-.2-.1,0-.2-.2-.3-.3l.4-.6c.2.2.3.3.5.4.2,0,.4.1.6.1s.3,0,.4,0c.1,0,.2-.1.3-.2,0,0,.2-.2.2-.3,0-.1,0-.3,0-.4v-.3c-.1.1-.3.3-.5.3-.2,0-.4.1-.6.1s-.5,0-.7-.2c-.2-.1-.4-.3-.5-.4-.1-.2-.3-.4-.3-.7,0-.3-.1-.5-.1-.9h0ZM230.8,13c0,.2,0,.4,0,.5,0,.2,0,.3.2.4,0,.1.2.2.3.3.1,0,.3.1.4.1s.4,0,.5-.1c.1,0,.2-.2.3-.4v-1.9c0-.1-.2-.3-.3-.4-.1,0-.3-.1-.5-.1s-.3,0-.4.1c-.1,0-.2.2-.3.3,0,.1-.1.3-.2.4,0,.2,0,.3,0,.5h0Z"/>
      <rect class="st1" x="254.5" y="1" width="31" height="22" rx="4" ry="4"/>
      <path class="st7" d="M264.3,14.5c0,0,0-.2,0-.3,0,0,0-.1.1-.2,0,0,.1-.1.2-.1,0,0,.2,0,.3,0s.2,0,.3,0c0,0,.2,0,.2.1,0,0,.1.1.1.2,0,0,0,.2,0,.3s0,.2,0,.3c0,0,0,.1-.1.2,0,0-.1.1-.2.1,0,0-.2,0-.3,0s-.2,0-.3,0c0,0-.2,0-.2-.1,0,0-.1-.1-.1-.2,0,0,0-.2,0-.3ZM269.1,14.5c0,0,0-.2,0-.3,0,0,0-.1.1-.2,0,0,.1-.1.2-.1,0,0,.2,0,.3,0s.2,0,.3,0c0,0,.2,0,.2.1,0,0,.1.1.1.2,0,0,0,.2,0,.3s0,.2,0,.3c0,0,0,.1-.1.2,0,0-.1.1-.2.1,0,0-.2,0-.3,0s-.2,0-.3,0c0,0-.2,0-.2-.1,0,0-.1-.1-.1-.2,0,0,0-.2,0-.3ZM273.9,14.5c0,0,0-.2,0-.3,0,0,0-.1.1-.2,0,0,.1-.1.2-.1,0,0,.2,0,.3,0s.2,0,.3,0c0,0,.2,0,.2.1,0,0,.1.1.1.2,0,0,0,.2,0,.3s0,.2,0,.3c0,0,0,.1-.1.2,0,0-.1.1-.2.1,0,0-.2,0-.3,0s-.2,0-.3,0c0,0-.2,0-.2-.1,0,0-.1-.1-.1-.2,0,0,0-.2,0-.3Z"/>
      <rect class="st1" x="192.5" y="90" width="93" height="33" rx="4" ry="4"/>
      <g class="st4">
        <g>
          <path class="st3" d="M205.8,103.1c0,.7.3,1.4.8,1.9.5.5,1.2.8,1.9.8s1.4-.3,1.9-.8.8-1.2.8-1.9-.3-1.4-.8-1.9-1.2-.8-1.9-.8-1.4.3-1.9.8c-.5.5-.8,1.2-.8,1.9Z"/>
          <path class="st3" d="M204.5,112.5v-1.3c0-.7.3-1.4.8-1.9s1.2-.8,1.9-.8h2.7c.7,0,1.4.3,1.9.8s.8,1.2.8,1.9v1.3"/>
        </g>
      </g>
      <path class="st7" d="M228.8,109.5h-.9v-2.5h-1.9v2.5h-.9v-5.7h.9v2.4h1.9v-2.4h.9v5.7ZM232.6,108.9c-.1.2-.3.4-.5.5-.2.1-.4.2-.7.2s-.4,0-.6-.1c-.2,0-.3-.2-.5-.3-.1-.1-.2-.3-.3-.6,0-.2-.1-.5-.1-.8v-2.5h.9v2.5c0,.2,0,.4,0,.5,0,.1,0,.2.1.3,0,0,.1.1.2.2,0,0,.2,0,.3,0,.2,0,.5,0,.6-.1.2,0,.3-.2.3-.4v-3h.9v4.2h-.8v-.6ZM235.3,105.2v.4c.1-.2.2-.3.4-.4.1,0,.3-.1.5-.1s.3,0,.4.1c.1,0,.2.2.3.3,0-.1.2-.2.3-.3.1,0,.3-.1.5-.1s.3,0,.4,0c.1,0,.2.1.3.2,0,0,.1.2.2.4,0,.2,0,.3,0,.6v3.1h-.9v-3.1c0-.2,0-.3-.1-.3,0,0-.2,0-.3,0s-.2,0-.3,0c0,0-.1.1-.1.2v3.3h-.8v-3.1c0-.2,0-.3-.1-.3,0,0-.2-.1-.3-.1s-.2,0-.3,0c0,0-.1.1-.1.2v3.3h-.9v-4.2h.8ZM242.2,109.5c0,0,0-.1,0-.2,0,0,0-.1,0-.2,0,0-.1.1-.2.2,0,0-.2.1-.3.2,0,0-.2,0-.3.1-.1,0-.2,0-.4,0-.2,0-.4,0-.6,0-.2,0-.3-.2-.5-.3-.1-.1-.2-.2-.3-.4,0-.2-.1-.3-.1-.5,0-.5.2-.8.5-1,.3-.2.8-.4,1.5-.4h.7v-.3c0-.2,0-.4-.2-.5-.2-.1-.4-.2-.6-.2s-.2,0-.3,0c0,0-.2,0-.2.1,0,0-.1.1-.1.2,0,0,0,.1,0,.2h-.9c0-.2,0-.3.1-.5,0-.2.2-.3.3-.4.1-.1.3-.2.5-.3.2,0,.5-.1.7-.1s.5,0,.7,0c.2,0,.4.2.6.3.2.1.3.3.4.5,0,.2.1.4.1.6v1.9c0,.2,0,.4,0,.5,0,.2,0,.3.1.4h0c0,0-1,0-1,0ZM241.1,108.8c.1,0,.2,0,.3,0,.1,0,.2,0,.3-.1,0,0,.2-.1.2-.2,0,0,.1-.1.1-.2v-.8h-.6c-.4,0-.7,0-.8.2-.2.1-.3.3-.3.5s0,.2,0,.2c0,0,0,.1.1.2,0,0,.1,0,.2.1,0,0,.2,0,.3,0ZM245.2,105.2v.6c.2-.2.4-.4.6-.5.2-.1.5-.2.7-.2s.4,0,.6,0c.2,0,.3.2.5.3.1.1.2.3.3.5,0,.2.1.5.1.8v2.6h-.9v-2.6c0-.2,0-.3,0-.4,0-.1,0-.2-.2-.3,0,0-.2-.1-.3-.1-.1,0-.2,0-.4,0-.2,0-.4,0-.5.1-.2,0-.3.2-.4.4v3h-.9v-4.2h.8ZM256.7,108.1h-1.8l-.4,1.3h-1l1.8-5.7h.8l1.8,5.7h-1l-.4-1.3ZM255.1,107.3h1.3l-.6-2.2-.7,2.2ZM258.6,107.3c0-.3,0-.6.1-.9,0-.3.2-.5.3-.7.1-.2.3-.3.5-.4.2-.1.4-.2.7-.2s.5,0,.7.1c.2,0,.3.2.5.4v-.4h.9v4.1c0,.3,0,.5-.1.8,0,.2-.2.4-.4.6-.2.2-.4.3-.6.3-.2,0-.5.1-.8.1s-.2,0-.4,0c-.1,0-.3,0-.4-.1-.1,0-.3-.1-.4-.2-.1,0-.2-.2-.3-.3l.4-.6c.2.2.3.3.5.4.2,0,.4.1.6.1s.3,0,.4,0c.1,0,.2-.1.3-.2,0,0,.2-.2.2-.3,0-.1,0-.3,0-.4v-.3c-.1.1-.3.3-.5.3-.2,0-.4.1-.6.1s-.5,0-.7-.2c-.2-.1-.4-.3-.5-.4-.1-.2-.3-.4-.3-.7,0-.3-.1-.5-.1-.9h0ZM259.6,107.4c0,.2,0,.4,0,.5,0,.2,0,.3.2.4s.2.2.3.3c.1,0,.3.1.4.1s.4,0,.5-.1c.1,0,.2-.2.3-.4v-1.9c0-.1-.2-.3-.3-.4-.1,0-.3-.1-.5-.1s-.3,0-.4.1c-.1,0-.2.2-.3.3,0,.1-.1.3-.2.4,0,.2,0,.3,0,.5h0ZM265.5,109.5c-.3,0-.6,0-.9-.2-.3-.1-.5-.2-.7-.4-.2-.2-.3-.4-.4-.6-.1-.2-.2-.5-.2-.8v-.2c0-.3,0-.6.2-.9.1-.3.3-.5.4-.7.2-.2.4-.3.6-.4.2-.1.5-.2.8-.2s.6,0,.8.2c.2.1.4.2.6.4.2.2.3.4.4.7,0,.3.1.5.1.8v.4h-2.9c0,.2,0,.3.1.5,0,.1.1.3.3.4.1.1.2.2.4.2.1,0,.3,0,.5,0s.5,0,.7-.1c.2,0,.4-.2.5-.4l.5.5c0,.1-.2.2-.3.3-.1,0-.2.2-.4.3-.1,0-.3.1-.5.2-.2,0-.4,0-.6,0ZM265.4,105.9c-.1,0-.3,0-.4,0s-.2.1-.3.2c0,0-.2.2-.2.3,0,.1-.1.3-.1.4h2c0-.2,0-.3,0-.4,0-.1,0-.2-.2-.3,0,0-.2-.2-.3-.2-.1,0-.3,0-.4,0ZM269.2,105.2v.6c.2-.2.4-.4.6-.5.2-.1.5-.2.7-.2s.4,0,.6,0c.2,0,.3.2.5.3.1.1.2.3.3.5,0,.2.1.5.1.8v2.6h-.9v-2.6c0-.2,0-.3,0-.4,0-.1,0-.2-.2-.3,0,0-.2-.1-.3-.1-.1,0-.2,0-.4,0-.2,0-.4,0-.5.1-.2,0-.3.2-.4.4v3h-.9v-4.2h.8ZM275,104.2v1h1.6v.7h-1.6v2c0,.2,0,.3,0,.4,0,.1,0,.2.2.2,0,0,.1.1.2.1,0,0,.2,0,.3,0s.2,0,.2,0c0,0,.2,0,.3,0,0,0,.2,0,.2,0,0,0,.1,0,.2,0v.6s0,0-.1.1c0,0-.2,0-.3,0-.1,0-.2,0-.4,0-.1,0-.2,0-.4,0-.2,0-.4,0-.6,0-.2,0-.3-.2-.5-.3-.1-.1-.2-.3-.3-.5,0-.2-.1-.4-.1-.7v-2.1h-1v-.7h1v-1h.9Z"/>
    </g>
  </g>
</svg>