<?xml version="1.0" encoding="UTF-8"?>
<svg id="Layer_1" xmlns="http://www.w3.org/2000/svg" version="1.1" viewBox="0 0 137 317">
  <!-- Generator: Adobe Illustrator 29.5.1, SVG Export Plug-In . SVG Version: 2.1.0 Build 141)  -->
  <defs>
    <style>
      .st0 {
        stroke: #edd83d;
      }

      .st0, .st1, .st2, .st3 {
        fill: none;
        stroke-linecap: round;
        stroke-linejoin: round;
        stroke-width: 2px;
      }

      .st1 {
        stroke: #303136;
      }

      .st2 {
        stroke: #e96645;
      }

      .st3 {
        stroke: #57caff;
      }
    </style>
  </defs>
  <path class="st2" d="M16.5,85.9v-34.3"/>
  <path class="st2" d="M8.6,57.2l8-8,8,8"/>
  <path class="st2" d="M37.6,50.1v35.2"/>
  <path class="st2" d="M45.6,79.7l-8,8-8-8"/>
  <path class="st1" d="M43.1,105v4M17.1,107h0M41.1,95c1.1,0,2.1.4,2.8,1.2.8.8,1.2,1.8,1.2,2.8v16c0,1.1-.4,2.1-1.2,2.8-.8.8-1.8,1.2-2.8,1.2H13.1c-1.1,0-2.1-.4-2.8-1.2-.8-.8-1.2-1.8-1.2-2.8v-16c0-1.1.4-2.1,1.2-2.8.8-.8,1.8-1.2,2.8-1.2h28Z"/>
  <path class="st1" d="M13.6,24h24c1.6,0,3.1-.6,4.2-1.8,1.1-1.1,1.8-2.7,1.8-4.2v-4c0-1.6-.6-3.1-1.8-4.2-1.1-1.1-2.7-1.8-4.2-1.8H13.6c-1.6,0-3.1.6-4.2,1.8-1.1,1.1-1.8,2.7-1.8,4.2v4c0,1.6.6,3.1,1.8,4.2,1.1,1.1,2.7,1.8,4.2,1.8ZM13.6,24c-1.6,0-3.1.6-4.2,1.8-1.1,1.1-1.8,2.7-1.8,4.2v4c0,1.6.6,3.1,1.8,4.2,1.1,1.1,2.7,1.8,4.2,1.8h12M13.6,24h21M15.6,16h0M15.6,32h0M39.6,45c.4-1.7,1.3-3.2,2.5-4.5,1.2-1.2,2.8-2.1,4.5-2.5-1.7-.4-3.2-1.3-4.5-2.5-1.2-1.2-2.1-2.8-2.5-4.5-.4,1.7-1.3,3.2-2.5,4.5-1.2,1.2-2.8,2.1-4.5,2.5,1.7.4,3.2,1.3,4.5,2.5,1.2,1.2,2.1,2.8,2.5,4.5Z"/>
  <path d="M57.9,98.7l.4-3.4h1l-.8,5.7h-1l-.5-3.4-.5,3.4h-1l-.8-5.7h1l.4,3.4.5-3.4h.8l.5,3.4ZM62,101.1c-.3,0-.6,0-.9-.2-.3-.1-.5-.3-.7-.4-.2-.2-.3-.4-.4-.6-.1-.2-.2-.5-.2-.8v-.2c0-.3,0-.6.2-.9.1-.3.2-.5.4-.7.2-.2.4-.3.6-.4.2-.1.5-.2.8-.2s.6,0,.8.2c.2,0,.4.2.6.4.2.2.3.4.4.7,0,.3.1.5.1.8v.5h-2.9c0,.1,0,.3.1.4,0,.1.1.2.2.3,0,0,.2.2.3.2.1,0,.3,0,.4,0s.2,0,.3,0c.1,0,.2,0,.3,0,0,0,.2,0,.3-.2,0,0,.2-.1.2-.2l.5.6c0,0-.2.2-.3.3-.1,0-.2.2-.4.2-.1,0-.3.1-.5.2-.2,0-.4,0-.6,0ZM61.9,97.6c-.1,0-.2,0-.3,0-.1,0-.2.1-.3.2,0,0-.1.2-.2.3,0,.1,0,.2-.1.4h1.8c0-.2,0-.3,0-.4,0-.1,0-.2-.2-.3,0,0-.2-.1-.3-.2-.1,0-.2,0-.4,0ZM68.6,98.9c0,.3,0,.6-.1.9,0,.3-.2.5-.3.7-.1.2-.3.3-.5.4-.2.1-.4.2-.7.2s-.5,0-.6-.1c-.2,0-.3-.2-.5-.4v.4h-1v-6h1.1v2.2c.1-.1.3-.3.4-.3.2,0,.4-.1.6-.1s.5,0,.7.2c.2.1.4.3.5.4.1.2.2.4.3.7,0,.3.1.6.1.9h0ZM67.5,98.8c0-.2,0-.3,0-.5,0-.2,0-.3-.1-.4,0-.1-.1-.2-.3-.3-.1,0-.2-.1-.4-.1s-.4,0-.5.1c-.1,0-.2.2-.3.3v1.7c0,.1.2.3.3.3.1,0,.3.1.5.1s.3,0,.4,0c.1,0,.2-.2.3-.3,0-.1.1-.2.1-.4,0-.2,0-.3,0-.5h0ZM72.5,99.5c0-.1,0-.2,0-.3,0,0,0-.2-.2-.2,0,0-.2-.1-.3-.2-.1,0-.3-.1-.5-.2-.2,0-.5-.2-.7-.3-.2-.1-.4-.2-.6-.4-.2-.1-.3-.3-.4-.5-.1-.2-.2-.4-.2-.7s0-.5.2-.7c.1-.2.2-.4.4-.5.2-.1.4-.2.6-.3.2,0,.5-.1.8-.1s.6,0,.8.1c.2,0,.5.2.6.4.2.2.3.3.4.6,0,.2.1.4.1.7h-1.1c0-.1,0-.2,0-.4,0-.1,0-.2-.2-.3,0,0-.2-.1-.3-.2-.1,0-.3,0-.4,0s-.3,0-.4,0c-.1,0-.2,0-.3.1,0,0-.1.1-.2.2,0,0,0,.2,0,.3s0,.2,0,.3c0,0,.1.2.2.2.1,0,.2.1.4.2.1,0,.3.1.5.2.3,0,.5.2.7.3.2.1.4.2.6.4.2.1.3.3.4.5,0,.2.1.4.1.6s0,.5-.2.7c0,.2-.2.4-.4.5-.2.1-.4.2-.6.3-.2,0-.5.1-.8.1s-.4,0-.5,0c-.2,0-.3,0-.5-.1-.2,0-.3-.2-.5-.3-.1-.1-.3-.2-.4-.4-.1-.1-.2-.3-.2-.5,0-.2,0-.4,0-.6h1.1c0,.2,0,.3,0,.4,0,.1.1.2.2.3,0,0,.2.1.4.2.1,0,.3,0,.5,0s.3,0,.4,0c.1,0,.2,0,.3-.1,0,0,.1-.1.2-.2,0,0,0-.2,0-.3ZM74.2,98.8c0-.3,0-.6.1-.9,0-.3.2-.5.4-.7.2-.2.4-.3.6-.5.2-.1.5-.2.8-.2s.6,0,.8.2c.2.1.5.3.6.5.2.2.3.4.4.7,0,.3.1.5.1.9h0c0,.4,0,.7-.1.9,0,.3-.2.5-.4.7-.2.2-.4.3-.6.5-.2.1-.5.2-.8.2s-.6,0-.9-.2c-.2-.1-.5-.3-.6-.5-.2-.2-.3-.4-.4-.7,0-.3-.1-.5-.1-.9h0ZM75.3,98.9c0,.2,0,.3,0,.5,0,.2,0,.3.2.4,0,.1.2.2.3.3.1,0,.3.1.4.1s.3,0,.4-.1c.1,0,.2-.2.3-.3,0-.1.1-.3.2-.4,0-.2,0-.3,0-.5h0c0-.3,0-.4,0-.6,0-.2,0-.3-.2-.4,0-.1-.2-.2-.3-.3-.1,0-.3-.1-.4-.1s-.3,0-.4.1c-.1,0-.2.2-.3.3,0,.1-.1.3-.2.4,0,.2,0,.3,0,.5h0ZM81,100.2c.1,0,.2,0,.3,0,0,0,.2,0,.3-.1,0,0,.1-.1.2-.2,0,0,0-.2,0-.3h1c0,.2,0,.4-.1.6,0,.2-.2.3-.4.5-.2.1-.4.2-.6.3-.2,0-.4.1-.7.1s-.6,0-.9-.2c-.2-.1-.5-.3-.6-.5-.2-.2-.3-.4-.4-.7,0-.3-.1-.5-.1-.8h0c0-.4,0-.7.1-.9,0-.3.2-.5.4-.7.2-.2.4-.3.6-.5.2-.1.5-.2.9-.2s.5,0,.7.1c.2,0,.4.2.6.3.2.1.3.3.4.5,0,.2.1.4.1.7h-1c0-.1,0-.2,0-.3,0,0,0-.2-.2-.2,0,0-.2-.1-.3-.2,0,0-.2,0-.3,0-.2,0-.3,0-.4.1-.1,0-.2.2-.3.3,0,.1-.1.3-.1.4,0,.2,0,.3,0,.5h0c0,.3,0,.4,0,.6,0,.2,0,.3.1.4,0,.1.2.2.3.3.1,0,.3.1.4.1ZM85.6,99.3l-.5.5v1.3h-1.1v-6h1.1v3.4l.3-.4,1.2-1.3h1.3l-1.6,1.8,1.8,2.5h-1.3l-1.2-1.7ZM90.8,101.1c-.3,0-.6,0-.9-.2-.3-.1-.5-.3-.7-.4-.2-.2-.3-.4-.4-.6-.1-.2-.2-.5-.2-.8v-.2c0-.3,0-.6.2-.9.1-.3.2-.5.4-.7.2-.2.4-.3.6-.4.2-.1.5-.2.8-.2s.6,0,.8.2c.2,0,.4.2.6.4.2.2.3.4.4.7,0,.3.1.5.1.8v.5h-2.9c0,.1,0,.3.1.4,0,.1.1.2.2.3,0,0,.2.2.3.2.1,0,.3,0,.4,0s.2,0,.3,0c.1,0,.2,0,.3,0,0,0,.2,0,.3-.2s.2-.1.2-.2l.5.6c0,0-.2.2-.3.3-.1,0-.2.2-.4.2-.1,0-.3.1-.5.2-.2,0-.4,0-.6,0ZM90.7,97.6c-.1,0-.2,0-.3,0-.1,0-.2.1-.3.2,0,0-.1.2-.2.3,0,.1,0,.2-.1.4h1.8c0-.2,0-.3,0-.4,0-.1,0-.2-.2-.3,0,0-.2-.1-.3-.2-.1,0-.2,0-.4,0ZM95.6,95.7v1h1.6v.8h-1.6v1.8c0,.2,0,.3,0,.4,0,.1,0,.2.2.2,0,0,.1.1.2.1,0,0,.2,0,.3,0s.2,0,.3,0c0,0,.2,0,.2,0,0,0,.2,0,.2,0,0,0,.1,0,.2,0v.7s0,0-.2.1c-.1,0-.2,0-.3,0-.1,0-.2,0-.4,0-.1,0-.2,0-.4,0-.2,0-.4,0-.6,0-.2,0-.3-.2-.5-.3-.1-.1-.2-.3-.3-.5,0-.2-.1-.4-.1-.7v-1.9h-1v-.8h1v-1h1.1ZM101.1,99.8c0,0,0-.1,0-.2,0,0,0,0-.2-.1,0,0-.2,0-.3-.1-.1,0-.3,0-.5-.1-.2,0-.5-.1-.7-.2-.2,0-.4-.2-.5-.3-.1-.1-.3-.2-.3-.4,0-.1-.1-.3-.1-.5s0-.3.1-.5c0-.2.2-.3.4-.4.2-.1.3-.2.6-.3.2,0,.5-.1.8-.1s.6,0,.8.1c.2,0,.4.2.6.3.2.1.3.3.4.4,0,.2.1.3.1.5h-1.1c0-.2,0-.3-.2-.4-.1-.1-.3-.2-.6-.2s-.4,0-.6.1c-.1,0-.2.2-.2.3s0,.1,0,.2c0,0,0,.1.1.1,0,0,.2,0,.3.1.1,0,.3,0,.4,0,.3,0,.5,0,.7.2.2,0,.4.1.6.3.2.1.3.2.4.4,0,.1.1.3.1.5s0,.4-.1.5c0,.2-.2.3-.4.4-.2.1-.4.2-.6.3-.2,0-.5,0-.8,0s-.6,0-.8-.1c-.2,0-.4-.2-.6-.3-.2-.1-.3-.3-.4-.5,0-.2-.1-.3-.1-.5h1c0,.1,0,.2,0,.3,0,0,.1.1.2.2,0,0,.2,0,.3.1.1,0,.2,0,.3,0,.3,0,.5,0,.6-.1.1,0,.2-.2.2-.3Z"/>
  <path d="M57.8,111h-.7v-1.9h-1.5v1.9h-.7v-4.3h.7v1.8h1.5v-1.8h.7v4.3ZM60.1,111.1c-.2,0-.4,0-.6-.1-.2,0-.4-.2-.5-.3-.1-.1-.2-.3-.3-.5,0-.2-.1-.4-.1-.6h0c0-.4,0-.6.1-.8,0-.2.2-.4.3-.5.1-.1.3-.3.5-.3.2,0,.4-.1.6-.1s.4,0,.6.1c.2,0,.3.2.4.3.1.1.2.3.3.5,0,.2,0,.4,0,.6v.3h-2.2c0,.1,0,.2,0,.3,0,.1.1.2.2.3,0,0,.2.1.3.2.1,0,.2,0,.4,0s.3,0,.5-.1c.2,0,.3-.2.4-.3l.4.4c0,0-.1.2-.2.2,0,0-.2.1-.3.2-.1,0-.2,0-.4.1-.1,0-.3,0-.4,0ZM60,108.3c0,0-.2,0-.3,0,0,0-.2,0-.2.2,0,0-.1.1-.2.2,0,0,0,.2,0,.3h1.5c0-.1,0-.2,0-.3,0,0,0-.2-.1-.2,0,0-.1-.1-.2-.2,0,0-.2,0-.3,0ZM64.3,111s0,0,0-.1c0,0,0-.1,0-.2,0,0-.1,0-.2.1,0,0-.1,0-.2.1,0,0-.2,0-.2,0,0,0-.2,0-.3,0-.2,0-.3,0-.5,0-.1,0-.3-.1-.3-.2,0,0-.2-.2-.2-.3,0-.1,0-.2,0-.4,0-.3.1-.6.4-.8.3-.2.6-.3,1.1-.3h.5v-.2c0-.2,0-.3-.2-.4-.1,0-.3-.1-.5-.1s-.2,0-.2,0c0,0-.1,0-.2,0s0,0-.1.1c0,0,0,.1,0,.2h-.7c0-.1,0-.2,0-.4,0-.1.1-.2.3-.3.1,0,.2-.2.4-.2.2,0,.3,0,.6,0s.4,0,.5,0c.2,0,.3.1.4.2.1,0,.2.2.3.3,0,.1,0,.3,0,.5v1.4c0,.1,0,.3,0,.4,0,.1,0,.2,0,.3h0c0,0-.7,0-.7,0ZM63.4,110.5c0,0,.2,0,.3,0,0,0,.2,0,.2,0,0,0,.1,0,.2-.1,0,0,0,0,.1-.1v-.6h-.4c-.3,0-.5,0-.6.1-.1,0-.2.2-.2.4s0,.1,0,.2c0,0,0,.1,0,.1,0,0,.1,0,.2,0,0,0,.1,0,.2,0ZM67.2,110.1v.2s.1-.2.1-.2l.8-2.3h.7l-1.2,3.2h-.6l-1.3-3.2h.7l.8,2.3ZM70.7,109.7v.4c.1,0,1-2.3,1-2.3h.8l-1.6,3.7c0,0,0,.2-.1.3,0,0-.1.2-.2.3,0,0-.2.1-.3.2-.1,0-.2,0-.4,0s-.1,0-.2,0c0,0-.1,0-.2,0v-.5h.2s0,0,0,0c0,0,0,0,0,0,0,0,0,0,0,0,0,0,.1,0,.2,0,0,0,.1,0,.1-.1,0,0,0-.1,0-.2,0,0,0,0,0-.1l.2-.4-1.3-3h.8l.8,1.9ZM73.7,110v.2s0-.2,0-.2l.5-2.1h.5l.5,2.2v.2s0-.2,0-.2l.3-2.1h.6l-.6,3.2h-.6l-.5-2.1h0s0,0,0,0l-.5,2.1h-.6l-.6-3.2h.6l.3,2.1ZM78.1,111.1c-.2,0-.4,0-.6-.1-.2,0-.4-.2-.5-.3-.1-.1-.2-.3-.3-.5,0-.2-.1-.4-.1-.6h0c0-.4,0-.6.1-.8,0-.2.2-.4.3-.5.1-.1.3-.3.5-.3.2,0,.4-.1.6-.1s.4,0,.6.1c.2,0,.3.2.4.3.1.1.2.3.3.5,0,.2,0,.4,0,.6v.3h-2.2c0,.1,0,.2,0,.3,0,.1.1.2.2.3,0,0,.2.1.3.2.1,0,.2,0,.4,0s.3,0,.5-.1c.2,0,.3-.2.4-.3l.4.4c0,0-.1.2-.2.2,0,0-.2.1-.3.2-.1,0-.2,0-.4.1-.1,0-.3,0-.4,0ZM78.1,108.3c0,0-.2,0-.3,0,0,0-.2,0-.2.2,0,0-.1.1-.2.2,0,0,0,.2,0,.3h1.5c0-.1,0-.2,0-.3,0,0,0-.2-.1-.2,0,0-.1-.1-.2-.2,0,0-.2,0-.3,0ZM80.4,107.8h1.7v2.6h.9v.6h-2.6v-.6h1v-2h-1v-.6ZM81.4,107c0-.1,0-.2.1-.3,0,0,.2-.1.3-.1s.2,0,.3.1c0,0,.1.2.1.3s0,.2-.1.3c0,0-.2.1-.3.1s-.2,0-.3-.1c0,0-.1-.2-.1-.3ZM83.8,109.4c0-.2,0-.5,0-.7,0-.2.1-.4.3-.5.1-.1.2-.3.4-.3.2,0,.3-.1.5-.1s.4,0,.5,0c.1,0,.3.2.4.3v-.3h.7v3.1c0,.2,0,.4-.1.6,0,.2-.2.3-.3.4-.1.1-.3.2-.5.3-.2,0-.4,0-.6,0s-.2,0-.3,0c-.1,0-.2,0-.3,0-.1,0-.2,0-.3-.2,0,0-.2-.1-.3-.2l.3-.4c.1.1.2.2.4.3.1,0,.3,0,.4,0s.2,0,.3,0c0,0,.2,0,.2-.1,0,0,.1-.1.2-.2,0,0,0-.2,0-.3v-.2c0,.1-.2.2-.4.3-.1,0-.3,0-.5,0s-.4,0-.5-.1c-.2,0-.3-.2-.4-.3-.1-.1-.2-.3-.3-.5,0-.2,0-.4,0-.6h0ZM84.5,109.5c0,.1,0,.3,0,.4,0,.1,0,.2.1.3,0,0,.1.2.2.2,0,0,.2,0,.3,0s.3,0,.4,0c.1,0,.2-.2.2-.3v-1.4c0-.1-.1-.2-.2-.3-.1,0-.2,0-.4,0s-.2,0-.3,0c0,0-.2.1-.2.2,0,0-.1.2-.1.3,0,.1,0,.3,0,.4h0ZM88.2,108.3c.1-.2.2-.3.4-.4.2,0,.3-.1.5-.1s.3,0,.5,0c.1,0,.3.1.4.2,0,.1.2.2.2.4,0,.2,0,.4,0,.6v2h-.7v-2c0-.1,0-.2,0-.3,0,0,0-.2-.1-.2,0,0-.1,0-.2-.1,0,0-.2,0-.3,0-.2,0-.3,0-.4,0-.1,0-.2.1-.3.3v2.3h-.7v-4.5h.7v1.8ZM92.5,107.1v.8h1.2v.5h-1.2v1.5c0,.1,0,.2,0,.3,0,0,0,.1.1.2,0,0,.1,0,.2,0,0,0,.1,0,.2,0s.1,0,.2,0c0,0,.1,0,.2,0,0,0,.1,0,.2,0,0,0,0,0,.1,0v.5s0,0-.1,0c0,0-.1,0-.2,0,0,0-.2,0-.3,0,0,0-.2,0-.3,0-.2,0-.3,0-.4,0-.1,0-.2-.1-.3-.2,0,0-.2-.2-.2-.4,0-.1,0-.3,0-.5v-1.6h-.8v-.5h.8v-.8h.7ZM98.9,107.8v.4c.2-.2.3-.3.5-.4.2,0,.3-.1.5-.1s.3,0,.4,0c.1,0,.2.1.3.2,0,0,.2.2.2.4,0,.2,0,.3,0,.6v2h-.7v-2c0-.1,0-.2,0-.3,0,0,0-.2-.1-.2,0,0-.1,0-.2-.1,0,0-.2,0-.3,0-.2,0-.3,0-.4.1-.1,0-.2.2-.3.3v2.3h-.7v-3.2h.6ZM103.4,111.1c-.2,0-.4,0-.6-.1-.2,0-.4-.2-.5-.3-.1-.1-.2-.3-.3-.5,0-.2-.1-.4-.1-.6h0c0-.4,0-.6.1-.8,0-.2.2-.4.3-.5.1-.1.3-.3.5-.3.2,0,.4-.1.6-.1s.4,0,.6.1c.2,0,.3.2.4.3.1.1.2.3.3.5,0,.2,0,.4,0,.6v.3h-2.2c0,.1,0,.2,0,.3,0,.1.1.2.2.3,0,0,.2.1.3.2.1,0,.2,0,.4,0s.3,0,.5-.1c.2,0,.3-.2.4-.3l.4.4c0,0-.1.2-.2.2,0,0-.2.1-.3.2-.1,0-.2,0-.4.1-.1,0-.3,0-.4,0ZM103.3,108.3c0,0-.2,0-.3,0,0,0-.2,0-.2.2,0,0-.1.1-.2.2,0,0,0,.2,0,.3h1.5c0-.1,0-.2,0-.3,0,0,0-.2-.1-.2,0,0-.1-.1-.2-.2,0,0-.2,0-.3,0ZM106.9,107.1v.8h1.2v.5h-1.2v1.5c0,.1,0,.2,0,.3,0,0,0,.1.1.2,0,0,.1,0,.2,0,0,0,.1,0,.2,0s.1,0,.2,0c0,0,.1,0,.2,0,0,0,.1,0,.2,0,0,0,0,0,.1,0v.5s0,0-.1,0c0,0-.1,0-.2,0,0,0-.2,0-.3,0,0,0-.2,0-.3,0-.2,0-.3,0-.4,0-.1,0-.2-.1-.3-.2,0,0-.2-.2-.2-.4,0-.1,0-.3,0-.5v-1.6h-.8v-.5h.8v-.8h.7ZM109.7,110v.2s0-.2,0-.2l.5-2.1h.5l.5,2.2v.2s0-.2,0-.2l.3-2.1h.6l-.6,3.2h-.6l-.5-2.1h0s0,0,0,0l-.5,2.1h-.6l-.6-3.2h.6l.3,2.1ZM112.6,109.4c0-.2,0-.4,0-.6,0-.2.2-.4.3-.5.1-.1.3-.3.5-.3.2,0,.4-.1.6-.1s.4,0,.6.1c.2,0,.3.2.5.3.1.1.2.3.3.5,0,.2,0,.4,0,.6h0c0,.3,0,.5,0,.7,0,.2-.2.4-.3.5-.1.1-.3.3-.5.3-.2,0-.4.1-.6.1s-.4,0-.6-.1c-.2,0-.3-.2-.5-.3-.1-.1-.2-.3-.3-.5,0-.2,0-.4,0-.6h0ZM113.3,109.4c0,.1,0,.3,0,.4,0,.1,0,.2.1.3,0,0,.1.2.2.2,0,0,.2,0,.3,0s.2,0,.3,0c0,0,.2-.1.2-.2,0,0,.1-.2.1-.3,0-.1,0-.3,0-.4h0c0-.2,0-.3,0-.5,0-.1,0-.2-.1-.3,0,0-.1-.2-.2-.2,0,0-.2,0-.3,0s-.2,0-.3,0-.2.1-.2.2c0,0-.1.2-.1.3,0,.1,0,.3,0,.4h0ZM118.5,107.8c0,0,.1,0,.2,0,0,0,.1,0,.2,0,0,0,.1,0,.1,0,0,0,0,0,.1,0v.7c-.3,0-.5,0-.7,0s-.4,0-.6.1c-.1,0-.2.2-.3.4v2h-.7v-3.2h.7v.5c.2-.2.3-.3.5-.4.2,0,.4-.1.6-.1ZM121,109.6l-.4.4v1h-.7v-4.5h.7v2.7l.3-.3.9-1h.8l-1.2,1.3,1.4,1.9h-.9l-1-1.4ZM56.4,118.5c0,0,.2,0,.2,0,0,0,.2,0,.2-.1s.1-.1.1-.2c0,0,0-.1,0-.2h.7c0,.2,0,.3-.1.4,0,.1-.2.2-.3.3-.1,0-.3.2-.4.2-.2,0-.3,0-.5,0s-.5,0-.6-.1-.3-.2-.5-.3c-.1-.1-.2-.3-.3-.5,0-.2,0-.4,0-.6h0c0-.3,0-.5,0-.7,0-.2.2-.4.3-.5.1-.1.3-.3.5-.3.2,0,.4-.1.6-.1s.4,0,.5,0c.2,0,.3.1.4.2.1.1.2.2.3.4,0,.1,0,.3,0,.5h-.7c0,0,0-.2,0-.2,0,0,0-.1-.1-.2,0,0-.1-.1-.2-.1,0,0-.2,0-.3,0-.1,0-.3,0-.4,0,0,0-.2.1-.2.2,0,0-.1.2-.1.3,0,.1,0,.2,0,.4h0c0,.2,0,.4,0,.5,0,.1,0,.2.1.3,0,0,.1.2.2.2,0,0,.2,0,.4,0ZM58.5,117.4c0-.2,0-.4,0-.6,0-.2.2-.4.3-.5.1-.1.3-.3.5-.3.2,0,.4-.1.6-.1s.4,0,.6.1c.2,0,.3.2.5.3.1.1.2.3.3.5,0,.2,0,.4,0,.6h0c0,.3,0,.5,0,.7,0,.2-.2.4-.3.5-.1.1-.3.3-.5.3-.2,0-.4.1-.6.1s-.4,0-.6-.1c-.2,0-.3-.2-.5-.3-.1-.1-.2-.3-.3-.5,0-.2,0-.4,0-.6h0ZM59.2,117.4c0,.1,0,.3,0,.4,0,.1,0,.2.1.3,0,0,.1.2.2.2,0,0,.2,0,.3,0s.2,0,.3,0c0,0,.2-.1.2-.2,0,0,.1-.2.1-.3,0-.1,0-.3,0-.4h0c0-.2,0-.3,0-.5,0-.1,0-.2-.1-.3,0,0-.1-.2-.2-.2,0,0-.2,0-.3,0s-.2,0-.3,0c0,0-.2.1-.2.2,0,0-.1.2-.1.3,0,.1,0,.3,0,.4h0ZM62.9,115.8v.4c.2-.2.3-.3.5-.4.2,0,.3-.1.5-.1s.3,0,.4,0c.1,0,.2.1.3.2,0,0,.2.2.2.4,0,.2,0,.3,0,.6v2h-.7v-2c0-.1,0-.2,0-.3,0,0,0-.2-.1-.2,0,0-.1,0-.2-.1,0,0-.2,0-.3,0-.2,0-.3,0-.4.1-.1,0-.2.2-.3.3v2.3h-.7v-3.2h.6ZM66.5,115.8v.4c.2-.2.3-.3.5-.4.2,0,.3-.1.5-.1s.3,0,.4,0c.1,0,.2.1.3.2,0,0,.2.2.2.4,0,.2,0,.3,0,.6v2h-.7v-2c0-.1,0-.2,0-.3,0,0,0-.2-.1-.2,0,0-.1,0-.2-.1,0,0-.2,0-.3,0-.2,0-.3,0-.4.1-.1,0-.2.2-.3.3v2.3h-.7v-3.2h.6ZM70.9,119.1c-.2,0-.4,0-.6-.1-.2,0-.4-.2-.5-.3-.1-.1-.2-.3-.3-.5,0-.2-.1-.4-.1-.6h0c0-.4,0-.6.1-.8,0-.2.2-.4.3-.5.1-.1.3-.3.5-.3.2,0,.4-.1.6-.1s.4,0,.6.1c.2,0,.3.2.4.3.1.1.2.3.3.5,0,.2,0,.4,0,.6v.3h-2.2c0,.1,0,.2,0,.3,0,.1.1.2.2.3,0,0,.2.1.3.2.1,0,.2,0,.4,0s.3,0,.5-.1c.2,0,.3-.2.4-.3l.4.4c0,0-.1.2-.2.2,0,0-.2.1-.3.2-.1,0-.2,0-.4.1-.1,0-.3,0-.4,0ZM70.9,116.3c0,0-.2,0-.3,0,0,0-.2,0-.2.2,0,0-.1.1-.2.2,0,0,0,.2,0,.3h1.5c0-.1,0-.2,0-.3,0,0,0-.2-.1-.2,0,0-.1-.1-.2-.2,0,0-.2,0-.3,0ZM74.5,118.5c0,0,.2,0,.2,0,0,0,.2,0,.2-.1s.1-.1.1-.2c0,0,0-.1,0-.2h.7c0,.2,0,.3-.1.4,0,.1-.2.2-.3.3-.1,0-.3.2-.4.2-.2,0-.3,0-.5,0s-.5,0-.6-.1c-.2,0-.3-.2-.5-.3-.1-.1-.2-.3-.3-.5,0-.2,0-.4,0-.6h0c0-.3,0-.5,0-.7,0-.2.2-.4.3-.5.1-.1.3-.3.5-.3.2,0,.4-.1.6-.1s.4,0,.5,0c.2,0,.3.1.4.2.1.1.2.2.3.4,0,.1,0,.3,0,.5h-.7c0,0,0-.2,0-.2,0,0,0-.1-.1-.2,0,0-.1-.1-.2-.1,0,0-.2,0-.3,0-.1,0-.3,0-.4,0,0,0-.2.1-.2.2,0,0-.1.2-.1.3,0,.1,0,.2,0,.4h0c0,.2,0,.4,0,.5,0,.1,0,.2.1.3,0,0,.1.2.2.2,0,0,.2,0,.4,0ZM78.1,115.1v.8h1.2v.5h-1.2v1.5c0,.1,0,.2,0,.3,0,0,0,.1.1.2,0,0,.1,0,.2,0,0,0,.1,0,.2,0s.1,0,.2,0c0,0,.1,0,.2,0,0,0,.1,0,.2,0,0,0,0,0,.1,0v.5s0,0-.1,0c0,0-.1,0-.2,0,0,0-.2,0-.3,0,0,0-.2,0-.3,0-.2,0-.3,0-.4,0-.1,0-.2-.1-.3-.2,0,0-.2-.2-.2-.4,0-.1,0-.3,0-.5v-1.6h-.8v-.5h.8v-.8h.7ZM80.4,115.8h1.7v2.6h.9v.6h-2.6v-.6h1v-2h-1v-.6ZM81.4,115c0-.1,0-.2.1-.3,0,0,.2-.1.3-.1s.2,0,.3.1c0,0,.1.2.1.3s0,.2-.1.3c0,0-.2.1-.3.1s-.2,0-.3-.1c0,0-.1-.2-.1-.3ZM83.8,117.4c0-.2,0-.4,0-.6,0-.2.2-.4.3-.5.1-.1.3-.3.5-.3.2,0,.4-.1.6-.1s.4,0,.6.1c.2,0,.3.2.5.3.1.1.2.3.3.5,0,.2,0,.4,0,.6h0c0,.3,0,.5,0,.7,0,.2-.2.4-.3.5-.1.1-.3.3-.5.3-.2,0-.4.1-.6.1s-.4,0-.6-.1c-.2,0-.3-.2-.5-.3-.1-.1-.2-.3-.3-.5,0-.2,0-.4,0-.6h0ZM84.5,117.4c0,.1,0,.3,0,.4,0,.1,0,.2.1.3,0,0,.1.2.2.2,0,0,.2,0,.3,0s.2,0,.3,0c0,0,.2-.1.2-.2,0,0,.1-.2.1-.3,0-.1,0-.3,0-.4h0c0-.2,0-.3,0-.5,0-.1,0-.2-.1-.3,0,0-.1-.2-.2-.2,0,0-.2,0-.3,0s-.2,0-.3,0-.2.1-.2.2c0,0-.1.2-.1.3,0,.1,0,.3,0,.4h0ZM88.1,115.8v.4c.2-.2.3-.3.5-.4.2,0,.3-.1.5-.1s.3,0,.4,0c.1,0,.2.1.3.2,0,0,.2.2.2.4,0,.2,0,.3,0,.6v2h-.7v-2c0-.1,0-.2,0-.3,0,0,0-.2-.1-.2,0,0-.1,0-.2-.1,0,0-.2,0-.3,0-.2,0-.3,0-.4.1-.1,0-.2.2-.3.3v2.3h-.7v-3.2h.6ZM93.2,118.1c0,0,0-.1,0-.1,0,0,0,0-.1-.1,0,0-.1,0-.2-.1,0,0-.2,0-.4,0-.2,0-.4,0-.5-.1-.2,0-.3-.1-.4-.2-.1,0-.2-.2-.2-.3,0-.1,0-.2,0-.4s0-.3,0-.4c0-.1.1-.2.3-.3.1,0,.2-.2.4-.2.2,0,.3,0,.5,0s.4,0,.6,0c.2,0,.3.1.4.2.1,0,.2.2.3.3,0,.1,0,.3,0,.4h-.7c0,0,0-.1,0-.2,0,0,0-.1-.1-.2,0,0-.1,0-.2-.1,0,0-.2,0-.3,0s-.2,0-.3,0c0,0-.1,0-.2,0,0,0,0,0-.1.1,0,0,0,0,0,.2s0,.1,0,.1c0,0,0,0,.1.1,0,0,.1,0,.2,0,0,0,.2,0,.3,0,.2,0,.4,0,.5.1.2,0,.3.1.4.2.1,0,.2.2.3.3,0,.1,0,.2,0,.4s0,.3,0,.4c0,.1-.2.2-.3.3-.1,0-.3.1-.4.2-.2,0-.4,0-.6,0s-.4,0-.6,0c-.2,0-.3-.1-.4-.2-.1,0-.2-.2-.3-.3,0-.1,0-.3,0-.4h.7c0,0,0,.2,0,.2,0,0,.1.1.2.2,0,0,.1,0,.2,0,0,0,.2,0,.3,0,.2,0,.4,0,.5-.1.1,0,.2-.2.2-.3ZM98.2,117.4c0-.2,0-.5,0-.7,0-.2.1-.4.3-.5.1-.1.2-.3.4-.3.2,0,.3-.1.5-.1s.3,0,.5,0c.1,0,.2.1.3.3v-1.6h.7v4.5h-.6v-.3c-.1.1-.3.2-.4.3-.1,0-.3,0-.5,0s-.4,0-.5-.1c-.2,0-.3-.2-.4-.3-.1-.1-.2-.3-.3-.5,0-.2,0-.4,0-.6h0ZM98.9,117.5c0,.1,0,.3,0,.4,0,.1,0,.2.1.3,0,0,.1.2.2.2,0,0,.2,0,.3,0s.3,0,.4-.1c.1,0,.2-.2.2-.3v-1.4c0-.1-.1-.2-.2-.3-.1,0-.2-.1-.4-.1s-.2,0-.3,0c0,0-.2.1-.2.2,0,0-.1.2-.1.3,0,.1,0,.3,0,.4h0ZM103.4,119.1c-.2,0-.4,0-.6-.1-.2,0-.4-.2-.5-.3-.1-.1-.2-.3-.3-.5,0-.2-.1-.4-.1-.6h0c0-.4,0-.6.1-.8,0-.2.2-.4.3-.5.1-.1.3-.3.5-.3.2,0,.4-.1.6-.1s.4,0,.6.1c.2,0,.3.2.4.3.1.1.2.3.3.5,0,.2,0,.4,0,.6v.3h-2.2c0,.1,0,.2,0,.3,0,.1.1.2.2.3,0,0,.2.1.3.2.1,0,.2,0,.4,0s.3,0,.5-.1c.2,0,.3-.2.4-.3l.4.4c0,0-.1.2-.2.2,0,0-.2.1-.3.2-.1,0-.2,0-.4.1-.1,0-.3,0-.4,0ZM103.3,116.3c0,0-.2,0-.3,0,0,0-.2,0-.2.2,0,0-.1.1-.2.2,0,0,0,.2,0,.3h1.5c0-.1,0-.2,0-.3,0,0,0-.2-.1-.2,0,0-.1-.1-.2-.2,0,0-.2,0-.3,0ZM107.6,118.1c0,0,0-.1,0-.1,0,0,0,0-.1-.1,0,0-.1,0-.2-.1,0,0-.2,0-.4,0-.2,0-.4,0-.5-.1-.2,0-.3-.1-.4-.2-.1,0-.2-.2-.2-.3,0-.1,0-.2,0-.4s0-.3,0-.4c0-.1.1-.2.3-.3.1,0,.2-.2.4-.2.2,0,.3,0,.5,0s.4,0,.6,0c.2,0,.3.1.4.2.1,0,.2.2.3.3,0,.1,0,.3,0,.4h-.7c0,0,0-.1,0-.2,0,0,0-.1-.1-.2,0,0-.1,0-.2-.1,0,0-.2,0-.3,0s-.2,0-.3,0c0,0-.1,0-.2,0,0,0,0,0-.1.1,0,0,0,0,0,.2s0,.1,0,.1c0,0,0,0,.1.1,0,0,.1,0,.2,0,0,0,.2,0,.3,0,.2,0,.4,0,.5.1.2,0,.3.1.4.2.1,0,.2.2.3.3,0,.1,0,.2,0,.4s0,.3,0,.4c0,.1-.2.2-.3.3-.1,0-.3.1-.4.2-.2,0-.4,0-.6,0s-.4,0-.6,0c-.2,0-.3-.1-.4-.2-.1,0-.2-.2-.3-.3,0-.1,0-.3,0-.4h.7c0,0,0,.2,0,.2,0,0,.1.1.2.2,0,0,.1,0,.2,0,0,0,.2,0,.3,0,.2,0,.4,0,.5-.1.1,0,.2-.2.2-.3ZM109.3,115.8h1.7v2.6h.9v.6h-2.6v-.6h1v-2h-1v-.6ZM110.2,115c0-.1,0-.2.1-.3,0,0,.2-.1.3-.1s.2,0,.3.1c0,0,.1.2.1.3s0,.2-.1.3c0,0-.2.1-.3.1s-.2,0-.3-.1c0,0-.1-.2-.1-.3ZM112.6,117.4c0-.2,0-.5,0-.7,0-.2.1-.4.3-.5.1-.1.2-.3.4-.3.2,0,.3-.1.5-.1s.4,0,.5,0c.1,0,.3.2.4.3v-.3h.7v3.1c0,.2,0,.4-.1.6,0,.2-.2.3-.3.4-.1.1-.3.2-.5.3-.2,0-.4,0-.6,0s-.2,0-.3,0c-.1,0-.2,0-.3,0-.1,0-.2,0-.3-.2,0,0-.2-.1-.3-.2l.3-.4c.1.1.2.2.4.3.1,0,.3,0,.4,0s.2,0,.3,0c0,0,.2,0,.2-.1,0,0,.1-.1.2-.2,0,0,0-.2,0-.3v-.2c0,.1-.2.2-.4.3-.1,0-.3,0-.5,0s-.4,0-.5-.1c-.2,0-.3-.2-.4-.3-.1-.1-.2-.3-.3-.5,0-.2,0-.4,0-.6h0ZM113.3,117.5c0,.1,0,.3,0,.4,0,.1,0,.2.1.3,0,0,.1.2.2.2,0,0,.2,0,.3,0s.3,0,.4,0c.1,0,.2-.2.2-.3v-1.4c0-.1-.1-.2-.2-.3-.1,0-.2,0-.4,0s-.2,0-.3,0c0,0-.2.1-.2.2,0,0-.1.2-.1.3,0,.1,0,.3,0,.4h0ZM116.9,115.8v.4c.2-.2.3-.3.5-.4.2,0,.3-.1.5-.1s.3,0,.4,0c.1,0,.2.1.3.2,0,0,.2.2.2.4,0,.2,0,.3,0,.6v2h-.7v-2c0-.1,0-.2,0-.3,0,0,0-.2-.1-.2,0,0-.1,0-.2-.1,0,0-.2,0-.3,0-.2,0-.3,0-.4.1-.1,0-.2.2-.3.3v2.3h-.7v-3.2h.6ZM121.4,119.1c-.2,0-.4,0-.6-.1-.2,0-.4-.2-.5-.3-.1-.1-.2-.3-.3-.5,0-.2-.1-.4-.1-.6h0c0-.4,0-.6.1-.8,0-.2.2-.4.3-.5.1-.1.3-.3.5-.3.2,0,.4-.1.6-.1s.4,0,.6.1c.2,0,.3.2.4.3.1.1.2.3.3.5,0,.2,0,.4,0,.6v.3h-2.2c0,.1,0,.2,0,.3,0,.1.1.2.2.3,0,0,.2.1.3.2.1,0,.2,0,.4,0s.3,0,.5-.1c.2,0,.3-.2.4-.3l.4.4c0,0-.1.2-.2.2,0,0-.2.1-.3.2-.1,0-.2,0-.4.1-.1,0-.3,0-.4,0ZM121.3,116.3c0,0-.2,0-.3,0,0,0-.2,0-.2.2,0,0-.1.1-.2.2,0,0,0,.2,0,.3h1.5c0-.1,0-.2,0-.3,0,0,0-.2-.1-.2,0,0-.1-.1-.2-.2,0,0-.2,0-.3,0ZM123.4,117.4c0-.2,0-.5,0-.7,0-.2.1-.4.3-.5.1-.1.2-.3.4-.3.2,0,.3-.1.5-.1s.3,0,.5,0c.1,0,.2.1.3.3v-1.6h.7v4.5h-.6v-.3c-.1.1-.3.2-.4.3-.1,0-.3,0-.5,0s-.4,0-.5-.1c-.2,0-.3-.2-.4-.3-.1-.1-.2-.3-.3-.5,0-.2,0-.4,0-.6h0ZM124.1,117.5c0,.1,0,.3,0,.4s0,.2.1.3c0,0,.1.2.2.2,0,0,.2,0,.3,0s.3,0,.4-.1c.1,0,.2-.2.2-.3v-1.4c0-.1-.1-.2-.2-.3-.1,0-.2-.1-.4-.1s-.2,0-.3,0c0,0-.2.1-.2.2,0,0-.1.2-.1.3,0,.1,0,.3,0,.4h0ZM55.8,127v-2.6h-.9v-.5h.9v-.2c0-.2,0-.4,0-.5,0-.2.2-.3.3-.4.1-.1.3-.2.4-.2.2,0,.3,0,.6,0s.3,0,.4,0c.1,0,.3,0,.4,0v.6c-.1,0-.2,0-.3,0-.1,0-.2,0-.3,0-.3,0-.4,0-.6.2-.1.1-.2.3-.2.5v.2h1.2v.5h-1.2v2.6h-.7ZM58.5,125.4c0-.2,0-.4,0-.6,0-.2.2-.4.3-.5.1-.1.3-.3.5-.3.2,0,.4-.1.6-.1s.4,0,.6.1c.2,0,.3.2.5.3.1.1.2.3.3.5,0,.2,0,.4,0,.6h0c0,.3,0,.5,0,.7,0,.2-.2.4-.3.5-.1.1-.3.3-.5.3-.2,0-.4.1-.6.1s-.4,0-.6-.1c-.2,0-.3-.2-.5-.3-.1-.1-.2-.3-.3-.5,0-.2,0-.4,0-.6h0ZM59.2,125.4c0,.1,0,.3,0,.4,0,.1,0,.2.1.3,0,0,.1.2.2.2,0,0,.2,0,.3,0s.2,0,.3,0c0,0,.2-.1.2-.2,0,0,.1-.2.1-.3,0-.1,0-.3,0-.4h0c0-.2,0-.3,0-.5,0-.1,0-.2-.1-.3,0,0-.1-.2-.2-.2,0,0-.2,0-.3,0s-.2,0-.3,0c0,0-.2.1-.2.2,0,0-.1.2-.1.3,0,.1,0,.3,0,.4h0ZM64.4,123.8c0,0,.1,0,.2,0s.1,0,.2,0c0,0,.1,0,.1,0,0,0,0,0,.1,0v.7c-.3,0-.5,0-.7,0s-.4,0-.6.1c-.1,0-.2.2-.3.4v2h-.7v-3.2h.7v.5c.2-.2.3-.3.5-.4.2,0,.4-.1.6-.1ZM71.6,123.8c0,0,.1,0,.2,0,0,0,.1,0,.2,0,0,0,.1,0,.1,0,0,0,0,0,.1,0v.7c-.3,0-.5,0-.7,0s-.4,0-.6.1c-.1,0-.2.2-.3.4v2h-.7v-3.2h.7v.5c.2-.2.3-.3.5-.4.2,0,.4-.1.6-.1ZM74.5,127.1c-.2,0-.4,0-.6-.1-.2,0-.4-.2-.5-.3-.1-.1-.2-.3-.3-.5,0-.2-.1-.4-.1-.6h0c0-.4,0-.6.1-.8,0-.2.2-.4.3-.5.1-.1.3-.3.5-.3.2,0,.4-.1.6-.1s.4,0,.6.1c.2,0,.3.2.4.3.1.1.2.3.3.5,0,.2,0,.4,0,.6v.3h-2.2c0,.1,0,.2,0,.3,0,.1.1.2.2.3,0,0,.2.1.3.2.1,0,.2,0,.4,0s.3,0,.5-.1c.2,0,.3-.2.4-.3l.4.4c0,0-.1.2-.2.2,0,0-.2.1-.3.2-.1,0-.2,0-.4.1-.1,0-.3,0-.4,0ZM74.5,124.3c0,0-.2,0-.3,0,0,0-.2,0-.2.2,0,0-.1.1-.2.2,0,0,0,.2,0,.3h1.5c0-.1,0-.2,0-.3,0,0,0-.2-.1-.2,0,0-.1-.1-.2-.2,0,0-.2,0-.3,0ZM76.8,122.5h1.7v3.9h1v.6h-2.7v-.6h1v-3.3h-1v-.6ZM80.4,123.8h1.7v2.6h.9v.6h-2.6v-.6h1v-2h-1v-.6ZM81.4,123c0-.1,0-.2.1-.3,0,0,.2-.1.3-.1s.2,0,.3.1c0,0,.1.2.1.3s0,.2-.1.3c0,0-.2.1-.3.1s-.2,0-.3-.1c0,0-.1-.2-.1-.3ZM85.9,127s0,0,0-.1c0,0,0-.1,0-.2,0,0-.1,0-.2.1,0,0-.1,0-.2.1,0,0-.2,0-.2,0,0,0-.2,0-.3,0-.2,0-.3,0-.5,0-.1,0-.3-.1-.3-.2,0,0-.2-.2-.2-.3,0-.1,0-.2,0-.4,0-.3.1-.6.4-.8.3-.2.6-.3,1.1-.3h.5v-.2c0-.2,0-.3-.2-.4-.1,0-.3-.1-.5-.1s-.2,0-.2,0c0,0-.1,0-.2,0s0,0-.1.1c0,0,0,.1,0,.2h-.7c0-.1,0-.2,0-.4,0-.1.1-.2.3-.3.1,0,.2-.2.4-.2.2,0,.3,0,.6,0s.4,0,.5,0c.2,0,.3.1.4.2.1,0,.2.2.3.3,0,.1,0,.3,0,.5v1.4c0,.1,0,.3,0,.4,0,.1,0,.2,0,.3h0c0,0-.7,0-.7,0ZM85.1,126.5c0,0,.2,0,.3,0,0,0,.2,0,.2,0,0,0,.1,0,.2-.1,0,0,0,0,.1-.1v-.6h-.4c-.3,0-.5,0-.6.1-.1,0-.2.2-.2.4s0,.1,0,.2c0,0,0,.1,0,.1,0,0,.1,0,.2,0,0,0,.1,0,.2,0ZM90.3,125.4c0,.2,0,.5,0,.6,0,.2-.1.4-.2.5-.1.1-.2.3-.4.3-.2,0-.3.1-.5.1s-.4,0-.5-.1c-.1,0-.3-.2-.4-.3v.3h-.7v-4.5h.7v1.6c0-.1.2-.2.4-.3.1,0,.3,0,.5,0s.4,0,.5.1c.2,0,.3.2.4.3.1.1.2.3.2.5,0,.2,0,.4,0,.7h0ZM89.6,125.4c0-.1,0-.3,0-.4,0-.1,0-.2-.1-.3,0,0-.1-.2-.2-.2,0,0-.2,0-.3,0s-.3,0-.4.1c-.1,0-.2.2-.2.3v1.3c0,.1.1.2.2.3.1,0,.2.1.4.1s.2,0,.3,0c0,0,.2-.1.2-.2,0,0,0-.2.1-.3,0-.1,0-.3,0-.4h0ZM91.2,122.5h1.7v3.9h1v.6h-2.7v-.6h1v-3.3h-1v-.6ZM96.2,127.1c-.2,0-.4,0-.6-.1-.2,0-.4-.2-.5-.3-.1-.1-.2-.3-.3-.5,0-.2-.1-.4-.1-.6h0c0-.4,0-.6.1-.8,0-.2.2-.4.3-.5.1-.1.3-.3.5-.3.2,0,.4-.1.6-.1s.4,0,.6.1c.2,0,.3.2.4.3.1.1.2.3.3.5,0,.2,0,.4,0,.6v.3h-2.2c0,.1,0,.2,0,.3,0,.1.1.2.2.3,0,0,.2.1.3.2.1,0,.2,0,.4,0s.3,0,.5-.1c.2,0,.3-.2.4-.3l.4.4c0,0-.1.2-.2.2,0,0-.2.1-.3.2-.1,0-.2,0-.4.1-.1,0-.3,0-.4,0ZM96.1,124.3c0,0-.2,0-.3,0,0,0-.2,0-.2.2,0,0-.1.1-.2.2,0,0,0,.2,0,.3h1.5c0-.1,0-.2,0-.3,0,0,0-.2-.1-.2,0,0-.1-.1-.2-.2,0,0-.2,0-.3,0ZM101.8,125.4c0-.2,0-.5,0-.7,0-.2.1-.4.3-.5.1-.1.2-.3.4-.3.2,0,.3-.1.5-.1s.3,0,.5,0c.1,0,.2.1.3.3v-1.6h.7v4.5h-.6v-.3c-.1.1-.3.2-.4.3-.1,0-.3,0-.5,0s-.4,0-.5-.1c-.2,0-.3-.2-.4-.3-.1-.1-.2-.3-.3-.5,0-.2,0-.4,0-.6h0ZM102.5,125.5c0,.1,0,.3,0,.4s0,.2.1.3c0,0,.1.2.2.2,0,0,.2,0,.3,0s.3,0,.4-.1c.1,0,.2-.2.2-.3v-1.4c0-.1-.1-.2-.2-.3-.1,0-.2-.1-.4-.1s-.2,0-.3,0c0,0-.2.1-.2.2,0,0-.1.2-.1.3,0,.1,0,.3,0,.4h0ZM107,127.1c-.2,0-.4,0-.6-.1-.2,0-.4-.2-.5-.3-.1-.1-.2-.3-.3-.5,0-.2-.1-.4-.1-.6h0c0-.4,0-.6.1-.8,0-.2.2-.4.3-.5.1-.1.3-.3.5-.3.2,0,.4-.1.6-.1s.4,0,.6.1c.2,0,.3.2.4.3.1.1.2.3.3.5,0,.2,0,.4,0,.6v.3h-2.2c0,.1,0,.2,0,.3,0,.1.1.2.2.3,0,0,.2.1.3.2.1,0,.2,0,.4,0s.3,0,.5-.1c.1,0,.3-.2.4-.3l.4.4c0,0-.1.2-.2.2,0,0-.2.1-.3.2-.1,0-.2,0-.4.1-.1,0-.3,0-.4,0ZM106.9,124.3c0,0-.2,0-.3,0,0,0-.2,0-.2.2,0,0-.1.1-.2.2,0,0,0,.2,0,.3h1.5c0-.1,0-.2,0-.3,0,0,0-.2-.1-.2,0,0-.1-.1-.2-.2,0,0-.2,0-.3,0ZM109.2,122.5h1.7v3.9h1v.6h-2.7v-.6h1v-3.3h-1v-.6ZM112.9,123.8h1.7v2.6h.9v.6h-2.6v-.6h1v-2h-1v-.6ZM113.8,123c0-.1,0-.2.1-.3,0,0,.2-.1.3-.1s.2,0,.3.1c0,0,.1.2.1.3s0,.2-.1.3c0,0-.2.1-.3.1s-.2,0-.3-.1c0,0-.1-.2-.1-.3ZM117.6,126.1v.2s.1-.2.1-.2l.8-2.3h.7l-1.2,3.2h-.6l-1.3-3.2h.7l.8,2.3ZM121.4,127.1c-.2,0-.4,0-.6-.1-.2,0-.4-.2-.5-.3-.1-.1-.2-.3-.3-.5,0-.2-.1-.4-.1-.6h0c0-.4,0-.6.1-.8,0-.2.2-.4.3-.5.1-.1.3-.3.5-.3.2,0,.4-.1.6-.1s.4,0,.6.1c.2,0,.3.2.4.3.1.1.2.3.3.5,0,.2,0,.4,0,.6v.3h-2.2c0,.1,0,.2,0,.3,0,.1.1.2.2.3,0,0,.2.1.3.2.1,0,.2,0,.4,0s.3,0,.5-.1c.2,0,.3-.2.4-.3l.4.4c0,0-.1.2-.2.2,0,0-.2.1-.3.2-.1,0-.2,0-.4.1-.1,0-.3,0-.4,0ZM121.3,124.3c0,0-.2,0-.3,0,0,0-.2,0-.2.2,0,0-.1.1-.2.2,0,0,0,.2,0,.3h1.5c0-.1,0-.2,0-.3,0,0,0-.2-.1-.2,0,0-.1-.1-.2-.2,0,0-.2,0-.3,0ZM125.7,123.8c0,0,.1,0,.2,0,0,0,.1,0,.2,0,0,0,.1,0,.1,0,0,0,0,0,.1,0v.7c-.3,0-.5,0-.7,0s-.4,0-.6.1c-.1,0-.2.2-.3.4v2h-.7v-3.2h.7v.5c.2-.2.3-.3.5-.4.2,0,.4-.1.6-.1ZM128.4,125.7v.4c.1,0,1-2.3,1-2.3h.8l-1.6,3.7c0,0,0,.2-.1.3,0,0-.1.2-.2.3,0,0-.2.1-.3.2-.1,0-.2,0-.4,0s-.1,0-.2,0c0,0-.1,0-.2,0v-.5h.2s0,0,0,0c0,0,0,0,0,0,0,0,0,0,0,0,0,0,.1,0,.2,0,0,0,.1,0,.1-.1,0,0,0-.1,0-.2,0,0,0,0,0-.1l.2-.4-1.3-3h.8l.8,1.9ZM54.9,133.4c0-.2,0-.4,0-.6,0-.2.2-.4.3-.5.1-.1.3-.3.5-.3.2,0,.4-.1.6-.1s.4,0,.6.1c.2,0,.3.2.5.3.1.1.2.3.3.5,0,.2,0,.4,0,.6h0c0,.3,0,.5,0,.7,0,.2-.2.4-.3.5-.1.1-.3.3-.5.3-.2,0-.4.1-.6.1s-.4,0-.6-.1c-.2,0-.3-.2-.5-.3-.1-.1-.2-.3-.3-.5,0-.2,0-.4,0-.6h0ZM55.6,133.4c0,.1,0,.3,0,.4,0,.1,0,.2.1.3,0,0,.1.2.2.2,0,0,.2,0,.3,0s.2,0,.3,0c0,0,.2-.1.2-.2,0,0,.1-.2.1-.3,0-.1,0-.3,0-.4h0c0-.2,0-.3,0-.5,0-.1,0-.2-.1-.3,0,0-.1-.2-.2-.2,0,0-.2,0-.3,0s-.2,0-.3,0c0,0-.2.1-.2.2,0,0-.1.2-.1.3,0,.1,0,.3,0,.4h0ZM59.5,135v-2.6h-.9v-.5h.9v-.2c0-.2,0-.4,0-.5,0-.2.2-.3.3-.4.1-.1.3-.2.4-.2.2,0,.3,0,.6,0s.3,0,.4,0c.1,0,.3,0,.4,0v.6c-.1,0-.2,0-.3,0-.1,0-.2,0-.3,0-.3,0-.4,0-.6.2-.1.1-.2.3-.2.5v.2h1.2v.5h-1.2v2.6h-.7ZM65.8,133.4c0-.2,0-.5,0-.7,0-.2.1-.4.3-.5.1-.1.2-.3.4-.3.2,0,.3-.1.5-.1s.4,0,.5,0c.1,0,.3.2.4.3v-.3h.7v3.1c0,.2,0,.4-.1.6,0,.2-.2.3-.3.4-.1.1-.3.2-.5.3-.2,0-.4,0-.6,0s-.2,0-.3,0c-.1,0-.2,0-.3,0-.1,0-.2,0-.3-.2,0,0-.2-.1-.3-.2l.3-.4c.1.1.2.2.4.3.1,0,.3,0,.4,0s.2,0,.3,0c0,0,.2,0,.2-.1s.1-.1.2-.2c0,0,0-.2,0-.3v-.2c0,.1-.2.2-.4.3-.1,0-.3,0-.5,0s-.4,0-.5-.1c-.2,0-.3-.2-.4-.3-.1-.1-.2-.3-.3-.5,0-.2,0-.4,0-.6h0ZM66.5,133.5c0,.1,0,.3,0,.4,0,.1,0,.2.1.3,0,0,.1.2.2.2,0,0,.2,0,.3,0s.3,0,.4,0c.1,0,.2-.2.2-.3v-1.4c0-.1-.1-.2-.2-.3-.1,0-.2,0-.4,0s-.2,0-.3,0c0,0-.2.1-.2.2,0,0-.1.2-.1.3,0,.1,0,.3,0,.4h0ZM70.9,135.1c-.2,0-.4,0-.6-.1-.2,0-.4-.2-.5-.3-.1-.1-.2-.3-.3-.5,0-.2-.1-.4-.1-.6h0c0-.4,0-.6.1-.8,0-.2.2-.4.3-.5.1-.1.3-.3.5-.3.2,0,.4-.1.6-.1s.4,0,.6.1c.2,0,.3.2.4.3.1.1.2.3.3.5,0,.2,0,.4,0,.6v.3h-2.2c0,.1,0,.2,0,.3,0,.1.1.2.2.3,0,0,.2.1.3.2.1,0,.2,0,.4,0s.3,0,.5-.1c.2,0,.3-.2.4-.3l.4.4c0,0-.1.1-.2.2,0,0-.2.1-.3.2-.1,0-.2,0-.4.1-.1,0-.3,0-.4,0ZM70.9,132.3c0,0-.2,0-.3,0,0,0-.2,0-.2.2,0,0-.1.1-.2.2,0,0,0,.2,0,.3h1.5c0-.1,0-.2,0-.3,0,0,0-.2-.1-.2,0,0-.1-.1-.2-.2,0,0-.2,0-.3,0ZM73.7,131.8v.4c.2-.2.3-.3.5-.4.2,0,.3-.1.5-.1s.3,0,.4,0c.1,0,.2.1.3.2,0,0,.2.2.2.4,0,.2,0,.3,0,.6v2h-.7v-2c0-.1,0-.2,0-.3,0,0,0-.2-.1-.2,0,0-.1,0-.2-.1,0,0-.2,0-.3,0-.2,0-.3,0-.4.1-.1,0-.2.2-.3.3v2.3h-.7v-3.2h.6ZM78.1,135.1c-.2,0-.4,0-.6-.1-.2,0-.4-.2-.5-.3-.1-.1-.2-.3-.3-.5,0-.2-.1-.4-.1-.6h0c0-.4,0-.6.1-.8,0-.2.2-.4.3-.5.1-.1.3-.3.5-.3.2,0,.4-.1.6-.1s.4,0,.6.1c.2,0,.3.2.4.3.1.1.2.3.3.5,0,.2,0,.4,0,.6v.3h-2.2c0,.1,0,.2,0,.3,0,.1.1.2.2.3,0,0,.2.1.3.2.1,0,.2,0,.4,0s.3,0,.5-.1c.2,0,.3-.2.4-.3l.4.4c0,0-.1.1-.2.2,0,0-.2.1-.3.2-.1,0-.2,0-.4.1-.1,0-.3,0-.4,0ZM78.1,132.3c0,0-.2,0-.3,0,0,0-.2,0-.2.2,0,0-.1.1-.2.2,0,0,0,.2,0,.3h1.5c0-.1,0-.2,0-.3,0,0,0-.2-.1-.2,0,0-.1-.1-.2-.2,0,0-.2,0-.3,0ZM82.5,131.8c0,0,.1,0,.2,0,0,0,.1,0,.2,0,0,0,.1,0,.1,0,0,0,0,0,.1,0v.7c-.3,0-.5,0-.7,0s-.4,0-.6.1c-.1,0-.2.2-.3.4v2h-.7v-3.2h.7v.5c.2-.2.3-.3.5-.4.2-.1.4-.2.6-.2ZM85.9,135s0,0,0-.1c0,0,0-.1,0-.2,0,0-.1,0-.2.1,0,0-.1,0-.2.1,0,0-.2,0-.2,0,0,0-.2,0-.3,0-.2,0-.3,0-.5,0-.1,0-.3-.1-.3-.2,0,0-.2-.2-.2-.3,0-.1,0-.2,0-.4,0-.3.1-.6.4-.8.3-.2.6-.3,1.1-.3h.5v-.2c0-.2,0-.3-.2-.4-.1-.1-.3-.1-.5-.1s-.2,0-.2,0c0,0-.1,0-.2,0s0,0-.1.1c0,0,0,.1,0,.2h-.7c0-.1,0-.2,0-.4,0-.1.1-.2.3-.3.1,0,.2-.2.4-.2.2,0,.3,0,.6,0s.4,0,.5,0c.2,0,.3.1.4.2.1,0,.2.2.3.3,0,.1,0,.3,0,.5v1.4c0,.1,0,.3,0,.4,0,.1,0,.2,0,.3h0c0,0-.7,0-.7,0ZM85.1,134.5c0,0,.2,0,.3,0,0,0,.2,0,.2,0,0,0,.1,0,.2-.1,0,0,0,0,.1-.1v-.6h-.4c-.3,0-.5,0-.6.1-.1,0-.2.2-.2.4s0,.1,0,.2c0,0,0,.1,0,.1,0,0,.1,0,.2,0,0,0,.1,0,.2,0ZM87.6,130.5h1.7v3.9h1v.6h-2.7v-.6h1v-3.3h-1v-.6ZM94.6,133.4c0-.2,0-.5,0-.7,0-.2.1-.4.3-.5.1-.1.2-.3.4-.3.2,0,.3-.1.5-.1s.3,0,.5,0c.1,0,.2.1.3.3v-1.6h.7v4.5h-.6v-.3c-.1.1-.3.2-.4.3-.1,0-.3,0-.5,0s-.4,0-.5-.1c-.2,0-.3-.2-.4-.3-.1-.1-.2-.3-.3-.5,0-.2,0-.4,0-.6h0ZM95.3,133.5c0,.1,0,.3,0,.4,0,.1,0,.2.1.3,0,0,.1.2.2.2,0,0,.2,0,.3,0s.3,0,.4-.1c.1,0,.2-.2.2-.3v-1.4c0-.1-.1-.2-.2-.3-.1,0-.2-.1-.4-.1s-.2,0-.3,0c0,0-.2.1-.2.2,0,0-.1.2-.1.3,0,.1,0,.3,0,.4h0ZM100.3,135s0,0,0-.1c0,0,0-.1,0-.2,0,0-.1,0-.2.1,0,0-.1,0-.2.1,0,0-.2,0-.2,0,0,0-.2,0-.3,0-.2,0-.3,0-.5,0-.1,0-.3-.1-.3-.2,0,0-.2-.2-.2-.3,0-.1,0-.2,0-.4,0-.3.1-.6.4-.8.3-.2.6-.3,1.1-.3h.5v-.2c0-.2,0-.3-.2-.4-.1-.1-.3-.1-.5-.1s-.2,0-.2,0c0,0-.1,0-.2,0,0,0,0,0-.1.1,0,0,0,.1,0,.2h-.7c0-.1,0-.2,0-.4,0-.1.1-.2.3-.3.1,0,.2-.2.4-.2.2,0,.3,0,.6,0s.4,0,.5,0c.2,0,.3.1.4.2.1,0,.2.2.3.3,0,.1.1.3.1.5v1.4c0,.1,0,.3,0,.4,0,.1,0,.2,0,.3h0c0,0-.7,0-.7,0ZM99.5,134.5c0,0,.2,0,.3,0,0,0,.2,0,.2,0,0,0,.1,0,.2-.1,0,0,0,0,.1-.1v-.6h-.4c-.3,0-.5,0-.6.1-.1,0-.2.2-.2.4s0,.1,0,.2c0,0,0,.1,0,.1,0,0,.1,0,.2,0,0,0,.1,0,.2,0ZM103.3,131.1v.8h1.2v.5h-1.2v1.5c0,.1,0,.2,0,.3,0,0,0,.1.1.2,0,0,.1,0,.2.1,0,0,.1,0,.2,0s.1,0,.2,0c0,0,.1,0,.2,0,0,0,.1,0,.2,0,0,0,0,0,.1,0v.5s0,0-.1,0c0,0-.1,0-.2,0,0,0-.2,0-.3,0,0,0-.2,0-.3,0-.2,0-.3,0-.4,0-.1,0-.2-.1-.3-.2,0,0-.2-.2-.2-.4,0-.1,0-.3,0-.5v-1.6h-.8v-.5h.8v-.8h.7ZM107.5,135s0,0,0-.1c0,0,0-.1,0-.2,0,0-.1,0-.2.1,0,0-.1,0-.2.1,0,0-.2,0-.2,0,0,0-.2,0-.3,0-.2,0-.3,0-.5,0-.1,0-.3-.1-.3-.2,0,0-.2-.2-.2-.3,0-.1,0-.2,0-.4,0-.3.1-.6.4-.8.3-.2.6-.3,1.1-.3h.5v-.2c0-.2,0-.3-.2-.4-.1-.1-.3-.1-.5-.1s-.2,0-.2,0c0,0-.1,0-.2,0s0,0-.1.1c0,0,0,.1,0,.2h-.7c0-.1,0-.2,0-.4,0-.1.1-.2.3-.3.1,0,.2-.2.4-.2.2,0,.3,0,.6,0s.4,0,.5,0c.2,0,.3.1.4.2.1,0,.2.2.3.3,0,.1,0,.3,0,.5v1.4c0,.1,0,.3,0,.4,0,.1,0,.2,0,.3h0c0,0-.7,0-.7,0ZM106.7,134.5c0,0,.2,0,.3,0,0,0,.2,0,.2,0,0,0,.1,0,.2-.1,0,0,0,0,.1-.1v-.6h-.4c-.3,0-.5,0-.6.1-.1,0-.2.2-.2.4s0,.1,0,.2c0,0,0,.1,0,.1,0,0,0,0,.2,0,0,0,.1,0,.2,0Z"/>
  <path d="M58.1,26.9c0-.1,0-.2,0-.3,0,0,0-.2-.2-.2,0,0-.2-.1-.3-.2-.1,0-.3-.1-.5-.2-.2,0-.5-.2-.7-.3-.2-.1-.4-.2-.6-.4-.2-.1-.3-.3-.4-.5-.1-.2-.2-.4-.2-.7s0-.5.2-.7c.1-.2.2-.4.4-.5.2-.1.4-.2.6-.3.2,0,.5-.1.8-.1s.6,0,.8.1c.2,0,.5.2.6.4.2.2.3.3.4.6,0,.2.1.4.1.7h-1.1c0-.1,0-.2,0-.4,0-.1,0-.2-.2-.3,0,0-.2-.1-.3-.2-.1,0-.3,0-.4,0s-.3,0-.4,0c-.1,0-.2,0-.3.1,0,0-.1.1-.2.2,0,0,0,.2,0,.3s0,.2,0,.3c0,0,.1.2.2.2.1,0,.2.1.4.2.1,0,.3.1.5.2.3,0,.5.2.7.3.2.1.4.2.6.4.2.1.3.3.4.5,0,.2.1.4.1.6s0,.5-.2.7c0,.2-.2.4-.4.5-.2.1-.4.2-.6.3-.2,0-.5.1-.8.1s-.4,0-.5,0c-.2,0-.3,0-.5-.1-.2,0-.3-.2-.5-.3-.1-.1-.3-.2-.4-.4-.1-.1-.2-.3-.2-.5,0-.2,0-.4,0-.6h1.1c0,.2,0,.3,0,.4,0,.1.1.2.2.3,0,0,.2.1.4.2.1,0,.3,0,.5,0s.3,0,.4,0c.1,0,.2,0,.3-.1,0,0,.1-.1.2-.2,0,0,0-.2,0-.3ZM62,28.5c-.3,0-.6,0-.9-.2-.3-.1-.5-.3-.7-.4-.2-.2-.3-.4-.4-.6-.1-.2-.2-.5-.2-.8v-.2c0-.3,0-.6.2-.9.1-.3.2-.5.4-.7s.4-.3.6-.4c.2-.1.5-.2.8-.2s.6,0,.8.2c.2,0,.4.2.6.4.2.2.3.4.4.7,0,.3.1.5.1.8v.5h-2.9c0,.1,0,.3.1.4,0,.1.1.2.2.3,0,0,.2.2.3.2.1,0,.3,0,.4,0s.2,0,.3,0c.1,0,.2,0,.3,0,0,0,.2,0,.3-.2,0,0,.2-.1.2-.2l.5.6c0,0-.2.2-.3.3-.1,0-.2.2-.4.2-.1,0-.3.1-.5.2-.2,0-.4,0-.6,0ZM61.9,25c-.1,0-.2,0-.3,0-.1,0-.2.1-.3.2,0,0-.1.2-.2.3,0,.1,0,.2-.1.4h1.8c0-.2,0-.3,0-.4,0-.1,0-.2-.2-.3,0,0-.2-.1-.3-.2-.1,0-.2,0-.4,0ZM67.8,24.1c.2,0,.3,0,.5,0,.1,0,.3,0,.3,0l-.2,1.1c-.1,0-.3,0-.4,0-.1,0-.3,0-.4,0-.3,0-.5,0-.7.2-.2.1-.3.3-.4.5v2.5h-1.1v-4.2h1v.7c.2-.2.4-.4.7-.6.2-.1.5-.2.8-.2ZM71.4,27.1v.3c0,0,.1-.3.1-.3l.9-3h1.1l-1.6,4.2h-1l-1.6-4.2h1.1l.9,3ZM76.4,28.5c-.3,0-.6,0-.9-.2-.3-.1-.5-.3-.7-.4-.2-.2-.3-.4-.4-.6-.1-.2-.2-.5-.2-.8v-.2c0-.3,0-.6.2-.9.1-.3.2-.5.4-.7.2-.2.4-.3.6-.4.2-.1.5-.2.8-.2s.6,0,.8.2c.2,0,.4.2.6.4.2.2.3.4.4.7,0,.3.1.5.1.8v.5h-2.9c0,.1,0,.3.1.4,0,.1.1.2.2.3,0,0,.2.2.3.2s.3,0,.4,0,.2,0,.3,0c.1,0,.2,0,.3,0,0,0,.2,0,.3-.2,0,0,.2-.1.2-.2l.5.6c0,0-.2.2-.3.3-.1,0-.2.2-.4.2-.1,0-.3.1-.5.2s-.4,0-.6,0ZM76.3,25c-.1,0-.2,0-.3,0-.1,0-.2.1-.3.2,0,0-.1.2-.2.3,0,.1,0,.2-.1.4h1.8c0-.2,0-.3,0-.4,0-.1,0-.2-.2-.3,0,0-.2-.1-.3-.2-.1,0-.2,0-.4,0ZM82.2,24.1c.2,0,.3,0,.5,0,.1,0,.3,0,.3,0l-.2,1.1c-.1,0-.3,0-.4,0-.1,0-.3,0-.4,0-.3,0-.5,0-.7.2-.2.1-.3.3-.4.5v2.5h-1.1v-4.2h1v.7c.2-.2.4-.4.7-.6.2-.1.5-.2.8-.2Z"/>
  <path d="M58.1,181c0-.1,0-.2,0-.3,0,0,0-.2-.2-.2,0,0-.2-.1-.3-.2-.1,0-.3-.1-.5-.2-.2,0-.5-.2-.7-.3-.2-.1-.4-.2-.6-.4-.2-.1-.3-.3-.4-.5-.1-.2-.2-.4-.2-.7s0-.5.2-.7c.1-.2.2-.4.4-.5s.4-.2.6-.3c.2,0,.5-.1.8-.1s.6,0,.8.1c.2,0,.5.2.6.4.2.2.3.3.4.5,0,.2.1.4.1.7h-1.1c0-.1,0-.2,0-.4,0-.1,0-.2-.2-.3,0,0-.2-.1-.3-.2-.1,0-.3,0-.4,0s-.3,0-.4,0c-.1,0-.2,0-.3.1,0,0-.1.1-.2.2,0,0,0,.2,0,.3s0,.2,0,.3c0,0,.1.2.2.2.1,0,.2.1.4.2.1,0,.3.1.5.2.3,0,.5.2.7.3.2.1.4.2.6.4.2.1.3.3.4.5,0,.2.1.4.1.6s0,.5-.2.7c0,.2-.2.4-.4.5-.2.1-.4.2-.6.3-.2,0-.5.1-.8.1s-.4,0-.5,0c-.2,0-.3,0-.5-.1-.2,0-.3-.2-.5-.3-.1-.1-.3-.2-.4-.4-.1-.1-.2-.3-.2-.5,0-.2,0-.4,0-.6h1.1c0,.2,0,.3,0,.4,0,.1.1.2.2.3,0,0,.2.1.4.2.1,0,.3,0,.5,0s.3,0,.4,0c.1,0,.2,0,.3-.1,0,0,.1-.1.2-.2,0,0,0-.2,0-.3ZM62,182.6c-.3,0-.6,0-.9-.2-.3-.1-.5-.3-.7-.4-.2-.2-.3-.4-.4-.6-.1-.2-.2-.5-.2-.8v-.2c0-.3,0-.6.2-.9.1-.3.2-.5.4-.7.2-.2.4-.3.6-.4.2-.1.5-.2.8-.2s.6,0,.8.2c.2,0,.4.2.6.4.2.2.3.4.4.7,0,.3.1.5.1.8v.5h-2.9c0,.1,0,.3.1.4,0,.1.1.2.2.3,0,0,.2.2.3.2.1,0,.3,0,.4,0s.2,0,.3,0c.1,0,.2,0,.3,0,0,0,.2,0,.3-.2,0,0,.2-.1.2-.2l.5.6c0,0-.2.2-.3.3-.1,0-.2.2-.4.2-.1,0-.3.1-.5.2-.2,0-.4,0-.6,0ZM61.9,179.1c-.1,0-.2,0-.3,0-.1,0-.2.1-.3.2,0,0-.1.2-.2.3,0,.1,0,.2-.1.4h1.8c0-.2,0-.3,0-.4,0-.1,0-.2-.2-.3,0,0-.2-.1-.3-.2-.1,0-.2,0-.4,0ZM67.8,178.2c.2,0,.3,0,.5,0,.1,0,.3,0,.3,0l-.2,1.1c-.1,0-.3,0-.4,0-.1,0-.3,0-.4,0-.3,0-.5,0-.7.2-.2.1-.3.3-.4.5v2.5h-1.1v-4.2h1v.7c.2-.2.4-.4.7-.6.2-.1.5-.2.8-.2ZM71.4,181.2v.3c0,0,.1-.3.1-.3l.9-3h1.1l-1.6,4.2h-1l-1.6-4.2h1.1l.9,3ZM76.4,182.6c-.3,0-.6,0-.9-.2-.3-.1-.5-.3-.7-.4-.2-.2-.3-.4-.4-.6-.1-.2-.2-.5-.2-.8v-.2c0-.3,0-.6.2-.9.1-.3.2-.5.4-.7.2-.2.4-.3.6-.4.2-.1.5-.2.8-.2s.6,0,.8.2c.2,0,.4.2.6.4.2.2.3.4.4.7,0,.3.1.5.1.8v.5h-2.9c0,.1,0,.3.1.4,0,.1.1.2.2.3,0,0,.2.2.3.2.1,0,.3,0,.4,0s.2,0,.3,0c.1,0,.2,0,.3,0,0,0,.2,0,.3-.2,0,0,.2-.1.2-.2l.5.6c0,0-.2.2-.3.3-.1,0-.2.2-.4.2-.1,0-.3.1-.5.2-.2,0-.4,0-.6,0ZM76.3,179.1c-.1,0-.2,0-.3,0-.1,0-.2.1-.3.2,0,0-.1.2-.2.3,0,.1,0,.2-.1.4h1.8c0-.2,0-.3,0-.4,0-.1,0-.2-.2-.3,0,0-.2-.1-.3-.2-.1,0-.2,0-.4,0ZM82.2,178.2c.2,0,.3,0,.5,0,.1,0,.3,0,.3,0l-.2,1.1c-.1,0-.3,0-.4,0-.1,0-.3,0-.4,0-.3,0-.5,0-.7.2-.2.1-.3.3-.4.5v2.5h-1.1v-4.2h1v.7c.2-.2.4-.4.7-.6.2-.1.5-.2.8-.2Z"/>
  <path class="st1" d="M13.6,177h24c1.6,0,3.1-.6,4.2-1.8,1.1-1.1,1.8-2.7,1.8-4.2v-4c0-1.6-.6-3.1-1.8-4.2-1.1-1.1-2.7-1.8-4.2-1.8H13.6c-1.6,0-3.1.6-4.2,1.8-1.1,1.1-1.8,2.7-1.8,4.2v4c0,1.6.6,3.1,1.8,4.2,1.1,1.1,2.7,1.8,4.2,1.8ZM13.6,177c-1.6,0-3.1.6-4.2,1.8-1.1,1.1-1.8,2.7-1.8,4.2v4c0,1.6.6,3.1,1.8,4.2,1.1,1.1,2.7,1.8,4.2,1.8h12M13.6,177h21M15.6,169h0M15.6,185h0M39.6,198c.4-1.7,1.3-3.2,2.5-4.5,1.2-1.2,2.8-2.1,4.5-2.5-1.7-.4-3.2-1.3-4.5-2.5-1.2-1.2-2.1-2.8-2.5-4.5-.4,1.7-1.3,3.2-2.5,4.5-1.2,1.2-2.8,2.1-4.5,2.5,1.7.4,3.2,1.3,4.5,2.5,1.2,1.2,2.1,2.8,2.5,4.5Z"/>
  <path class="st1" d="M43.1,258v4M17.1,260h0M41.1,248c1.1,0,2.1.4,2.8,1.2.8.8,1.2,1.8,1.2,2.8v16c0,1.1-.4,2.1-1.2,2.8-.8.8-1.8,1.2-2.8,1.2H13.1c-1.1,0-2.1-.4-2.8-1.2-.8-.8-1.2-1.8-1.2-2.8v-16c0-1.1.4-2.1,1.2-2.8.8-.8,1.8-1.2,2.8-1.2h28Z"/>
  <path class="st3" d="M9.3,241.6c-3.1-1.7-1.2-3.7,0-5,1.2-1.2,2.1-3.5,0-5-2.1-1.4-1.2-3.3,0-5,1.2-1.7,2.1-2.9,0-5-2.1-2.1-1.2-3.7,0-5,1.2-1.2,2.1-3.5,0-5-2.1-1.4-1.2-3.3,0-5,1.2-1.7,2.2-3,0-5"/>
  <path class="st3" d="M42.8,241.6c-3.1-1.7-1.2-3.7,0-5,1.2-1.2,2.1-3.5,0-5-2.1-1.4-1.2-3.3,0-5s2.1-2.9,0-5c-2.1-2.1-1.2-3.7,0-5,1.2-1.2,2.1-3.5,0-5-2.1-1.4-1.2-3.3,0-5,1.2-1.7,2.2-3,0-5"/>
  <path class="st0" d="M19.5,237v-26"/>
  <path class="st0" d="M11.6,216.6l8-8,8,8"/>
  <path class="st0" d="M33.7,209v26"/>
  <path class="st0" d="M41.6,229.4l-8,8-8-8"/>
  <path d="M57.9,256.7l.4-3.4h1l-.8,5.7h-1l-.5-3.4-.5,3.4h-1l-.8-5.7h1l.4,3.4.5-3.4h.8l.5,3.4ZM62,259.1c-.3,0-.6,0-.9-.2-.3-.1-.5-.3-.7-.4-.2-.2-.3-.4-.4-.6-.1-.2-.2-.5-.2-.8v-.2c0-.3,0-.6.2-.9.1-.3.2-.5.4-.7.2-.2.4-.3.6-.4.2-.1.5-.2.8-.2s.6,0,.8.2c.2,0,.4.2.6.4.2.2.3.4.4.7,0,.3.1.5.1.8v.5h-2.9c0,.1,0,.3.1.4,0,.1.1.2.2.3,0,0,.2.2.3.2.1,0,.3,0,.4,0s.2,0,.3,0c.1,0,.2,0,.3,0,0,0,.2,0,.3-.2,0,0,.2-.1.2-.2l.5.6c0,0-.2.2-.3.3-.1,0-.2.2-.4.2-.1,0-.3.1-.5.2-.2,0-.4,0-.6,0ZM61.9,255.6c-.1,0-.2,0-.3,0-.1,0-.2.1-.3.2,0,0-.1.2-.2.3,0,.1,0,.2-.1.4h1.8c0-.2,0-.3,0-.4,0-.1,0-.2-.2-.3,0,0-.2-.1-.3-.2-.1,0-.2,0-.4,0ZM68.6,256.9c0,.3,0,.6-.1.9,0,.3-.2.5-.3.7-.1.2-.3.3-.5.4-.2.1-.4.2-.7.2s-.5,0-.6-.1c-.2,0-.3-.2-.5-.4v.4h-1v-6h1.1v2.2c.1-.1.3-.3.4-.3.2,0,.4-.1.6-.1s.5,0,.7.2c.2.1.4.3.5.4.1.2.2.4.3.7,0,.3.1.6.1.9h0ZM67.5,256.8c0-.2,0-.3,0-.5,0-.2,0-.3-.1-.4,0-.1-.1-.2-.3-.3-.1,0-.2-.1-.4-.1s-.4,0-.5.1c-.1,0-.2.2-.3.3v1.7c0,.1.2.3.3.3.1,0,.3.1.5.1s.3,0,.4,0c.1,0,.2-.2.3-.3,0-.1.1-.2.1-.4,0-.2,0-.3,0-.5h0ZM71.5,256.9h-.8v2.1h-1.1v-5.7h1.9c.3,0,.6,0,.9.1.3,0,.5.2.7.3.2.1.3.3.4.5,0,.2.1.5.1.7s0,.4,0,.6c0,.2-.1.3-.2.4,0,.1-.2.2-.3.3-.1,0-.3.2-.4.2l1.2,2.3h0c0,0-1.2,0-1.2,0l-1.1-2.1ZM70.6,256h.8c.3,0,.5,0,.7-.2.2-.2.3-.4.3-.6s0-.5-.2-.7c-.2-.2-.4-.2-.7-.2h-.8v1.8ZM78.5,254.2h-1.8v4.8h-1.1v-4.8h-1.7v-.9h4.6v.9ZM83.1,257.2c0,.3,0,.5-.2.8-.1.2-.2.4-.4.6-.2.2-.4.3-.6.4-.2,0-.5.1-.8.1s-.6,0-.9-.2c-.3-.1-.5-.3-.7-.5-.2-.2-.3-.5-.4-.8,0-.3-.1-.7-.1-1v-.8c0-.4,0-.7.1-1,0-.3.2-.6.4-.8.2-.2.4-.4.7-.5.3-.1.6-.2.9-.2s.6,0,.8.1c.2,0,.5.2.6.4.2.2.3.4.4.6,0,.2.2.5.2.8h-1.1c0-.2,0-.3,0-.4,0-.1,0-.2-.2-.3,0,0-.2-.1-.3-.2-.1,0-.3,0-.4,0s-.3,0-.4.1c-.1,0-.2.2-.3.3,0,.1-.1.3-.2.5,0,.2,0,.4,0,.7v.8c0,.6,0,1,.2,1.2.2.3.4.4.8.4s.5,0,.7-.2c.2-.2.3-.4.3-.7h1.1Z"/>
  <path d="M55.8,268.4h2v.6h-2.7v-4.3h.7v3.7ZM58.8,265.8h1.7v2.6h.9v.6h-2.6v-.6h1v-2h-1v-.6ZM59.7,265c0-.1,0-.2.1-.3,0,0,.2-.1.3-.1s.2,0,.3.1c0,0,.1.2.1.3s0,.2-.1.3c0,0-.2.1-.3.1s-.2,0-.3-.1c0,0-.1-.2-.1-.3ZM62.2,267.4c0-.2,0-.5,0-.7,0-.2.1-.4.3-.5.1-.1.2-.3.4-.3.2,0,.3-.1.5-.1s.4,0,.5,0c.1,0,.3.2.4.3v-.3h.7v3.1c0,.2,0,.4-.1.6,0,.2-.2.3-.3.4-.1.1-.3.2-.5.3-.2,0-.4,0-.6,0s-.2,0-.3,0c-.1,0-.2,0-.3,0-.1,0-.2,0-.3-.2,0,0-.2-.1-.3-.2l.3-.4c.1.1.2.2.4.3.1,0,.3,0,.4,0s.2,0,.3,0c0,0,.2,0,.2-.1,0,0,.1-.1.2-.2,0,0,0-.2,0-.3v-.2c0,.1-.2.2-.4.3-.1,0-.3,0-.5,0s-.4,0-.5-.1c-.2,0-.3-.2-.4-.3-.1-.1-.2-.3-.3-.5,0-.2,0-.4,0-.6h0ZM62.9,267.5c0,.1,0,.3,0,.4s0,.2.1.3c0,0,.1.2.2.2,0,0,.2,0,.3,0s.3,0,.4,0c.1,0,.2-.2.2-.3v-1.4c0-.1-.1-.2-.2-.3-.1,0-.2,0-.4,0s-.2,0-.3,0c0,0-.2.1-.2.2,0,0-.1.2-.1.3,0,.1,0,.3,0,.4h0ZM66.6,266.3c.1-.2.2-.3.4-.4.2,0,.3-.1.5-.1s.3,0,.5,0c.1,0,.3.1.4.2,0,.1.2.2.2.4,0,.2,0,.4,0,.6v2h-.7v-2c0-.1,0-.2,0-.3,0,0,0-.2-.1-.2,0,0-.1,0-.2-.1,0,0-.2,0-.3,0-.2,0-.3,0-.4,0-.1,0-.2.1-.3.3v2.3h-.7v-4.5h.7v1.8ZM70.9,265.1v.8h1.2v.5h-1.2v1.5c0,.1,0,.2,0,.3,0,0,0,.1.1.2,0,0,.1,0,.2,0,0,0,.1,0,.2,0s.1,0,.2,0c0,0,.1,0,.2,0,0,0,.1,0,.2,0,0,0,0,0,.1,0v.5s0,0-.1,0c0,0-.1,0-.2,0,0,0-.2,0-.3,0,0,0-.2,0-.3,0-.2,0-.3,0-.4,0-.1,0-.2-.1-.3-.2,0,0-.2-.2-.2-.4,0-.1,0-.3,0-.5v-1.6h-.8v-.5h.8v-.8h.7ZM73.7,268v.2s0-.2,0-.2l.5-2.1h.5l.5,2.2v.2s0-.2,0-.2l.3-2.1h.6l-.6,3.2h-.6l-.5-2.1h0s0,0,0,0l-.5,2.1h-.6l-.6-3.2h.6l.3,2.1ZM78.1,269.1c-.2,0-.4,0-.6-.1-.2,0-.4-.2-.5-.3-.1-.1-.2-.3-.3-.5,0-.2-.1-.4-.1-.6h0c0-.4,0-.6.1-.8,0-.2.2-.4.3-.5.1-.1.3-.3.5-.3.2,0,.4-.1.6-.1s.4,0,.6.1c.2,0,.3.2.4.3.1.1.2.3.3.5,0,.2,0,.4,0,.6v.3h-2.2c0,.1,0,.2,0,.3,0,.1.1.2.2.3,0,0,.2.1.3.2.1,0,.2,0,.4,0s.3,0,.5-.1c.2,0,.3-.2.4-.3l.4.4c0,0-.1.1-.2.2,0,0-.2.1-.3.2-.1,0-.2,0-.4.1-.1,0-.3,0-.4,0ZM78.1,266.3c0,0-.2,0-.3,0,0,0-.2,0-.2.2,0,0-.1.1-.2.2,0,0,0,.2,0,.3h1.5c0-.1,0-.2,0-.3,0,0,0-.2-.1-.2,0,0-.1-.1-.2-.2,0,0-.2,0-.3,0ZM80.4,265.8h1.7v2.6h.9v.6h-2.6v-.6h1v-2h-1v-.6ZM81.4,265c0-.1,0-.2.1-.3,0,0,.2-.1.3-.1s.2,0,.3.1c0,0,.1.2.1.3s0,.2-.1.3c0,0-.2.1-.3.1s-.2,0-.3-.1c0,0-.1-.2-.1-.3ZM83.8,267.4c0-.2,0-.5,0-.7,0-.2.1-.4.3-.5.1-.1.2-.3.4-.3.2,0,.3-.1.5-.1s.4,0,.5,0c.1,0,.3.2.4.3v-.3h.7v3.1c0,.2,0,.4-.1.6,0,.2-.2.3-.3.4-.1.1-.3.2-.5.3-.2,0-.4,0-.6,0s-.2,0-.3,0c-.1,0-.2,0-.3,0-.1,0-.2,0-.3-.2,0,0-.2-.1-.3-.2l.3-.4c.1.1.2.2.4.3.1,0,.3,0,.4,0s.2,0,.3,0c0,0,.2,0,.2-.1,0,0,.1-.1.2-.2,0,0,0-.2,0-.3v-.2c0,.1-.2.2-.4.3-.1,0-.3,0-.5,0s-.4,0-.5-.1c-.2,0-.3-.2-.4-.3-.1-.1-.2-.3-.3-.5,0-.2,0-.4,0-.6h0ZM84.5,267.5c0,.1,0,.3,0,.4,0,.1,0,.2.1.3,0,0,.1.2.2.2,0,0,.2,0,.3,0s.3,0,.4,0c.1,0,.2-.2.2-.3v-1.4c0-.1-.1-.2-.2-.3-.1,0-.2,0-.4,0s-.2,0-.3,0c0,0-.2.1-.2.2,0,0-.1.2-.1.3,0,.1,0,.3,0,.4h0ZM88.2,266.3c.1-.2.2-.3.4-.4.2,0,.3-.1.5-.1s.3,0,.5,0c.1,0,.3.1.4.2,0,.1.2.2.2.4,0,.2,0,.4,0,.6v2h-.7v-2c0-.1,0-.2,0-.3,0,0,0-.2-.1-.2,0,0-.1,0-.2-.1,0,0-.2,0-.3,0-.2,0-.3,0-.4,0-.1,0-.2.1-.3.3v2.3h-.7v-4.5h.7v1.8ZM92.5,265.1v.8h1.2v.5h-1.2v1.5c0,.1,0,.2,0,.3,0,0,0,.1.1.2,0,0,.1,0,.2,0,0,0,.1,0,.2,0s.1,0,.2,0c0,0,.1,0,.2,0,0,0,.1,0,.2,0,0,0,0,0,.1,0v.5s0,0-.1,0c0,0-.1,0-.2,0,0,0-.2,0-.3,0,0,0-.2,0-.3,0-.2,0-.3,0-.4,0-.1,0-.2-.1-.3-.2,0,0-.2-.2-.2-.4,0-.1,0-.3,0-.5v-1.6h-.8v-.5h.8v-.8h.7ZM98.9,265.8v.4c.2-.2.3-.3.5-.4.2,0,.3-.1.5-.1s.3,0,.4,0c.1,0,.2.1.3.2,0,0,.2.2.2.4,0,.2,0,.3,0,.6v2h-.7v-2c0-.1,0-.2,0-.3,0,0,0-.2-.1-.2,0,0-.1,0-.2-.1,0,0-.2,0-.3,0-.2,0-.3,0-.4.1-.1,0-.2.2-.3.3v2.3h-.7v-3.2h.6ZM103.4,269.1c-.2,0-.4,0-.6-.1-.2,0-.4-.2-.5-.3-.1-.1-.2-.3-.3-.5,0-.2-.1-.4-.1-.6h0c0-.4,0-.6.1-.8,0-.2.2-.4.3-.5.1-.1.3-.3.5-.3.2,0,.4-.1.6-.1s.4,0,.6.1c.2,0,.3.2.4.3.1.1.2.3.3.5,0,.2,0,.4,0,.6v.3h-2.2c0,.1,0,.2,0,.3,0,.1.1.2.2.3,0,0,.2.1.3.2.1,0,.2,0,.4,0s.3,0,.5-.1c.2,0,.3-.2.4-.3l.4.4c0,0-.1.1-.2.2,0,0-.2.1-.3.2-.1,0-.2,0-.4.1-.1,0-.3,0-.4,0ZM103.3,266.3c0,0-.2,0-.3,0,0,0-.2,0-.2.2,0,0-.1.1-.2.2,0,0,0,.2,0,.3h1.5c0-.1,0-.2,0-.3,0,0,0-.2-.1-.2,0,0-.1-.1-.2-.2,0,0-.2,0-.3,0ZM106.9,265.1v.8h1.2v.5h-1.2v1.5c0,.1,0,.2,0,.3,0,0,0,.1.1.2,0,0,.1,0,.2,0,0,0,.1,0,.2,0s.1,0,.2,0c0,0,.1,0,.2,0,0,0,.1,0,.2,0,0,0,0,0,.1,0v.5s0,0-.1,0c0,0-.1,0-.2,0,0,0-.2,0-.3,0,0,0-.2,0-.3,0-.2,0-.3,0-.4,0-.1,0-.2-.1-.3-.2,0,0-.2-.2-.2-.4,0-.1,0-.3,0-.5v-1.6h-.8v-.5h.8v-.8h.7ZM109.7,268v.2s0-.2,0-.2l.5-2.1h.5l.5,2.2v.2s0-.2,0-.2l.3-2.1h.6l-.6,3.2h-.6l-.5-2.1h0s0,0,0,0l-.5,2.1h-.6l-.6-3.2h.6l.3,2.1ZM112.6,267.4c0-.2,0-.4,0-.6,0-.2.2-.4.3-.5.1-.1.3-.3.5-.3.2,0,.4-.1.6-.1s.4,0,.6.1c.2,0,.3.2.5.3.1.1.2.3.3.5,0,.2,0,.4,0,.6h0c0,.3,0,.5,0,.7,0,.2-.2.4-.3.5-.1.1-.3.3-.5.3-.2,0-.4.1-.6.1s-.4,0-.6-.1c-.2,0-.3-.2-.5-.3-.1-.1-.2-.3-.3-.5,0-.2,0-.4,0-.6h0ZM113.3,267.4c0,.1,0,.3,0,.4,0,.1,0,.2.1.3,0,0,.1.2.2.2,0,0,.2,0,.3,0s.2,0,.3,0c0,0,.2-.1.2-.2,0,0,.1-.2.1-.3,0-.1,0-.3,0-.4h0c0-.2,0-.3,0-.5,0-.1,0-.2-.1-.3,0,0-.1-.2-.2-.2,0,0-.2,0-.3,0s-.2,0-.3,0-.2.1-.2.2c0,0-.1.2-.1.3,0,.1,0,.3,0,.4h0ZM118.5,265.8c0,0,.1,0,.2,0,0,0,.1,0,.2,0,0,0,.1,0,.1,0,0,0,0,0,.1,0v.7c-.3,0-.5,0-.7,0s-.4,0-.6.1c-.1,0-.2.2-.3.4v2h-.7v-3.2h.7v.5c.2-.2.3-.3.5-.4.2,0,.4-.1.6-.1ZM121,267.6l-.4.4v1h-.7v-4.5h.7v2.7l.3-.3.9-1h.8l-1.2,1.3,1.4,1.9h-.9l-1-1.4ZM56.4,276.5c0,0,.2,0,.2,0,0,0,.2,0,.2-.1,0,0,.1-.1.1-.2,0,0,0-.1,0-.2h.7c0,.2,0,.3-.1.4,0,.1-.2.2-.3.3-.1.1-.3.2-.4.2-.2,0-.3,0-.5,0s-.5,0-.6-.1c-.2,0-.3-.2-.5-.3-.1-.1-.2-.3-.3-.5,0-.2,0-.4,0-.6h0c0-.3,0-.5,0-.7,0-.2.2-.4.3-.5.1-.1.3-.3.5-.3.2,0,.4-.1.6-.1s.4,0,.5,0c.2,0,.3.1.4.2.1.1.2.2.3.4,0,.1,0,.3,0,.5h-.7c0,0,0-.2,0-.2,0,0,0-.1-.1-.2,0,0-.1-.1-.2-.1,0,0-.2,0-.3,0-.1,0-.3,0-.4,0,0,0-.2.1-.2.2,0,0-.1.2-.1.3,0,.1,0,.2,0,.4h0c0,.2,0,.4,0,.5,0,.1,0,.2.1.3,0,0,.1.2.2.2,0,0,.2,0,.4,0ZM58.5,275.4c0-.2,0-.4,0-.6,0-.2.2-.4.3-.5.1-.1.3-.3.5-.3.2,0,.4-.1.6-.1s.4,0,.6.1c.2,0,.3.2.5.3.1.1.2.3.3.5,0,.2,0,.4,0,.6h0c0,.3,0,.5,0,.7,0,.2-.2.4-.3.5-.1.1-.3.3-.5.3-.2,0-.4.1-.6.1s-.4,0-.6-.1c-.2,0-.3-.2-.5-.3-.1-.1-.2-.3-.3-.5,0-.2,0-.4,0-.6h0ZM59.2,275.4c0,.1,0,.3,0,.4,0,.1,0,.2.1.3,0,0,.1.2.2.2,0,0,.2,0,.3,0s.2,0,.3,0c0,0,.2-.1.2-.2,0,0,.1-.2.1-.3,0-.1,0-.3,0-.4h0c0-.2,0-.3,0-.5,0-.1,0-.2-.1-.3,0,0-.1-.2-.2-.2,0,0-.2,0-.3,0s-.2,0-.3,0c0,0-.2.1-.2.2,0,0-.1.2-.1.3,0,.1,0,.3,0,.4h0ZM62.9,273.8v.4c.2-.2.3-.3.5-.4.2,0,.3-.1.5-.1s.3,0,.4,0c.1,0,.2.1.3.2,0,0,.2.2.2.4,0,.2,0,.3,0,.6v2h-.7v-2c0-.1,0-.2,0-.3,0,0,0-.2-.1-.2,0,0-.1,0-.2-.1,0,0-.2,0-.3,0-.2,0-.3,0-.4.1-.1,0-.2.2-.3.3v2.3h-.7v-3.2h.6ZM66.5,273.8v.4c.2-.2.3-.3.5-.4.2,0,.3-.1.5-.1s.3,0,.4,0c.1,0,.2.1.3.2,0,0,.2.2.2.4,0,.2,0,.3,0,.6v2h-.7v-2c0-.1,0-.2,0-.3,0,0,0-.2-.1-.2,0,0-.1,0-.2-.1,0,0-.2,0-.3,0-.2,0-.3,0-.4.1-.1,0-.2.2-.3.3v2.3h-.7v-3.2h.6ZM70.9,277.1c-.2,0-.4,0-.6-.1-.2,0-.4-.2-.5-.3-.1-.1-.2-.3-.3-.5,0-.2-.1-.4-.1-.6h0c0-.4,0-.6.1-.8,0-.2.2-.4.3-.5.1-.1.3-.3.5-.3.2,0,.4-.1.6-.1s.4,0,.6.1c.2,0,.3.2.4.3.1.1.2.3.3.5,0,.2,0,.4,0,.6v.3h-2.2c0,.1,0,.2,0,.3,0,.1.1.2.2.3,0,0,.2.1.3.2.1,0,.2,0,.4,0s.3,0,.5-.1c.2,0,.3-.2.4-.3l.4.4c0,0-.1.1-.2.2,0,0-.2.1-.3.2-.1,0-.2,0-.4.1-.1,0-.3,0-.4,0ZM70.9,274.3c0,0-.2,0-.3,0,0,0-.2,0-.2.2,0,0-.1.1-.2.2,0,0,0,.2,0,.3h1.5c0-.1,0-.2,0-.3,0,0,0-.2-.1-.2,0,0-.1-.1-.2-.2,0,0-.2,0-.3,0ZM74.5,276.5c0,0,.2,0,.2,0,0,0,.2,0,.2-.1,0,0,.1-.1.1-.2,0,0,0-.1,0-.2h.7c0,.2,0,.3-.1.4,0,.1-.2.2-.3.3-.1.1-.3.2-.4.2-.2,0-.3,0-.5,0s-.5,0-.6-.1c-.2,0-.3-.2-.5-.3-.1-.1-.2-.3-.3-.5,0-.2,0-.4,0-.6h0c0-.3,0-.5,0-.7,0-.2.2-.4.3-.5.1-.1.3-.3.5-.3.2,0,.4-.1.6-.1s.4,0,.5,0c.2,0,.3.1.4.2.1.1.2.2.3.4,0,.1,0,.3,0,.5h-.7c0,0,0-.2,0-.2,0,0,0-.1-.1-.2,0,0-.1-.1-.2-.1,0,0-.2,0-.3,0-.1,0-.3,0-.4,0,0,0-.2.1-.2.2,0,0-.1.2-.1.3,0,.1,0,.2,0,.4h0c0,.2,0,.4,0,.5,0,.1,0,.2.1.3,0,0,.1.2.2.2,0,0,.2,0,.4,0ZM78.1,273.1v.8h1.2v.5h-1.2v1.5c0,.1,0,.2,0,.3,0,0,0,.1.1.2,0,0,.1,0,.2,0,0,0,.1,0,.2,0s.1,0,.2,0c0,0,.1,0,.2,0,0,0,.1,0,.2,0,0,0,0,0,.1,0v.5s0,0-.1,0c0,0-.1,0-.2,0,0,0-.2,0-.3,0,0,0-.2,0-.3,0-.2,0-.3,0-.4,0-.1,0-.2-.1-.3-.2,0,0-.2-.2-.2-.4,0-.1,0-.3,0-.5v-1.6h-.8v-.5h.8v-.8h.7ZM80.4,273.8h1.7v2.6h.9v.6h-2.6v-.6h1v-2h-1v-.6ZM81.4,273c0-.1,0-.2.1-.3,0,0,.2-.1.3-.1s.2,0,.3.1c0,0,.1.2.1.3s0,.2-.1.3c0,0-.2.1-.3.1s-.2,0-.3-.1c0,0-.1-.2-.1-.3ZM83.8,275.4c0-.2,0-.4,0-.6,0-.2.2-.4.3-.5.1-.1.3-.3.5-.3.2,0,.4-.1.6-.1s.4,0,.6.1c.2,0,.3.2.5.3.1.1.2.3.3.5,0,.2,0,.4,0,.6h0c0,.3,0,.5,0,.7,0,.2-.2.4-.3.5-.1.1-.3.3-.5.3-.2,0-.4.1-.6.1s-.4,0-.6-.1c-.2,0-.3-.2-.5-.3-.1-.1-.2-.3-.3-.5,0-.2,0-.4,0-.6h0ZM84.5,275.4c0,.1,0,.3,0,.4,0,.1,0,.2.1.3,0,0,.1.2.2.2,0,0,.2,0,.3,0s.2,0,.3,0c0,0,.2-.1.2-.2,0,0,.1-.2.1-.3,0-.1,0-.3,0-.4h0c0-.2,0-.3,0-.5,0-.1,0-.2-.1-.3,0,0-.1-.2-.2-.2,0,0-.2,0-.3,0s-.2,0-.3,0-.2.1-.2.2c0,0-.1.2-.1.3,0,.1,0,.3,0,.4h0ZM88.1,273.8v.4c.2-.2.3-.3.5-.4.2,0,.3-.1.5-.1s.3,0,.4,0c.1,0,.2.1.3.2,0,0,.2.2.2.4,0,.2,0,.3,0,.6v2h-.7v-2c0-.1,0-.2,0-.3,0,0,0-.2-.1-.2,0,0-.1,0-.2-.1,0,0-.2,0-.3,0-.2,0-.3,0-.4.1-.1,0-.2.2-.3.3v2.3h-.7v-3.2h.6ZM93.2,276.1c0,0,0-.1,0-.1,0,0,0,0-.1-.1,0,0-.1,0-.2-.1,0,0-.2,0-.4,0-.2,0-.4,0-.5-.1-.2,0-.3-.1-.4-.2-.1,0-.2-.2-.2-.3,0-.1,0-.2,0-.4s0-.3,0-.4c0-.1.1-.2.3-.3.1,0,.2-.2.4-.2.2,0,.3,0,.5,0s.4,0,.6,0c.2,0,.3.1.4.2.1,0,.2.2.3.3,0,.1,0,.3,0,.4h-.7c0,0,0-.1,0-.2,0,0,0-.1-.1-.2,0,0-.1,0-.2-.1,0,0-.2,0-.3,0s-.2,0-.3,0c0,0-.1,0-.2,0,0,0,0,0-.1.1,0,0,0,0,0,.2s0,.1,0,.1c0,0,0,0,.1.1,0,0,.1,0,.2,0,0,0,.2,0,.3,0,.2,0,.4,0,.5.1.2,0,.3.1.4.2.1,0,.2.2.3.3,0,.1,0,.2,0,.4s0,.3,0,.4c0,.1-.2.2-.3.3-.1,0-.3.1-.4.2-.2,0-.4,0-.6,0s-.4,0-.6,0c-.2,0-.3-.1-.4-.2-.1-.1-.2-.2-.3-.3,0-.1,0-.3,0-.4h.7c0,0,0,.2,0,.2,0,0,.1.1.2.2,0,0,.1,0,.2,0,0,0,.2,0,.3,0,.2,0,.4,0,.5-.1.1,0,.2-.2.2-.3ZM98.2,275.4c0-.2,0-.5,0-.7,0-.2.1-.4.3-.5.1-.1.2-.3.4-.3.2,0,.3-.1.5-.1s.3,0,.5,0c.1,0,.2.1.3.3v-1.6h.7v4.5h-.6v-.3c-.1.1-.3.2-.4.3-.1,0-.3,0-.5,0s-.4,0-.5-.1c-.2,0-.3-.2-.4-.3-.1-.1-.2-.3-.3-.5,0-.2,0-.4,0-.6h0ZM98.9,275.5c0,.1,0,.3,0,.4,0,.1,0,.2.1.3,0,0,.1.2.2.2,0,0,.2,0,.3,0s.3,0,.4-.1c.1,0,.2-.2.2-.3v-1.4c0-.1-.1-.2-.2-.3-.1,0-.2-.1-.4-.1s-.2,0-.3,0c0,0-.2.1-.2.2,0,0-.1.2-.1.3,0,.1,0,.3,0,.4h0ZM103.4,277.1c-.2,0-.4,0-.6-.1-.2,0-.4-.2-.5-.3-.1-.1-.2-.3-.3-.5,0-.2-.1-.4-.1-.6h0c0-.4,0-.6.1-.8,0-.2.2-.4.3-.5.1-.1.3-.3.5-.3.2,0,.4-.1.6-.1s.4,0,.6.1c.2,0,.3.2.4.3.1.1.2.3.3.5,0,.2,0,.4,0,.6v.3h-2.2c0,.1,0,.2,0,.3,0,.1.1.2.2.3,0,0,.2.1.3.2.1,0,.2,0,.4,0s.3,0,.5-.1c.2,0,.3-.2.4-.3l.4.4c0,0-.1.1-.2.2,0,0-.2.1-.3.2-.1,0-.2,0-.4.1-.1,0-.3,0-.4,0ZM103.3,274.3c0,0-.2,0-.3,0,0,0-.2,0-.2.2,0,0-.1.1-.2.2,0,0,0,.2,0,.3h1.5c0-.1,0-.2,0-.3,0,0,0-.2-.1-.2,0,0-.1-.1-.2-.2,0,0-.2,0-.3,0ZM107.6,276.1c0,0,0-.1,0-.1,0,0,0,0-.1-.1,0,0-.1,0-.2-.1,0,0-.2,0-.4,0-.2,0-.4,0-.5-.1-.2,0-.3-.1-.4-.2-.1,0-.2-.2-.2-.3,0-.1,0-.2,0-.4s0-.3,0-.4c0-.1.1-.2.3-.3.1,0,.2-.2.4-.2.2,0,.3,0,.5,0s.4,0,.6,0c.2,0,.3.1.4.2.1,0,.2.2.3.3,0,.1,0,.3,0,.4h-.7c0,0,0-.1,0-.2,0,0,0-.1-.1-.2,0,0-.1,0-.2-.1,0,0-.2,0-.3,0s-.2,0-.3,0c0,0-.1,0-.2,0,0,0,0,0-.1.1,0,0,0,0,0,.2s0,.1,0,.1c0,0,0,0,.1.1,0,0,.1,0,.2,0,0,0,.2,0,.3,0,.2,0,.4,0,.5.1.2,0,.3.1.4.2.1,0,.2.2.3.3,0,.1,0,.2,0,.4s0,.3,0,.4c0,.1-.2.2-.3.3-.1,0-.3.1-.4.2-.2,0-.4,0-.6,0s-.4,0-.6,0c-.2,0-.3-.1-.4-.2-.1-.1-.2-.2-.3-.3,0-.1,0-.3,0-.4h.7c0,0,0,.2,0,.2,0,0,.1.1.2.2,0,0,.1,0,.2,0,0,0,.2,0,.3,0,.2,0,.4,0,.5-.1.1,0,.2-.2.2-.3ZM109.3,273.8h1.7v2.6h.9v.6h-2.6v-.6h1v-2h-1v-.6ZM110.2,273c0-.1,0-.2.1-.3,0,0,.2-.1.3-.1s.2,0,.3.1c0,0,.1.2.1.3s0,.2-.1.3c0,0-.2.1-.3.1s-.2,0-.3-.1c0,0-.1-.2-.1-.3ZM112.6,275.4c0-.2,0-.5,0-.7,0-.2.1-.4.3-.5.1-.1.2-.3.4-.3.2,0,.3-.1.5-.1s.4,0,.5,0c.1,0,.3.2.4.3v-.3h.7v3.1c0,.2,0,.4-.1.6,0,.2-.2.3-.3.4-.1.1-.3.2-.5.3-.2,0-.4,0-.6,0s-.2,0-.3,0c-.1,0-.2,0-.3,0-.1,0-.2,0-.3-.2,0,0-.2-.1-.3-.2l.3-.4c.1.1.2.2.4.3.1,0,.3,0,.4,0s.2,0,.3,0c0,0,.2,0,.2-.1,0,0,.1-.1.2-.2,0,0,0-.2,0-.3v-.2c0,.1-.2.2-.4.3-.1,0-.3,0-.5,0s-.4,0-.5-.1c-.2,0-.3-.2-.4-.3-.1-.1-.2-.3-.3-.5,0-.2,0-.4,0-.6h0ZM113.3,275.5c0,.1,0,.3,0,.4,0,.1,0,.2.1.3,0,0,.1.2.2.2,0,0,.2,0,.3,0s.3,0,.4,0c.1,0,.2-.2.2-.3v-1.4c0-.1-.1-.2-.2-.3-.1,0-.2,0-.4,0s-.2,0-.3,0c0,0-.2.1-.2.2,0,0-.1.2-.1.3,0,.1,0,.3,0,.4h0ZM116.9,273.8v.4c.2-.2.3-.3.5-.4.2,0,.3-.1.5-.1s.3,0,.4,0c.1,0,.2.1.3.2,0,0,.2.2.2.4,0,.2,0,.3,0,.6v2h-.7v-2c0-.1,0-.2,0-.3,0,0,0-.2-.1-.2,0,0-.1,0-.2-.1,0,0-.2,0-.3,0-.2,0-.3,0-.4.1-.1,0-.2.2-.3.3v2.3h-.7v-3.2h.6ZM121.4,277.1c-.2,0-.4,0-.6-.1-.2,0-.4-.2-.5-.3-.1-.1-.2-.3-.3-.5,0-.2-.1-.4-.1-.6h0c0-.4,0-.6.1-.8,0-.2.2-.4.3-.5.1-.1.3-.3.5-.3.2,0,.4-.1.6-.1s.4,0,.6.1c.2,0,.3.2.4.3.1.1.2.3.3.5,0,.2,0,.4,0,.6v.3h-2.2c0,.1,0,.2,0,.3,0,.1.1.2.2.3,0,0,.2.1.3.2.1,0,.2,0,.4,0s.3,0,.5-.1c.2,0,.3-.2.4-.3l.4.4c0,0-.1.1-.2.2,0,0-.2.1-.3.2-.1,0-.2,0-.4.1-.1,0-.3,0-.4,0ZM121.3,274.3c0,0-.2,0-.3,0,0,0-.2,0-.2.2,0,0-.1.1-.2.2,0,0,0,.2,0,.3h1.5c0-.1,0-.2,0-.3,0,0,0-.2-.1-.2,0,0-.1-.1-.2-.2,0,0-.2,0-.3,0ZM123.4,275.4c0-.2,0-.5,0-.7,0-.2.1-.4.3-.5.1-.1.2-.3.4-.3.2,0,.3-.1.5-.1s.3,0,.5,0c.1,0,.2.1.3.3v-1.6h.7v4.5h-.6v-.3c-.1.1-.3.2-.4.3-.1,0-.3,0-.5,0s-.4,0-.5-.1c-.2,0-.3-.2-.4-.3-.1-.1-.2-.3-.3-.5,0-.2,0-.4,0-.6h0ZM124.1,275.5c0,.1,0,.3,0,.4s0,.2.1.3c0,0,.1.2.2.2,0,0,.2,0,.3,0s.3,0,.4-.1c.1,0,.2-.2.2-.3v-1.4c0-.1-.1-.2-.2-.3-.1,0-.2-.1-.4-.1s-.2,0-.3,0c0,0-.2.1-.2.2,0,0-.1.2-.1.3,0,.1,0,.3,0,.4h0ZM55.8,285v-2.6h-.9v-.5h.9v-.2c0-.2,0-.4,0-.5,0-.2.2-.3.3-.4.1-.1.3-.2.4-.2.2,0,.3,0,.6,0s.3,0,.4,0c.1,0,.3,0,.4,0v.6c-.1,0-.2,0-.3,0-.1,0-.2,0-.3,0-.3,0-.4,0-.6.2-.1.1-.2.3-.2.5v.2h1.2v.5h-1.2v2.6h-.7ZM58.5,283.4c0-.2,0-.4,0-.6,0-.2.2-.4.3-.5.1-.1.3-.3.5-.3.2,0,.4-.1.6-.1s.4,0,.6.1c.2,0,.3.2.5.3.1.1.2.3.3.5,0,.2,0,.4,0,.6h0c0,.3,0,.5,0,.7,0,.2-.2.4-.3.5-.1.1-.3.3-.5.3-.2,0-.4.1-.6.1s-.4,0-.6-.1c-.2,0-.3-.2-.5-.3-.1-.1-.2-.3-.3-.5,0-.2,0-.4,0-.6h0ZM59.2,283.4c0,.1,0,.3,0,.4,0,.1,0,.2.1.3,0,0,.1.2.2.2,0,0,.2,0,.3,0s.2,0,.3,0c0,0,.2-.1.2-.2,0,0,.1-.2.1-.3,0-.1,0-.3,0-.4h0c0-.2,0-.3,0-.5,0-.1,0-.2-.1-.3,0,0-.1-.2-.2-.2,0,0-.2,0-.3,0s-.2,0-.3,0c0,0-.2.1-.2.2,0,0-.1.2-.1.3,0,.1,0,.3,0,.4h0ZM64.4,281.8c0,0,.1,0,.2,0s.1,0,.2,0c0,0,.1,0,.1,0,0,0,0,0,.1,0v.7c-.3,0-.5,0-.7,0s-.4,0-.6.1c-.1,0-.2.2-.3.4v2h-.7v-3.2h.7v.5c.2-.2.3-.3.5-.4.2,0,.4-.1.6-.1ZM70.3,285v-2.6h-.9v-.5h.9v-.2c0-.2,0-.4,0-.5,0-.2.2-.3.3-.4.1-.1.3-.2.4-.2.2,0,.3,0,.6,0s.3,0,.4,0c.1,0,.3,0,.4,0v.6c-.1,0-.2,0-.3,0-.1,0-.2,0-.3,0-.3,0-.4,0-.6.2-.1.1-.2.3-.2.5v.2h1.2v.5h-1.2v2.6h-.7ZM75.1,285s0,0,0-.1c0,0,0-.1,0-.2,0,0-.1,0-.2.1,0,0-.1,0-.2.1,0,0-.2,0-.2,0,0,0-.2,0-.3,0-.2,0-.3,0-.5,0-.1,0-.3-.1-.3-.2,0,0-.2-.2-.2-.3,0-.1,0-.2,0-.4,0-.3.1-.6.4-.8.3-.2.6-.3,1.1-.3h.5v-.2c0-.2,0-.3-.2-.4-.1-.1-.3-.1-.5-.1s-.2,0-.2,0c0,0-.1,0-.2,0,0,0,0,0-.1.1,0,0,0,.1,0,.2h-.7c0-.1,0-.2,0-.4,0-.1.1-.2.3-.3.1,0,.2-.2.4-.2.2,0,.3,0,.6,0s.4,0,.5,0c.2,0,.3.1.4.2.1,0,.2.2.3.3,0,.1,0,.3,0,.5v1.4c0,.1,0,.3,0,.4,0,.1,0,.2,0,.3h0s-.7,0-.7,0ZM74.2,284.5c0,0,.2,0,.3,0,0,0,.2,0,.2,0,0,0,.1,0,.2-.1,0,0,0,0,.1-.1v-.6h-.4c-.3,0-.5,0-.6.1-.1,0-.2.2-.2.4s0,.1,0,.2c0,0,0,.1,0,.1,0,0,.1,0,.2,0,0,0,.1,0,.2,0ZM78.7,284.1c0,0,0-.1,0-.1,0,0,0,0-.1-.1,0,0-.1,0-.2-.1,0,0-.2,0-.4,0-.2,0-.4,0-.5-.1-.2,0-.3-.1-.4-.2-.1,0-.2-.2-.2-.3,0-.1,0-.2,0-.4s0-.3,0-.4c0-.1.1-.2.3-.3.1,0,.2-.2.4-.2.2,0,.3,0,.5,0s.4,0,.6,0c.2,0,.3.1.4.2.1,0,.2.2.3.3,0,.1,0,.3,0,.4h-.7c0,0,0-.1,0-.2,0,0,0-.1-.1-.2,0,0-.1,0-.2-.1,0,0-.2,0-.3,0s-.2,0-.3,0c0,0-.1,0-.2,0,0,0,0,0-.1.1,0,0,0,0,0,.2s0,.1,0,.1c0,0,0,0,.1.1,0,0,.1,0,.2,0,0,0,.2,0,.3,0,.2,0,.4,0,.5.1.2,0,.3.1.4.2.1,0,.2.2.3.3,0,.1,0,.2,0,.4s0,.3,0,.4-.2.2-.3.3c-.1,0-.3.1-.4.2-.2,0-.4,0-.6,0s-.4,0-.6,0c-.2,0-.3-.1-.4-.2-.1-.1-.2-.2-.3-.3,0-.1,0-.3,0-.4h.7c0,0,0,.2,0,.2,0,0,.1.1.2.2,0,0,.1,0,.2,0,0,0,.2,0,.3,0,.2,0,.4,0,.5-.1.1,0,.2-.2.2-.3ZM81.7,281.1v.8h1.2v.5h-1.2v1.5c0,.1,0,.2,0,.3,0,0,0,.1.1.2,0,0,.1,0,.2,0,0,0,.1,0,.2,0s.1,0,.2,0c0,0,.1,0,.2,0,0,0,.1,0,.2,0,0,0,0,0,.1,0v.5s0,0-.1,0c0,0-.1,0-.2,0,0,0-.2,0-.3,0,0,0-.2,0-.3,0-.2,0-.3,0-.4,0-.1,0-.2-.1-.3-.2,0,0-.2-.2-.2-.4,0-.1,0-.3,0-.5v-1.6h-.8v-.5h.8v-.8h.7ZM85.4,284.9c0,.1,0,.2,0,.3,0,.1,0,.2-.1.3,0,.1-.1.2-.2.3,0,0-.1.2-.2.3l-.4-.2c0-.1.1-.3.2-.4,0-.2,0-.3,0-.5v-.6h.7v.6ZM91.7,281.8v.4c.2-.2.3-.3.5-.4.2,0,.3-.1.5-.1s.3,0,.4,0c.1,0,.2.1.3.2,0,0,.2.2.2.4,0,.2,0,.3,0,.6v2h-.7v-2c0-.1,0-.2,0-.3,0,0,0-.2-.1-.2,0,0-.1,0-.2-.1,0,0-.2,0-.3,0-.2,0-.3,0-.4.1-.1,0-.2.2-.3.3v2.3h-.7v-3.2h.6ZM96.2,285.1c-.2,0-.4,0-.6-.1-.2,0-.4-.2-.5-.3-.1-.1-.2-.3-.3-.5,0-.2-.1-.4-.1-.6h0c0-.4,0-.6.1-.8,0-.2.2-.4.3-.5.1-.1.3-.3.5-.3.2,0,.4-.1.6-.1s.4,0,.6.1c.2,0,.3.2.4.3.1.1.2.3.3.5,0,.2,0,.4,0,.6v.3h-2.2c0,.1,0,.2,0,.3,0,.1.1.2.2.3,0,0,.2.1.3.2.1,0,.2,0,.4,0s.3,0,.5-.1c.2,0,.3-.2.4-.3l.4.4c0,0-.1.1-.2.2,0,0-.2.1-.3.2-.1,0-.2,0-.4.1-.1,0-.3,0-.4,0ZM96.1,282.3c0,0-.2,0-.3,0,0,0-.2,0-.2.2,0,0-.1.1-.2.2,0,0,0,.2,0,.3h1.5c0-.1,0-.2,0-.3,0,0,0-.2-.1-.2,0,0-.1-.1-.2-.2,0,0-.2,0-.3,0ZM99.7,281.1v.8h1.2v.5h-1.2v1.5c0,.1,0,.2,0,.3,0,0,0,.1.1.2,0,0,.1,0,.2,0,0,0,.1,0,.2,0s.1,0,.2,0c0,0,.1,0,.2,0,0,0,.1,0,.2,0,0,0,0,0,.1,0v.5s0,0-.1,0c0,0-.1,0-.2,0,0,0-.2,0-.3,0,0,0-.2,0-.3,0-.2,0-.3,0-.4,0-.1,0-.2-.1-.3-.2,0,0-.2-.2-.2-.4,0-.1,0-.3,0-.5v-1.6h-.8v-.5h.8v-.8h.7ZM102.5,284v.2s0-.2,0-.2l.5-2.1h.5l.5,2.2v.2s0-.2,0-.2l.3-2.1h.6l-.6,3.2h-.6l-.5-2.1h0s0,0,0,0l-.5,2.1h-.6l-.6-3.2h.6l.3,2.1ZM105.4,283.4c0-.2,0-.4,0-.6,0-.2.2-.4.3-.5.1-.1.3-.3.5-.3.2,0,.4-.1.6-.1s.4,0,.6.1c.2,0,.3.2.5.3.1.1.2.3.3.5,0,.2,0,.4,0,.6h0c0,.3,0,.5,0,.7,0,.2-.2.4-.3.5-.1.1-.3.3-.5.3-.2,0-.4.1-.6.1s-.4,0-.6-.1c-.2,0-.3-.2-.5-.3-.1-.1-.2-.3-.3-.5,0-.2,0-.4,0-.6h0ZM106.1,283.4c0,.1,0,.3,0,.4,0,.1,0,.2.1.3,0,0,.1.2.2.2,0,0,.2,0,.3,0s.2,0,.3,0c0,0,.2-.1.2-.2,0,0,.1-.2.1-.3,0-.1,0-.3,0-.4h0c0-.2,0-.3,0-.5,0-.1,0-.2-.1-.3,0,0-.1-.2-.2-.2,0,0-.2,0-.3,0s-.2,0-.3,0-.2.1-.2.2c0,0-.1.2-.1.3,0,.1,0,.3,0,.4h0ZM111.3,281.8c0,0,.1,0,.2,0,0,0,.1,0,.2,0,0,0,.1,0,.1,0,0,0,0,0,.1,0v.7c-.3,0-.5,0-.7,0s-.4,0-.6.1c-.1,0-.2.2-.3.4v2h-.7v-3.2h.7v.5c.2-.2.3-.3.5-.4.2,0,.4-.1.6-.1ZM113.8,283.6l-.4.4v1h-.7v-4.5h.7v2.7l.3-.3.9-1h.8l-1.2,1.3,1.4,1.9h-.9l-1-1.4ZM118.9,283.4h-2.3v-.6h2.3v.6ZM57.1,293s0,0,0-.1c0,0,0-.1,0-.2,0,0-.1,0-.2.1,0,0-.1,0-.2.1,0,0-.2,0-.2,0,0,0-.2,0-.3,0-.2,0-.3,0-.5,0-.1,0-.3-.1-.3-.2,0,0-.2-.2-.2-.3,0-.1,0-.2,0-.4,0-.3.1-.6.4-.8.3-.2.6-.3,1.1-.3h.5v-.2c0-.2,0-.3-.2-.4-.1-.1-.3-.1-.5-.1s-.2,0-.2,0c0,0-.1,0-.2,0,0,0,0,0-.1.1,0,0,0,.1,0,.2h-.7c0-.1,0-.2,0-.4,0-.1.1-.2.3-.3.1,0,.2-.2.4-.2.2,0,.3,0,.6,0s.4,0,.5,0c.2,0,.3.1.4.2.1,0,.2.2.3.3,0,.1,0,.3,0,.5v1.4c0,.1,0,.3,0,.4,0,.1,0,.2,0,.3h0s-.7,0-.7,0ZM56.2,292.5c0,0,.2,0,.3,0,0,0,.2,0,.2,0,0,0,.1,0,.2-.1,0,0,0,0,.1-.1v-.6h-.4c-.3,0-.5,0-.6.1-.1,0-.2.2-.2.4s0,.1,0,.2c0,0,0,.1,0,.1,0,0,.1,0,.2,0,0,0,.1,0,.2,0ZM58.6,291.4c0-.2,0-.5,0-.7,0-.2.1-.4.3-.5.1-.1.2-.3.4-.3.2,0,.3-.1.5-.1s.3,0,.5,0c.1,0,.2.1.3.3v-1.6h.7v4.5h-.6v-.3c-.1.1-.3.2-.4.3-.1,0-.3,0-.5,0s-.4,0-.5-.1c-.2,0-.3-.2-.4-.3-.1-.1-.2-.3-.3-.5,0-.2,0-.4,0-.6h0ZM59.3,291.5c0,.1,0,.3,0,.4,0,.1,0,.2.1.3,0,0,.1.2.2.2,0,0,.2,0,.3,0s.3,0,.4-.1c.1,0,.2-.2.2-.3v-1.4c0-.1-.1-.2-.2-.3-.1,0-.2-.1-.4-.1s-.2,0-.3,0c0,0-.2.1-.2.2,0,0-.1.2-.1.3,0,.1,0,.3,0,.4h0ZM64.3,293s0,0,0-.1c0,0,0-.1,0-.2,0,0-.1,0-.2.1,0,0-.1,0-.2.1,0,0-.2,0-.2,0,0,0-.2,0-.3,0-.2,0-.3,0-.5,0-.1,0-.3-.1-.3-.2,0,0-.2-.2-.2-.3,0-.1,0-.2,0-.4,0-.3.1-.6.4-.8.3-.2.6-.3,1.1-.3h.5v-.2c0-.2,0-.3-.2-.4-.1-.1-.3-.1-.5-.1s-.2,0-.2,0c0,0-.1,0-.2,0s0,0-.1.1c0,0,0,.1,0,.2h-.7c0-.1,0-.2,0-.4,0-.1.1-.2.3-.3.1,0,.2-.2.4-.2.2,0,.3,0,.6,0s.4,0,.5,0c.2,0,.3.1.4.2.1,0,.2.2.3.3,0,.1,0,.3,0,.5v1.4c0,.1,0,.3,0,.4,0,.1,0,.2,0,.3h0s-.7,0-.7,0ZM63.4,292.5c0,0,.2,0,.3,0,0,0,.2,0,.2,0,0,0,.1,0,.2-.1,0,0,0,0,.1-.1v-.6h-.4c-.3,0-.5,0-.6.1-.1,0-.2.2-.2.4s0,.1,0,.2c0,0,0,.1,0,.1,0,0,.1,0,.2,0,0,0,.1,0,.2,0ZM68.6,291.4c0,.2,0,.4,0,.6,0,.2-.1.4-.2.5-.1.1-.2.3-.4.3-.2,0-.3.1-.5.1s-.3,0-.5,0c-.1,0-.3-.1-.4-.3v1.5h-.7v-4.4h.6v.3c.1-.1.3-.2.4-.3.1,0,.3-.1.5-.1s.4,0,.5.1c.2,0,.3.2.4.3.1.1.2.3.2.5,0,.2,0,.4,0,.7h0ZM67.9,291.4c0-.1,0-.3,0-.4,0-.1,0-.2-.1-.3,0,0-.1-.2-.2-.2,0,0-.2,0-.3,0s-.3,0-.4,0c-.1,0-.2.2-.2.3v1.4c0,.1.1.2.2.3.1,0,.2.1.4.1s.2,0,.3,0c0,0,.2-.1.2-.2,0,0,.1-.2.1-.3,0-.1,0-.3,0-.4h0ZM70.9,289.1v.8h1.2v.5h-1.2v1.5c0,.1,0,.2,0,.3,0,0,0,.1.1.2,0,0,.1,0,.2,0,0,0,.1,0,.2,0s.1,0,.2,0c0,0,.1,0,.2,0,0,0,.1,0,.2,0,0,0,0,0,.1,0v.5s0,0-.1,0c0,0-.1,0-.2,0,0,0-.2,0-.3,0,0,0-.2,0-.3,0-.2,0-.3,0-.4,0-.1,0-.2-.1-.3-.2,0,0-.2-.2-.2-.4,0-.1,0-.3,0-.5v-1.6h-.8v-.5h.8v-.8h.7ZM73.2,289.8h1.7v2.6h.9v.6h-2.6v-.6h1v-2h-1v-.6ZM74.1,289c0-.1,0-.2.1-.3,0,0,.2-.1.3-.1s.2,0,.3.1c0,0,.1.2.1.3s0,.2-.1.3c0,0-.2.1-.3.1s-.2,0-.3-.1c0,0-.1-.2-.1-.3ZM78,292.1v.2s.1-.2.1-.2l.8-2.3h.7l-1.2,3.2h-.6l-1.3-3.2h.7l.8,2.3ZM81.8,293.1c-.2,0-.4,0-.6-.1-.2,0-.4-.2-.5-.3-.1-.1-.2-.3-.3-.5,0-.2-.1-.4-.1-.6h0c0-.4,0-.6.1-.8,0-.2.2-.4.3-.5.1-.1.3-.3.5-.3.2,0,.4-.1.6-.1s.4,0,.6.1c.2,0,.3.2.4.3.1.1.2.3.3.5,0,.2,0,.4,0,.6v.3h-2.2c0,.1,0,.2,0,.3,0,.1.1.2.2.3,0,0,.2.1.3.2.1,0,.2,0,.4,0s.3,0,.5-.1c.2,0,.3-.2.4-.3l.4.4c0,0-.1.1-.2.2,0,0-.2.1-.3.2-.1,0-.2,0-.4.1-.1,0-.3,0-.4,0ZM81.7,290.3c0,0-.2,0-.3,0,0,0-.2,0-.2.2,0,0-.1.1-.2.2,0,0,0,.2,0,.3h1.5c0-.1,0-.2,0-.3,0,0,0-.2-.1-.2,0,0-.1-.1-.2-.2,0,0-.2,0-.3,0ZM87.4,291.4c0-.2,0-.5,0-.7,0-.2.1-.4.3-.5.1-.1.2-.3.4-.3.2,0,.3-.1.5-.1s.3,0,.5,0c.1,0,.2.1.3.3v-1.6h.7v4.5h-.6v-.3c-.1.1-.3.2-.4.3-.1,0-.3,0-.5,0s-.4,0-.5-.1c-.2,0-.3-.2-.4-.3-.1-.1-.2-.3-.3-.5,0-.2,0-.4,0-.6h0ZM88.1,291.5c0,.1,0,.3,0,.4,0,.1,0,.2.1.3,0,0,.1.2.2.2,0,0,.2,0,.3,0s.3,0,.4-.1c.1,0,.2-.2.2-.3v-1.4c0-.1-.1-.2-.2-.3-.1,0-.2-.1-.4-.1s-.2,0-.3,0c0,0-.2.1-.2.2,0,0-.1.2-.1.3,0,.1,0,.3,0,.4h0ZM92.6,293.1c-.2,0-.4,0-.6-.1-.2,0-.4-.2-.5-.3-.1-.1-.2-.3-.3-.5,0-.2-.1-.4-.1-.6h0c0-.4,0-.6.1-.8,0-.2.2-.4.3-.5.1-.1.3-.3.5-.3.2,0,.4-.1.6-.1s.4,0,.6.1c.2,0,.3.2.4.3.1.1.2.3.3.5,0,.2,0,.4,0,.6v.3h-2.2c0,.1,0,.2,0,.3,0,.1.1.2.2.3,0,0,.2.1.3.2.1,0,.2,0,.4,0s.3,0,.5-.1c.2,0,.3-.2.4-.3l.4.4c0,0-.1.1-.2.2,0,0-.2.1-.3.2-.1,0-.2,0-.4.1-.1,0-.3,0-.4,0ZM92.5,290.3c0,0-.2,0-.3,0,0,0-.2,0-.2.2,0,0-.1.1-.2.2,0,0,0,.2,0,.3h1.5c0-.1,0-.2,0-.3,0,0,0-.2-.1-.2,0,0-.1-.1-.2-.2,0,0-.2,0-.3,0ZM94.8,288.5h1.7v3.9h1v.6h-2.7v-.6h1v-3.3h-1v-.6ZM98.4,289.8h1.7v2.6h.9v.6h-2.6v-.6h1v-2h-1v-.6ZM99.4,289c0-.1,0-.2.1-.3,0,0,.2-.1.3-.1s.2,0,.3.1c0,0,.1.2.1.3s0,.2-.1.3c0,0-.2.1-.3.1s-.2,0-.3-.1c0,0-.1-.2-.1-.3ZM103.2,292.1v.2c0,0,.1-.2.1-.2l.8-2.3h.7l-1.2,3.2h-.6l-1.3-3.2h.7l.8,2.3ZM107,293.1c-.2,0-.4,0-.6-.1-.2,0-.4-.2-.5-.3-.1-.1-.2-.3-.3-.5,0-.2-.1-.4-.1-.6h0c0-.4,0-.6.1-.8,0-.2.2-.4.3-.5.1-.1.3-.3.5-.3.2,0,.4-.1.6-.1s.4,0,.6.1c.2,0,.3.2.4.3.1.1.2.3.3.5,0,.2,0,.4,0,.6v.3h-2.2c0,.1,0,.2,0,.3,0,.1.1.2.2.3,0,0,.2.1.3.2.1,0,.2,0,.4,0s.3,0,.5-.1c.1,0,.3-.2.4-.3l.4.4c0,0-.1.1-.2.2,0,0-.2.1-.3.2-.1,0-.2,0-.4.1-.1,0-.3,0-.4,0ZM106.9,290.3c0,0-.2,0-.3,0,0,0-.2,0-.2.2,0,0-.1.1-.2.2,0,0,0,.2,0,.3h1.5c0-.1,0-.2,0-.3,0,0,0-.2-.1-.2,0,0-.1-.1-.2-.2,0,0-.2,0-.3,0ZM111.3,289.8c0,0,.1,0,.2,0,0,0,.1,0,.2,0,0,0,.1,0,.1,0,0,0,0,0,.1,0v.7c-.3,0-.5,0-.7,0s-.4,0-.6.1c-.1,0-.2.2-.3.4v2h-.7v-3.2h.7v.5c.2-.2.3-.3.5-.4.2,0,.4-.1.6-.1ZM114,291.7v.4c.1,0,1-2.3,1-2.3h.8l-1.6,3.7c0,0,0,.2-.1.3,0,0-.1.2-.2.3,0,0-.2.1-.3.2-.1,0-.2,0-.4,0s-.1,0-.2,0c0,0-.1,0-.2,0v-.5h.2s0,0,0,0c0,0,0,0,0,0,0,0,0,0,0,0,0,0,.1,0,.2,0,0,0,.1,0,.1-.1,0,0,0-.1.1-.2,0,0,0,0,0,0l.2-.4-1.3-3h.8l.8,1.9ZM119.8,291.4c0-.2,0-.4,0-.6,0-.2.2-.4.3-.5.1-.1.3-.3.5-.3.2,0,.4-.1.6-.1s.4,0,.6.1c.2,0,.3.2.5.3.1.1.2.3.3.5,0,.2,0,.4,0,.6h0c0,.3,0,.5,0,.7,0,.2-.2.4-.3.5-.1.1-.3.3-.5.3-.2,0-.4.1-.6.1s-.4,0-.6-.1c-.2,0-.3-.2-.5-.3-.1-.1-.2-.3-.3-.5,0-.2,0-.4,0-.6h0ZM120.5,291.4c0,.1,0,.3,0,.4,0,.1,0,.2.1.3,0,0,.1.2.2.2,0,0,.2,0,.3,0s.2,0,.3,0c0,0,.2-.1.2-.2,0,0,.1-.2.1-.3,0-.1,0-.3,0-.4h0c0-.2,0-.3,0-.5,0-.1,0-.2-.1-.3,0,0-.1-.2-.2-.2,0,0-.2,0-.3,0s-.2,0-.3,0c0,0-.2.1-.2.2,0,0-.1.2-.1.3,0,.1,0,.3,0,.4h0ZM124.3,293v-2.6h-.9v-.5h.9v-.2c0-.2,0-.4,0-.5,0-.2.2-.3.3-.4.1-.1.3-.2.4-.2.2,0,.3,0,.6,0s.3,0,.4,0c.1,0,.3,0,.4,0v.6c-.1,0-.2,0-.3,0-.1,0-.2,0-.3,0-.3,0-.4,0-.6.2-.1.1-.2.3-.2.5v.2h1.2v.5h-1.2v2.6h-.7ZM57.1,301s0,0,0-.1c0,0,0-.1,0-.2,0,0-.1,0-.2.1,0,0-.1,0-.2.1,0,0-.2,0-.2,0,0,0-.2,0-.3,0-.2,0-.3,0-.5,0-.1,0-.3-.1-.3-.2,0,0-.2-.2-.2-.3,0-.1,0-.2,0-.4,0-.3.1-.6.4-.8.3-.2.6-.3,1.1-.3h.5v-.2c0-.2,0-.3-.2-.4-.1-.1-.3-.1-.5-.1s-.2,0-.2,0c0,0-.1,0-.2,0,0,0,0,0-.1.1,0,0,0,.1,0,.2h-.7c0-.1,0-.2,0-.4,0-.1.1-.2.3-.3.1,0,.2-.2.4-.2.2,0,.3,0,.6,0s.4,0,.5,0c.2,0,.3.1.4.2.1,0,.2.2.3.3,0,.1,0,.3,0,.5v1.4c0,.1,0,.3,0,.4,0,.1,0,.2,0,.3h0s-.7,0-.7,0ZM56.2,300.5c0,0,.2,0,.3,0,0,0,.2,0,.2,0,0,0,.1,0,.2-.1,0,0,0,0,.1-.1v-.6h-.4c-.3,0-.5,0-.6.1-.1,0-.2.2-.2.4s0,.1,0,.2c0,0,0,.1,0,.1,0,0,.1,0,.2,0,0,0,.1,0,.2,0ZM60.7,300.6c-.1.2-.2.3-.4.4-.2,0-.3.1-.5.1s-.3,0-.5,0c-.1,0-.3-.1-.3-.2,0-.1-.2-.3-.2-.4,0-.2,0-.4,0-.6v-1.9h.7v1.9c0,.2,0,.3,0,.4,0,0,0,.2.1.2,0,0,.1.1.2.1,0,0,.2,0,.3,0,.2,0,.3,0,.5-.1.1,0,.2-.2.3-.3v-2.2h.7v3.2h-.6v-.4ZM62.2,299.4c0-.2,0-.5,0-.7,0-.2.1-.4.3-.5.1-.1.2-.3.4-.3.2,0,.3-.1.5-.1s.3,0,.5,0c.1,0,.2.1.3.3v-1.6h.7v4.5h-.6v-.3c-.1.1-.3.2-.4.3-.1,0-.3,0-.5,0s-.4,0-.5-.1c-.2,0-.3-.2-.4-.3-.1-.1-.2-.3-.3-.5,0-.2,0-.4,0-.6h0ZM62.9,299.5c0,.1,0,.3,0,.4,0,.1,0,.2.1.3,0,0,.1.2.2.2,0,0,.2,0,.3,0s.3,0,.4-.1c.1,0,.2-.2.2-.3v-1.4c0-.1-.1-.2-.2-.3-.1,0-.2-.1-.4-.1s-.2,0-.3,0c0,0-.2.1-.2.2,0,0-.1.2-.1.3,0,.1,0,.3,0,.4h0ZM66,297.8h1.7v2.6h.9v.6h-2.6v-.6h1v-2h-1v-.6ZM66.9,297c0-.1,0-.2.1-.3,0,0,.2-.1.3-.1s.2,0,.3.1c0,0,.1.2.1.3s0,.2-.1.3c0,0-.2.1-.3.1s-.2,0-.3-.1c0,0-.1-.2-.1-.3ZM69.3,299.4c0-.2,0-.4,0-.6,0-.2.2-.4.3-.5.1-.1.3-.3.5-.3.2,0,.4-.1.6-.1s.4,0,.6.1c.2,0,.3.2.5.3.1.1.2.3.3.5,0,.2,0,.4,0,.6h0c0,.3,0,.5,0,.7,0,.2-.2.4-.3.5-.1.1-.3.3-.5.3-.2,0-.4.1-.6.1s-.4,0-.6-.1c-.2,0-.3-.2-.5-.3-.1-.1-.2-.3-.3-.5,0-.2,0-.4,0-.6h0ZM70,299.4c0,.1,0,.3,0,.4,0,.1,0,.2.1.3,0,0,.1.2.2.2,0,0,.2,0,.3,0s.2,0,.3,0c0,0,.2-.1.2-.2,0,0,.1-.2.1-.3,0-.1,0-.3,0-.4h0c0-.2,0-.3,0-.5,0-.1,0-.2-.1-.3,0,0-.1-.2-.2-.2,0,0-.2,0-.3,0s-.2,0-.3,0c0,0-.2.1-.2.2,0,0-.1.2-.1.3,0,.1,0,.3,0,.4h0ZM78.7,301s0,0,0-.1c0,0,0-.1,0-.2,0,0-.1,0-.2.1,0,0-.1,0-.2.1,0,0-.2,0-.2,0,0,0-.2,0-.3,0-.2,0-.3,0-.5,0-.1,0-.3-.1-.3-.2,0,0-.2-.2-.2-.3,0-.1,0-.2,0-.4,0-.3.1-.6.4-.8.3-.2.6-.3,1.1-.3h.5v-.2c0-.2,0-.3-.2-.4-.1-.1-.3-.1-.5-.1s-.2,0-.2,0c0,0-.1,0-.2,0,0,0,0,0-.1.1,0,0,0,.1,0,.2h-.7c0-.1,0-.2,0-.4,0-.1.1-.2.3-.3.1,0,.2-.2.4-.2.2,0,.3,0,.6,0s.4,0,.5,0c.2,0,.3.1.4.2.1,0,.2.2.3.3,0,.1,0,.3,0,.5v1.4c0,.1,0,.3,0,.4,0,.1,0,.2,0,.3h0s-.7,0-.7,0ZM77.8,300.5c0,0,.2,0,.3,0,0,0,.2,0,.2,0,0,0,.1,0,.2-.1,0,0,0,0,.1-.1v-.6h-.4c-.3,0-.5,0-.6.1-.1,0-.2.2-.2.4s0,.1,0,.2c0,0,0,.1,0,.1,0,0,.1,0,.2,0,0,0,.1,0,.2,0ZM80.9,297.8v.4c.2-.2.3-.3.5-.4.2,0,.3-.1.5-.1s.3,0,.4,0c.1,0,.2.1.3.2,0,0,.2.2.2.4,0,.2,0,.3,0,.6v2h-.7v-2c0-.1,0-.2,0-.3,0,0,0-.2-.1-.2,0,0-.1,0-.2-.1,0,0-.2,0-.3,0-.2,0-.3,0-.4.1-.1,0-.2.2-.3.3v2.3h-.7v-3.2h.6ZM83.8,299.4c0-.2,0-.5,0-.7,0-.2.1-.4.3-.5.1-.1.2-.3.4-.3.2,0,.3-.1.5-.1s.3,0,.5,0c.1,0,.2.1.3.3v-1.6h.7v4.5h-.6v-.3c-.1.1-.3.2-.4.3-.1,0-.3,0-.5,0s-.4,0-.5-.1c-.2,0-.3-.2-.4-.3-.1-.1-.2-.3-.3-.5,0-.2,0-.4,0-.6h0ZM84.5,299.5c0,.1,0,.3,0,.4,0,.1,0,.2.1.3,0,0,.1.2.2.2,0,0,.2,0,.3,0s.3,0,.4-.1c.1,0,.2-.2.2-.3v-1.4c0-.1-.1-.2-.2-.3-.1,0-.2-.1-.4-.1s-.2,0-.3,0c0,0-.2.1-.2.2,0,0-.1.2-.1.3,0,.1,0,.3,0,.4h0ZM92.4,300.1v.2s.1-.2.1-.2l.8-2.3h.7l-1.2,3.2h-.6l-1.3-3.2h.7l.8,2.3ZM94.8,297.8h1.7v2.6h.9v.6h-2.6v-.6h1v-2h-1v-.6ZM95.8,297c0-.1,0-.2.1-.3,0,0,.2-.1.3-.1s.2,0,.3.1c0,0,.1.2.1.3s0,.2-.1.3c0,0-.2.1-.3.1s-.2,0-.3-.1c0,0-.1-.2-.1-.3ZM98.2,299.4c0-.2,0-.5,0-.7,0-.2.1-.4.3-.5.1-.1.2-.3.4-.3.2,0,.3-.1.5-.1s.3,0,.5,0c.1,0,.2.1.3.3v-1.6h.7v4.5h-.6v-.3c-.1.1-.3.2-.4.3-.1,0-.3,0-.5,0s-.4,0-.5-.1c-.2,0-.3-.2-.4-.3-.1-.1-.2-.3-.3-.5,0-.2,0-.4,0-.6h0ZM98.9,299.5c0,.1,0,.3,0,.4,0,.1,0,.2.1.3,0,0,.1.2.2.2,0,0,.2,0,.3,0s.3,0,.4-.1c.1,0,.2-.2.2-.3v-1.4c0-.1-.1-.2-.2-.3-.1,0-.2-.1-.4-.1s-.2,0-.3,0c0,0-.2.1-.2.2,0,0-.1.2-.1.3,0,.1,0,.3,0,.4h0ZM103.4,301.1c-.2,0-.4,0-.6-.1-.2,0-.4-.2-.5-.3-.1-.1-.2-.3-.3-.5,0-.2-.1-.4-.1-.6h0c0-.4,0-.6.1-.8,0-.2.2-.4.3-.5.1-.1.3-.3.5-.3.2,0,.4-.1.6-.1s.4,0,.6.1c.2,0,.3.2.4.3.1.1.2.3.3.5,0,.2,0,.4,0,.6v.3h-2.2c0,.1,0,.2,0,.3,0,.1.1.2.2.3,0,0,.2.1.3.2.1,0,.2,0,.4,0s.3,0,.5-.1c.2,0,.3-.2.4-.3l.4.4c0,0-.1.1-.2.2,0,0-.2.1-.3.2-.1,0-.2,0-.4.1-.1,0-.3,0-.4,0ZM103.3,298.3c0,0-.2,0-.3,0,0,0-.2,0-.2.2,0,0-.1.1-.2.2,0,0,0,.2,0,.3h1.5c0-.1,0-.2,0-.3,0,0,0-.2-.1-.2,0,0-.1-.1-.2-.2,0,0-.2,0-.3,0ZM105.4,299.4c0-.2,0-.4,0-.6,0-.2.2-.4.3-.5.1-.1.3-.3.5-.3.2,0,.4-.1.6-.1s.4,0,.6.1c.2,0,.3.2.5.3.1.1.2.3.3.5,0,.2,0,.4,0,.6h0c0,.3,0,.5,0,.7,0,.2-.2.4-.3.5-.1.1-.3.3-.5.3-.2,0-.4.1-.6.1s-.4,0-.6-.1c-.2,0-.3-.2-.5-.3-.1-.1-.2-.3-.3-.5,0-.2,0-.4,0-.6h0ZM106.1,299.4c0,.1,0,.3,0,.4,0,.1,0,.2.1.3,0,0,.1.2.2.2,0,0,.2,0,.3,0s.2,0,.3,0c0,0,.2-.1.2-.2,0,0,.1-.2.1-.3,0-.1,0-.3,0-.4h0c0-.2,0-.3,0-.5,0-.1,0-.2-.1-.3,0,0-.1-.2-.2-.2,0,0-.2,0-.3,0s-.2,0-.3,0-.2.1-.2.2c0,0-.1.2-.1.3,0,.1,0,.3,0,.4h0ZM57.8,307.4c0,.2,0,.4,0,.6,0,.2-.1.4-.2.5-.1.1-.2.3-.4.3-.2,0-.3.1-.5.1s-.3,0-.5,0c-.1,0-.3-.1-.4-.3v1.5h-.7v-4.4h.6v.3c.1-.1.3-.2.4-.3.1,0,.3-.1.5-.1s.4,0,.5.1c.2,0,.3.2.4.3.1.1.2.3.2.5,0,.2,0,.4,0,.7h0ZM57.1,307.4c0-.1,0-.3,0-.4,0-.1,0-.2-.1-.3,0,0-.1-.2-.2-.2,0,0-.2,0-.3,0s-.3,0-.4,0c-.1,0-.2.2-.2.3v1.4c0,.1.1.2.2.3.1,0,.2.1.4.1s.2,0,.3,0c0,0,.2-.1.2-.2,0,0,.1-.2.1-.3,0-.1,0-.3,0-.4h0ZM60.7,309s0,0,0-.1c0,0,0-.1,0-.2,0,0-.1,0-.2.1,0,0-.1,0-.2.1,0,0-.2,0-.2,0,0,0-.2,0-.3,0-.2,0-.3,0-.5,0-.1,0-.3-.1-.3-.2,0,0-.2-.2-.2-.3,0-.1,0-.2,0-.4,0-.3.1-.6.4-.8.3-.2.6-.3,1.1-.3h.5v-.2c0-.2,0-.3-.2-.4-.1-.1-.3-.1-.5-.1s-.2,0-.2,0c0,0-.1,0-.2,0,0,0,0,0-.1.1,0,0,0,.1,0,.2h-.7c0-.1,0-.2,0-.4,0-.1.1-.2.3-.3.1,0,.2-.2.4-.2.2,0,.3,0,.6,0s.4,0,.5,0c.2,0,.3.1.4.2.1,0,.2.2.3.3,0,.1,0,.3,0,.5v1.4c0,.1,0,.3,0,.4,0,.1,0,.2,0,.3h0s-.7,0-.7,0ZM59.8,308.5c0,0,.2,0,.3,0,0,0,.2,0,.2,0,0,0,.1,0,.2-.1,0,0,0,0,.1-.1v-.6h-.4c-.3,0-.5,0-.6.1-.1,0-.2.2-.2.4s0,.1,0,.2c0,0,0,.1,0,.1,0,0,.1,0,.2,0,0,0,.1,0,.2,0ZM63.6,308.5c0,0,.2,0,.2,0,0,0,.2,0,.2-.1,0,0,.1-.1.1-.2,0,0,0-.1,0-.2h.7c0,.2,0,.3-.1.4,0,.1-.2.2-.3.3-.1.1-.3.2-.4.2-.2,0-.3,0-.5,0s-.5,0-.6-.1c-.2,0-.3-.2-.5-.3-.1-.1-.2-.3-.3-.5,0-.2,0-.4,0-.6h0c0-.3,0-.5,0-.7,0-.2.2-.4.3-.5.1-.1.3-.3.5-.3.2,0,.4-.1.6-.1s.4,0,.5,0c.2,0,.3.1.4.2.1.1.2.2.3.4,0,.1,0,.3,0,.5h-.7c0,0,0-.2,0-.2,0,0,0-.1-.1-.2,0,0-.1-.1-.2-.1,0,0-.2,0-.3,0-.1,0-.3,0-.4,0,0,0-.2.1-.2.2,0,0-.1.2-.1.3,0,.1,0,.2,0,.4h0c0,.2,0,.4,0,.5,0,.1,0,.2.1.3,0,0,.1.2.2.2,0,0,.2,0,.4,0ZM66.9,307.6l-.4.4v1h-.7v-4.5h.7v2.7l.3-.3.9-1h.8l-1.2,1.3,1.4,1.9h-.9l-1-1.4ZM70.9,309.1c-.2,0-.4,0-.6-.1-.2,0-.4-.2-.5-.3-.1-.1-.2-.3-.3-.5,0-.2-.1-.4-.1-.6h0c0-.4,0-.6.1-.8,0-.2.2-.4.3-.5.1-.1.3-.3.5-.3.2,0,.4-.1.6-.1s.4,0,.6.1c.2,0,.3.2.4.3.1.1.2.3.3.5,0,.2,0,.4,0,.6v.3h-2.2c0,.1,0,.2,0,.3,0,.1.1.2.2.3,0,0,.2.1.3.2.1,0,.2,0,.4,0s.3,0,.5-.1c.2,0,.3-.2.4-.3l.4.4c0,0-.1.1-.2.2,0,0-.2.1-.3.2-.1,0-.2,0-.4.1-.1,0-.3,0-.4,0ZM70.9,306.3c0,0-.2,0-.3,0,0,0-.2,0-.2.2,0,0-.1.1-.2.2,0,0,0,.2,0,.3h1.5c0-.1,0-.2,0-.3,0,0,0-.2-.1-.2,0,0-.1-.1-.2-.2,0,0-.2,0-.3,0ZM74.5,305.1v.8h1.2v.5h-1.2v1.5c0,.1,0,.2,0,.3,0,0,0,.1.1.2,0,0,.1,0,.2,0,0,0,.1,0,.2,0s.1,0,.2,0c0,0,.1,0,.2,0,0,0,.1,0,.2,0,0,0,0,0,.1,0v.5s0,0-.1,0c0,0-.1,0-.2,0,0,0-.2,0-.3,0,0,0-.2,0-.3,0-.2,0-.3,0-.4,0-.1,0-.2-.1-.3-.2,0,0-.2-.2-.2-.4,0-.1,0-.3,0-.5v-1.6h-.8v-.5h.8v-.8h.7ZM78.7,308.1c0,0,0-.1,0-.1,0,0,0,0-.1-.1,0,0-.1,0-.2-.1,0,0-.2,0-.4,0-.2,0-.4,0-.5-.1-.2,0-.3-.1-.4-.2-.1,0-.2-.2-.2-.3,0-.1,0-.2,0-.4s0-.3,0-.4c0-.1.1-.2.3-.3.1,0,.2-.2.4-.2.2,0,.3,0,.5,0s.4,0,.6,0c.2,0,.3.1.4.2.1,0,.2.2.3.3,0,.1,0,.3,0,.4h-.7c0,0,0-.1,0-.2,0,0,0-.1-.1-.2,0,0-.1,0-.2-.1,0,0-.2,0-.3,0s-.2,0-.3,0c0,0-.1,0-.2,0,0,0,0,0-.1.1,0,0,0,0,0,.2s0,.1,0,.1c0,0,0,0,.1.1,0,0,.1,0,.2,0,0,0,.2,0,.3,0,.2,0,.4,0,.5.1.2,0,.3.1.4.2.1,0,.2.2.3.3,0,.1,0,.2,0,.4s0,.3,0,.4-.2.2-.3.3c-.1,0-.3.1-.4.2-.2,0-.4,0-.6,0s-.4,0-.6,0c-.2,0-.3-.1-.4-.2-.1-.1-.2-.2-.3-.3,0-.1,0-.3,0-.4h.7c0,0,0,.2,0,.2,0,0,.1.1.2.2,0,0,.1,0,.2,0,0,0,.2,0,.3,0,.2,0,.4,0,.5-.1.1,0,.2-.2.2-.3Z"/>
</svg>