<svg width="137" height="401" viewBox="0 0 137 401" fill="none" xmlns="http://www.w3.org/2000/svg">
<path d="M57.0612 38.817L19.0612 38.817" stroke="#303136" stroke-width="4" stroke-linecap="round"/>
<path d="M49.0612 48.817L27.0612 48.817" stroke="#303136" stroke-width="4" stroke-linecap="round"/>
<path d="M43.0612 58.817L33.0612 58.817" stroke="#303136" stroke-width="4" stroke-linecap="round"/>
<path d="M49.0612 28.817L27.0612 28.817" stroke="#303136" stroke-width="4" stroke-linecap="round"/>
<path d="M43.0612 18.817L33.0612 18.817" stroke="#303136" stroke-width="4" stroke-linecap="round"/>
<path d="M57.0612 78.817L19.0612 78.817" stroke="#303136" stroke-width="4" stroke-linecap="round"/>
<path d="M49.0612 88.817L27.0612 88.817" stroke="#303136" stroke-width="4" stroke-linecap="round"/>
<path d="M43.0612 98.817L33.0612 98.817" stroke="#303136" stroke-width="4" stroke-linecap="round"/>
<path d="M49.0612 68.817L27.0612 68.817" stroke="#303136" stroke-width="4" stroke-linecap="round"/>
<path d="M43.0612 58.817L33.0612 58.817" stroke="#303136" stroke-width="4" stroke-linecap="round"/>
<path d="M57.0612 118.817L19.0612 118.817" stroke="#303136" stroke-width="4" stroke-linecap="round"/>
<path d="M49.0612 128.817L27.0612 128.817" stroke="#303136" stroke-width="4" stroke-linecap="round"/>
<path d="M43.0612 138.817L33.0612 138.817" stroke="#303136" stroke-width="4" stroke-linecap="round"/>
<path d="M49.0612 108.817L27.0612 108.817" stroke="#303136" stroke-width="4" stroke-linecap="round"/>
<path d="M43.0612 98.817L33.0612 98.817" stroke="#303136" stroke-width="4" stroke-linecap="round"/>
<path d="M38.1862 152.817L37.9362 152.817" stroke="#303136" stroke-width="4" stroke-linecap="round"/>
<path d="M38.1862 160.817L37.9362 160.817" stroke="#303136" stroke-width="4" stroke-linecap="round"/>
<path d="M38.1862 168.817L37.9362 168.817" stroke="#303136" stroke-width="4" stroke-linecap="round"/>
<path d="M38.1862 176.817L37.9362 176.817" stroke="#303136" stroke-width="4" stroke-linecap="round"/>
<path d="M38.1862 184.817L37.9362 184.817" stroke="#303136" stroke-width="4" stroke-linecap="round"/>
<path d="M38.1862 192.817L37.9362 192.817" stroke="#303136" stroke-width="4" stroke-linecap="round"/>
<path d="M38.1862 200.817L37.9362 200.817" stroke="#303136" stroke-width="4" stroke-linecap="round"/>
<path d="M38.1862 208.817L37.9362 208.817" stroke="#303136" stroke-width="4" stroke-linecap="round"/>
<path d="M38.1862 216.817L37.9362 216.817" stroke="#303136" stroke-width="4" stroke-linecap="round"/>
<path d="M38.1862 224.817L37.9362 224.817" stroke="#303136" stroke-width="4" stroke-linecap="round"/>
<path d="M38.1862 232.817L37.9362 232.817" stroke="#303136" stroke-width="4" stroke-linecap="round"/>
<path d="M38.1862 240.817L37.9362 240.817" stroke="#303136" stroke-width="4" stroke-linecap="round"/>
<path d="M38.1862 248.817L37.9362 248.817" stroke="#303136" stroke-width="4" stroke-linecap="round"/>
<path d="M57.0612 282.817L19.0612 282.817" stroke="#303136" stroke-width="4" stroke-linecap="round"/>
<path d="M49.0612 292.817L27.0612 292.817" stroke="#303136" stroke-width="4" stroke-linecap="round"/>
<path d="M43.0612 302.817L33.0612 302.817" stroke="#303136" stroke-width="4" stroke-linecap="round"/>
<path d="M49.0612 272.817L27.0612 272.817" stroke="#303136" stroke-width="4" stroke-linecap="round"/>
<path d="M43.0612 262.817L33.0612 262.817" stroke="#303136" stroke-width="4" stroke-linecap="round"/>
<path d="M57.0612 322.817L19.0612 322.817" stroke="#303136" stroke-width="4" stroke-linecap="round"/>
<path d="M49.0612 332.817L27.0612 332.817" stroke="#303136" stroke-width="4" stroke-linecap="round"/>
<path d="M43.0612 342.817L33.0612 342.817" stroke="#303136" stroke-width="4" stroke-linecap="round"/>
<path d="M49.0612 312.817L27.0612 312.817" stroke="#303136" stroke-width="4" stroke-linecap="round"/>
<path d="M43.0612 302.817L33.0612 302.817" stroke="#303136" stroke-width="4" stroke-linecap="round"/>
<path d="M57.0612 362.817L19.0612 362.817" stroke="#303136" stroke-width="4" stroke-linecap="round"/>
<path d="M49.0612 372.817L27.0612 372.817" stroke="#303136" stroke-width="4" stroke-linecap="round"/>
<path d="M43.0612 382.817L33.0612 382.817" stroke="#303136" stroke-width="4" stroke-linecap="round"/>
<path d="M49.0612 352.817L27.0612 352.817" stroke="#303136" stroke-width="4" stroke-linecap="round"/>
<path d="M43.0612 342.817L33.0612 342.817" stroke="#303136" stroke-width="4" stroke-linecap="round"/>
<path d="M79.5291 194.75L80.4167 191.554H81.1843L79.866 195.819H79.1951L77.8796 191.554H78.6472L79.5291 194.75ZM81.6648 194.205C81.6648 193.977 81.698 193.764 81.7644 193.567C81.8328 193.369 81.9294 193.198 82.0544 193.054C82.1814 192.909 82.3357 192.796 82.5173 192.714C82.699 192.632 82.905 192.591 83.1355 192.591C83.3679 192.591 83.575 192.632 83.7566 192.714C83.9402 192.796 84.0945 192.909 84.2195 193.054C84.3464 193.198 84.4431 193.369 84.5095 193.567C84.5759 193.764 84.6091 193.977 84.6091 194.205V194.267C84.6091 194.497 84.5759 194.711 84.5095 194.908C84.4431 195.106 84.3464 195.276 84.2195 195.421C84.0945 195.564 83.9412 195.676 83.7595 195.758C83.5779 195.84 83.3718 195.881 83.1414 195.881C82.9089 195.881 82.7009 195.84 82.5173 195.758C82.3357 195.676 82.1814 195.564 82.0544 195.421C81.9294 195.276 81.8328 195.106 81.7644 194.908C81.698 194.711 81.6648 194.497 81.6648 194.267V194.205ZM82.365 194.267C82.365 194.411 82.3796 194.547 82.4089 194.674C82.4402 194.801 82.4871 194.913 82.5496 195.011C82.614 195.107 82.6951 195.183 82.7927 195.239C82.8904 195.294 83.0066 195.321 83.1414 195.321C83.2722 195.321 83.3855 195.294 83.4812 195.239C83.5789 195.183 83.6589 195.107 83.7214 195.011C83.7859 194.913 83.8328 194.801 83.8621 194.674C83.8933 194.547 83.9089 194.411 83.9089 194.267V194.205C83.9089 194.065 83.8933 193.931 83.8621 193.804C83.8328 193.677 83.7859 193.566 83.7214 193.47C83.6589 193.374 83.5789 193.298 83.4812 193.241C83.3855 193.185 83.2703 193.156 83.1355 193.156C83.0027 193.156 82.8875 193.185 82.7898 193.241C82.6921 193.298 82.6121 193.374 82.5496 193.47C82.4871 193.566 82.4402 193.677 82.4089 193.804C82.3796 193.931 82.365 194.065 82.365 194.205V194.267ZM85.5496 192.65H87.24V195.239H88.1804V195.819H85.5496V195.239H86.5339V193.233H85.5496V192.65ZM86.4753 191.829C86.4753 191.72 86.5105 191.63 86.5808 191.56C86.6511 191.487 86.7498 191.451 86.8767 191.451C87.0056 191.451 87.1052 191.487 87.1755 191.56C87.2478 191.63 87.2839 191.72 87.2839 191.829C87.2839 191.939 87.2478 192.029 87.1755 192.102C87.1052 192.172 87.0056 192.207 86.8767 192.207C86.7498 192.207 86.6511 192.172 86.5808 192.102C86.5105 192.029 86.4753 191.939 86.4753 191.829ZM90.3865 195.321C90.4724 195.321 90.5554 195.308 90.6355 195.28C90.7175 195.253 90.7898 195.215 90.8523 195.166C90.9148 195.117 90.9636 195.06 90.9988 194.993C91.0359 194.927 91.0535 194.855 91.0515 194.776H91.7136C91.7156 194.929 91.6804 195.072 91.6082 195.207C91.5378 195.34 91.4412 195.456 91.3181 195.556C91.197 195.655 91.0564 195.734 90.8962 195.793C90.7361 195.852 90.5681 195.881 90.3923 195.881C90.1482 195.881 89.9343 195.839 89.7507 195.755C89.5671 195.671 89.4138 195.557 89.2908 195.412C89.1677 195.266 89.075 195.097 89.0125 194.905C88.9519 194.712 88.9216 194.507 88.9216 194.29V194.185C88.9216 193.968 88.9519 193.763 89.0125 193.569C89.075 193.376 89.1677 193.207 89.2908 193.063C89.4138 192.918 89.5671 192.804 89.7507 192.72C89.9343 192.634 90.1472 192.591 90.3894 192.591C90.5808 192.591 90.7576 192.62 90.9197 192.679C91.0837 192.737 91.2244 192.819 91.3416 192.925C91.4607 193.03 91.5525 193.156 91.6169 193.303C91.6833 193.449 91.7156 193.609 91.7136 193.783H91.0515C91.0535 193.697 91.0378 193.616 91.0046 193.54C90.9734 193.464 90.9275 193.398 90.8669 193.341C90.8064 193.284 90.7351 193.239 90.6531 193.206C90.571 193.173 90.4812 193.156 90.3835 193.156C90.2371 193.156 90.115 193.187 90.0173 193.247C89.9197 193.306 89.8416 193.384 89.783 193.482C89.7244 193.577 89.6824 193.687 89.657 193.81C89.6335 193.933 89.6218 194.058 89.6218 194.185V194.29C89.6218 194.419 89.6335 194.545 89.657 194.668C89.6824 194.791 89.7244 194.901 89.783 194.999C89.8416 195.095 89.9197 195.173 90.0173 195.234C90.115 195.292 90.238 195.321 90.3865 195.321ZM94.0808 195.878C93.8464 195.878 93.6326 195.839 93.4392 195.761C93.2458 195.683 93.0798 195.575 92.9412 195.439C92.8044 195.302 92.698 195.141 92.6218 194.955C92.5457 194.768 92.5076 194.566 92.5076 194.349V194.229C92.5076 193.977 92.5476 193.75 92.6277 193.549C92.7097 193.348 92.8181 193.176 92.9529 193.033C93.0896 192.891 93.2478 192.781 93.4275 192.705C93.6091 192.629 93.7996 192.591 93.9988 192.591C94.2292 192.591 94.4324 192.63 94.6082 192.708C94.7839 192.784 94.9304 192.893 95.0476 193.033C95.1667 193.172 95.2566 193.337 95.3171 193.528C95.3777 193.72 95.408 193.93 95.408 194.158V194.454H93.2107C93.2224 194.577 93.2527 194.692 93.3015 194.797C93.3503 194.902 93.4138 194.994 93.4919 195.072C93.572 195.149 93.6648 195.209 93.7703 195.254C93.8777 195.297 93.9949 195.318 94.1218 195.318C94.2996 195.318 94.4626 195.283 94.6111 195.213C94.7615 195.143 94.8835 195.046 94.9773 194.923L95.3582 195.28C95.3074 195.357 95.2419 195.431 95.1619 195.503C95.0818 195.573 94.988 195.637 94.8806 195.693C94.7732 195.748 94.6521 195.792 94.5173 195.825C94.3845 195.86 94.239 195.878 94.0808 195.878ZM93.9958 193.156C93.8982 193.156 93.8074 193.174 93.7234 193.209C93.6394 193.244 93.5642 193.296 93.4978 193.364C93.4314 193.431 93.3748 193.513 93.3279 193.61C93.283 193.706 93.2507 193.816 93.2312 193.939H94.7166V193.886C94.7107 193.792 94.6921 193.702 94.6609 193.616C94.6316 193.528 94.5876 193.45 94.5291 193.382C94.4705 193.314 94.3962 193.259 94.3064 193.218C94.2185 193.177 94.115 193.156 93.9958 193.156ZM98.8298 194.232H96.4832V193.666H98.8298V194.232ZM101.215 191.882V192.65H102.413V193.171H101.215V194.692C101.215 194.811 101.228 194.909 101.256 194.987C101.285 195.066 101.325 195.128 101.376 195.175C101.427 195.222 101.486 195.255 101.554 195.275C101.623 195.292 101.698 195.301 101.78 195.301C101.841 195.301 101.903 195.298 101.968 195.292C102.034 195.284 102.097 195.276 102.158 195.269C102.22 195.259 102.277 195.249 102.328 195.239C102.381 195.228 102.425 195.217 102.46 195.207L102.539 195.691C102.488 195.72 102.427 195.747 102.354 195.773C102.284 195.796 102.207 195.816 102.123 195.831C102.039 195.847 101.951 195.859 101.859 195.866C101.769 195.876 101.68 195.881 101.593 195.881C101.434 195.881 101.289 195.859 101.156 195.817C101.025 195.772 100.912 195.703 100.816 195.611C100.722 195.518 100.648 195.399 100.594 195.254C100.541 195.108 100.514 194.933 100.514 194.73V193.171H99.741V192.65H100.514V191.882H101.215ZM103.286 194.205C103.286 193.977 103.319 193.764 103.385 193.567C103.454 193.369 103.551 193.198 103.676 193.054C103.802 192.909 103.957 192.796 104.138 192.714C104.32 192.632 104.526 192.591 104.757 192.591C104.989 192.591 105.196 192.632 105.378 192.714C105.561 192.796 105.716 192.909 105.841 193.054C105.968 193.198 106.064 193.369 106.131 193.567C106.197 193.764 106.23 193.977 106.23 194.205V194.267C106.23 194.497 106.197 194.711 106.131 194.908C106.064 195.106 105.968 195.276 105.841 195.421C105.716 195.564 105.562 195.676 105.381 195.758C105.199 195.84 104.993 195.881 104.762 195.881C104.53 195.881 104.322 195.84 104.138 195.758C103.957 195.676 103.802 195.564 103.676 195.421C103.551 195.276 103.454 195.106 103.385 194.908C103.319 194.711 103.286 194.497 103.286 194.267V194.205ZM103.986 194.267C103.986 194.411 104.001 194.547 104.03 194.674C104.061 194.801 104.108 194.913 104.171 195.011C104.235 195.107 104.316 195.183 104.414 195.239C104.511 195.294 104.628 195.321 104.762 195.321C104.893 195.321 105.007 195.294 105.102 195.239C105.2 195.183 105.28 195.107 105.343 195.011C105.407 194.913 105.454 194.801 105.483 194.674C105.514 194.547 105.53 194.411 105.53 194.267V194.205C105.53 194.065 105.514 193.931 105.483 193.804C105.454 193.677 105.407 193.566 105.343 193.47C105.28 193.374 105.2 193.298 105.102 193.241C105.007 193.185 104.891 193.156 104.757 193.156C104.624 193.156 104.509 193.185 104.411 193.241C104.313 193.298 104.233 193.374 104.171 193.47C104.108 193.566 104.061 193.677 104.03 193.804C104.001 193.931 103.986 194.065 103.986 194.205V194.267ZM109.64 194.232H107.294V193.666H109.64V194.232ZM111.961 194.75L112.848 191.554H113.616L112.298 195.819H111.627L110.311 191.554H111.079L111.961 194.75ZM114.096 194.205C114.096 193.977 114.13 193.764 114.196 193.567C114.264 193.369 114.361 193.198 114.486 193.054C114.613 192.909 114.767 192.796 114.949 192.714C115.131 192.632 115.337 192.591 115.567 192.591C115.8 192.591 116.007 192.632 116.188 192.714C116.372 192.796 116.526 192.909 116.651 193.054C116.778 193.198 116.875 193.369 116.941 193.567C117.008 193.764 117.041 193.977 117.041 194.205V194.267C117.041 194.497 117.008 194.711 116.941 194.908C116.875 195.106 116.778 195.276 116.651 195.421C116.526 195.564 116.373 195.676 116.191 195.758C116.01 195.84 115.803 195.881 115.573 195.881C115.341 195.881 115.133 195.84 114.949 195.758C114.767 195.676 114.613 195.564 114.486 195.421C114.361 195.276 114.264 195.106 114.196 194.908C114.13 194.711 114.096 194.497 114.096 194.267V194.205ZM114.797 194.267C114.797 194.411 114.811 194.547 114.841 194.674C114.872 194.801 114.919 194.913 114.981 195.011C115.046 195.107 115.127 195.183 115.224 195.239C115.322 195.294 115.438 195.321 115.573 195.321C115.704 195.321 115.817 195.294 115.913 195.239C116.01 195.183 116.091 195.107 116.153 195.011C116.218 194.913 116.264 194.801 116.294 194.674C116.325 194.547 116.341 194.411 116.341 194.267V194.205C116.341 194.065 116.325 193.931 116.294 193.804C116.264 193.677 116.218 193.566 116.153 193.47C116.091 193.374 116.01 193.298 115.913 193.241C115.817 193.185 115.702 193.156 115.567 193.156C115.434 193.156 115.319 193.185 115.221 193.241C115.124 193.298 115.044 193.374 114.981 193.47C114.919 193.566 114.872 193.677 114.841 193.804C114.811 193.931 114.797 194.065 114.797 194.205V194.267ZM117.981 192.65H119.672V195.239H120.612V195.819H117.981V195.239H118.966V193.233H117.981V192.65ZM118.907 191.829C118.907 191.72 118.942 191.63 119.012 191.56C119.083 191.487 119.181 191.451 119.308 191.451C119.437 191.451 119.537 191.487 119.607 191.56C119.679 191.63 119.716 191.72 119.716 191.829C119.716 191.939 119.679 192.029 119.607 192.102C119.537 192.172 119.437 192.207 119.308 192.207C119.181 192.207 119.083 192.172 119.012 192.102C118.942 192.029 118.907 191.939 118.907 191.829ZM122.818 195.321C122.904 195.321 122.987 195.308 123.067 195.28C123.149 195.253 123.221 195.215 123.284 195.166C123.346 195.117 123.395 195.06 123.43 194.993C123.468 194.927 123.485 194.855 123.483 194.776H124.145C124.147 194.929 124.112 195.072 124.04 195.207C123.969 195.34 123.873 195.456 123.75 195.556C123.629 195.655 123.488 195.734 123.328 195.793C123.168 195.852 123 195.881 122.824 195.881C122.58 195.881 122.366 195.839 122.182 195.755C121.999 195.671 121.845 195.557 121.722 195.412C121.599 195.266 121.507 195.097 121.444 194.905C121.384 194.712 121.353 194.507 121.353 194.29V194.185C121.353 193.968 121.384 193.763 121.444 193.569C121.507 193.376 121.599 193.207 121.722 193.063C121.845 192.918 121.999 192.804 122.182 192.72C122.366 192.634 122.579 192.591 122.821 192.591C123.012 192.591 123.189 192.62 123.351 192.679C123.515 192.737 123.656 192.819 123.773 192.925C123.892 193.03 123.984 193.156 124.049 193.303C124.115 193.449 124.147 193.609 124.145 193.783H123.483C123.485 193.697 123.469 193.616 123.436 193.54C123.405 193.464 123.359 193.398 123.299 193.341C123.238 193.284 123.167 193.239 123.085 193.206C123.003 193.173 122.913 193.156 122.815 193.156C122.669 193.156 122.547 193.187 122.449 193.247C122.351 193.306 122.273 193.384 122.215 193.482C122.156 193.577 122.114 193.687 122.089 193.81C122.065 193.933 122.053 194.058 122.053 194.185V194.29C122.053 194.419 122.065 194.545 122.089 194.668C122.114 194.791 122.156 194.901 122.215 194.999C122.273 195.095 122.351 195.173 122.449 195.234C122.547 195.292 122.67 195.321 122.818 195.321ZM126.512 195.878C126.278 195.878 126.064 195.839 125.871 195.761C125.677 195.683 125.511 195.575 125.373 195.439C125.236 195.302 125.13 195.141 125.053 194.955C124.977 194.768 124.939 194.566 124.939 194.349V194.229C124.939 193.977 124.979 193.75 125.059 193.549C125.141 193.348 125.25 193.176 125.385 193.033C125.521 192.891 125.679 192.781 125.859 192.705C126.041 192.629 126.231 192.591 126.43 192.591C126.661 192.591 126.864 192.63 127.04 192.708C127.216 192.784 127.362 192.893 127.479 193.033C127.598 193.172 127.688 193.337 127.749 193.528C127.809 193.72 127.84 193.93 127.84 194.158V194.454H125.642C125.654 194.577 125.684 194.692 125.733 194.797C125.782 194.902 125.845 194.994 125.924 195.072C126.004 195.149 126.096 195.209 126.202 195.254C126.309 195.297 126.427 195.318 126.553 195.318C126.731 195.318 126.894 195.283 127.043 195.213C127.193 195.143 127.315 195.046 127.409 194.923L127.79 195.28C127.739 195.357 127.674 195.431 127.594 195.503C127.513 195.573 127.42 195.637 127.312 195.693C127.205 195.748 127.084 195.792 126.949 195.825C126.816 195.86 126.671 195.878 126.512 195.878ZM126.427 193.156C126.33 193.156 126.239 193.174 126.155 193.209C126.071 193.244 125.996 193.296 125.929 193.364C125.863 193.431 125.806 193.513 125.76 193.61C125.715 193.706 125.682 193.816 125.663 193.939H127.148V193.886C127.142 193.792 127.124 193.702 127.093 193.616C127.063 193.528 127.019 193.45 126.961 193.382C126.902 193.314 126.828 193.259 126.738 193.218C126.65 193.177 126.547 193.156 126.427 193.156ZM78.3191 199.319H80.033V203.239H80.9998V203.819H78.3191V203.239H79.3269V199.902H78.3191V199.319ZM83.8152 203.819C83.7957 203.78 83.7791 203.734 83.7654 203.682C83.7537 203.629 83.7429 203.572 83.7332 203.512C83.6843 203.563 83.6287 203.61 83.5662 203.655C83.5056 203.698 83.4373 203.736 83.3611 203.77C83.2869 203.803 83.2058 203.829 83.1179 203.849C83.032 203.868 82.9392 203.878 82.8396 203.878C82.6716 203.878 82.5193 203.855 82.3826 203.808C82.2478 203.759 82.1316 203.693 82.0339 203.609C81.9382 203.523 81.864 203.422 81.8113 203.307C81.7585 203.192 81.7322 203.067 81.7322 202.932C81.7322 202.592 81.8582 202.332 82.1101 202.152C82.364 201.973 82.7273 201.883 83.2 201.883H83.7126V201.675C83.7126 201.507 83.656 201.374 83.5427 201.276C83.4294 201.177 83.2693 201.127 83.0623 201.127C82.9685 201.127 82.8865 201.139 82.8162 201.162C82.7458 201.184 82.6873 201.214 82.6404 201.253C82.5935 201.292 82.5583 201.338 82.5349 201.391C82.5115 201.443 82.4998 201.5 82.4998 201.561H81.7996C81.7996 201.438 81.8279 201.318 81.8845 201.203C81.9431 201.086 82.0281 200.983 82.1394 200.893C82.2507 200.801 82.3865 200.728 82.5466 200.673C82.7087 200.618 82.8933 200.591 83.1003 200.591C83.2878 200.591 83.4617 200.614 83.6218 200.661C83.782 200.706 83.9207 200.775 84.0378 200.866C84.155 200.956 84.2468 201.069 84.3132 201.206C84.3796 201.341 84.4128 201.499 84.4128 201.681V203.093C84.4128 203.232 84.4226 203.359 84.4421 203.474C84.4636 203.587 84.4939 203.686 84.533 203.77V203.819H83.8152ZM82.9714 203.313C83.0613 203.313 83.1453 203.302 83.2234 203.28C83.3035 203.257 83.3748 203.228 83.4373 203.193C83.5017 203.155 83.5564 203.113 83.6013 203.067C83.6482 203.02 83.6853 202.972 83.7126 202.923V202.328H83.2673C82.9822 202.328 82.7712 202.374 82.6345 202.466C82.4998 202.558 82.4324 202.689 82.4324 202.859C82.4324 202.923 82.4431 202.984 82.4646 203.04C82.4861 203.095 82.5183 203.143 82.5613 203.184C82.6062 203.223 82.6619 203.254 82.7283 203.277C82.7966 203.301 82.8777 203.313 82.9714 203.313ZM86.8005 199.882V200.65H87.9988V201.171H86.8005V202.692C86.8005 202.811 86.8142 202.909 86.8416 202.987C86.8708 203.066 86.9109 203.128 86.9617 203.175C87.0125 203.222 87.072 203.255 87.1404 203.275C87.2087 203.292 87.2839 203.301 87.366 203.301C87.4265 203.301 87.489 203.298 87.5535 203.292C87.6199 203.284 87.6833 203.276 87.7439 203.269C87.8064 203.259 87.863 203.249 87.9138 203.239C87.9666 203.228 88.0105 203.217 88.0457 203.207L88.1248 203.691C88.074 203.72 88.0125 203.747 87.9402 203.773C87.8699 203.796 87.7927 203.816 87.7087 203.831C87.6248 203.847 87.5369 203.859 87.4451 203.866C87.3552 203.876 87.2664 203.881 87.1785 203.881C87.0203 203.881 86.8748 203.859 86.7419 203.817C86.6111 203.772 86.4978 203.703 86.4021 203.611C86.3083 203.518 86.2341 203.399 86.1794 203.254C86.1267 203.108 86.1003 202.933 86.1003 202.73V201.171H85.3269V200.65H86.1003V199.882H86.8005ZM90.4773 203.878C90.2429 203.878 90.0291 203.839 89.8357 203.761C89.6423 203.683 89.4763 203.575 89.3376 203.439C89.2009 203.302 89.0945 203.141 89.0183 202.955C88.9421 202.768 88.9041 202.566 88.9041 202.349V202.229C88.9041 201.977 88.9441 201.75 89.0242 201.549C89.1062 201.348 89.2146 201.176 89.3494 201.033C89.4861 200.891 89.6443 200.781 89.824 200.705C90.0056 200.629 90.196 200.591 90.3953 200.591C90.6257 200.591 90.8289 200.63 91.0046 200.708C91.1804 200.784 91.3269 200.893 91.4441 201.033C91.5632 201.172 91.6531 201.337 91.7136 201.528C91.7742 201.72 91.8044 201.93 91.8044 202.158V202.454H89.6072C89.6189 202.577 89.6492 202.692 89.698 202.797C89.7468 202.902 89.8103 202.994 89.8884 203.072C89.9685 203.149 90.0613 203.209 90.1667 203.254C90.2742 203.297 90.3914 203.318 90.5183 203.318C90.696 203.318 90.8591 203.283 91.0076 203.213C91.158 203.143 91.28 203.046 91.3738 202.923L91.7546 203.28C91.7039 203.357 91.6384 203.431 91.5583 203.503C91.4783 203.573 91.3845 203.637 91.2771 203.693C91.1697 203.748 91.0486 203.792 90.9138 203.825C90.781 203.86 90.6355 203.878 90.4773 203.878ZM90.3923 201.156C90.2947 201.156 90.2039 201.174 90.1199 201.209C90.0359 201.244 89.9607 201.296 89.8943 201.364C89.8279 201.431 89.7712 201.513 89.7244 201.61C89.6794 201.706 89.6472 201.816 89.6277 201.939H91.113V201.886C91.1072 201.792 91.0886 201.702 91.0574 201.616C91.0281 201.528 90.9841 201.45 90.9255 201.382C90.8669 201.314 90.7927 201.259 90.7029 201.218C90.615 201.177 90.5115 201.156 90.3923 201.156ZM93.2371 200.65L93.281 201.089C93.3962 200.931 93.5349 200.809 93.697 200.723C93.8611 200.635 94.0427 200.591 94.2419 200.591C94.4041 200.591 94.5515 200.614 94.6843 200.661C94.8191 200.708 94.9343 200.781 95.03 200.881C95.1277 200.981 95.2029 201.109 95.2556 201.268C95.3103 201.426 95.3376 201.616 95.3376 201.839V203.819H94.6375V201.851C94.6375 201.72 94.6218 201.61 94.5906 201.523C94.5613 201.435 94.5183 201.364 94.4617 201.312C94.407 201.259 94.3396 201.222 94.2595 201.2C94.1794 201.177 94.0886 201.165 93.9871 201.165C93.8328 201.165 93.698 201.199 93.5828 201.268C93.4695 201.336 93.3777 201.429 93.3074 201.546V203.819H92.6042V200.65H93.2371ZM97.5935 203.321C97.6794 203.321 97.7625 203.308 97.8425 203.28C97.9246 203.253 97.9968 203.215 98.0593 203.166C98.1218 203.117 98.1707 203.06 98.2058 202.993C98.2429 202.927 98.2605 202.855 98.2585 202.776H98.9207C98.9226 202.929 98.8875 203.072 98.8152 203.207C98.7449 203.34 98.6482 203.456 98.5251 203.556C98.4041 203.655 98.2634 203.734 98.1033 203.793C97.9431 203.852 97.7751 203.881 97.5994 203.881C97.3552 203.881 97.1414 203.839 96.9578 203.755C96.7742 203.671 96.6208 203.557 96.4978 203.412C96.3748 203.266 96.282 203.097 96.2195 202.905C96.1589 202.712 96.1287 202.507 96.1287 202.29V202.185C96.1287 201.968 96.1589 201.763 96.2195 201.569C96.282 201.376 96.3748 201.207 96.4978 201.063C96.6208 200.918 96.7742 200.804 96.9578 200.72C97.1414 200.634 97.3542 200.591 97.5964 200.591C97.7878 200.591 97.9646 200.62 98.1267 200.679C98.2908 200.737 98.4314 200.819 98.5486 200.925C98.6677 201.03 98.7595 201.156 98.824 201.303C98.8904 201.449 98.9226 201.609 98.9207 201.783H98.2585C98.2605 201.697 98.2449 201.616 98.2117 201.54C98.1804 201.464 98.1345 201.398 98.074 201.341C98.0134 201.284 97.9421 201.239 97.8601 201.206C97.7781 201.173 97.6882 201.156 97.5906 201.156C97.4441 201.156 97.322 201.187 97.2244 201.247C97.1267 201.306 97.0486 201.384 96.99 201.482C96.9314 201.577 96.8894 201.687 96.864 201.81C96.8406 201.933 96.8289 202.058 96.8289 202.185V202.29C96.8289 202.419 96.8406 202.545 96.864 202.668C96.8894 202.791 96.9314 202.901 96.99 202.999C97.0486 203.095 97.1267 203.173 97.2244 203.234C97.322 203.292 97.4451 203.321 97.5935 203.321ZM101.068 202.551L101.188 202.932L102.079 200.65H102.855L101.25 204.3C101.215 204.38 101.169 204.466 101.112 204.558C101.055 204.651 100.985 204.738 100.901 204.818C100.819 204.899 100.72 204.965 100.605 205.018C100.49 205.072 100.355 205.1 100.201 205.1C100.136 205.1 100.071 205.094 100.005 205.082C99.9402 205.072 99.8826 205.061 99.8318 205.047L99.9314 204.502C99.9451 204.502 99.9636 204.502 99.9871 204.502C100.01 204.504 100.035 204.506 100.06 204.508C100.086 204.51 100.109 204.511 100.131 204.511C100.154 204.513 100.173 204.514 100.186 204.514C100.255 204.514 100.315 204.493 100.368 204.452C100.423 204.413 100.47 204.367 100.511 204.315C100.552 204.264 100.586 204.213 100.611 204.162C100.638 204.113 100.658 204.08 100.67 204.063L100.878 203.67L99.53 200.65H100.303L101.068 202.551Z" fill="#303136"/>
<path d="M82.9189 20.9039H81.1641V22.2428H83.2178V22.817H80.458V18.5514H83.1973V19.1314H81.1641V20.3355H82.9189V20.9039ZM85.4268 20.7193L86.1826 19.6471H86.9619L85.8428 21.2086L86.9971 22.817H86.2207L85.4355 21.7066L84.6533 22.817H83.8711L85.0254 21.2086L83.9062 19.6471H84.6826L85.4268 20.7193ZM90.4189 21.2642C90.4189 21.4947 90.3916 21.7086 90.3369 21.9058C90.2822 22.1031 90.2021 22.274 90.0967 22.4185C89.9912 22.5611 89.8613 22.6734 89.707 22.7555C89.5547 22.8355 89.3789 22.8756 89.1797 22.8756C89 22.8756 88.8408 22.8463 88.7021 22.7877C88.5654 22.7291 88.4473 22.6451 88.3477 22.5357V24.0357H87.6475V19.6471H88.292L88.3213 19.9664C88.4229 19.8453 88.543 19.7525 88.6816 19.6881C88.8223 19.6217 88.9854 19.5885 89.1709 19.5885C89.3721 19.5885 89.5498 19.6275 89.7041 19.7057C89.8604 19.7838 89.9912 19.8941 90.0967 20.0367C90.2021 20.1773 90.2822 20.3473 90.3369 20.5465C90.3916 20.7437 90.4189 20.9625 90.4189 21.2027V21.2642ZM89.7188 21.2027C89.7188 21.0601 89.7041 20.9264 89.6748 20.8014C89.6455 20.6744 89.6006 20.564 89.54 20.4703C89.4795 20.3746 89.4023 20.2994 89.3086 20.2447C89.2148 20.19 89.1035 20.1627 88.9746 20.1627C88.8184 20.1627 88.6895 20.1959 88.5879 20.2623C88.4863 20.3287 88.4062 20.4176 88.3477 20.5289V21.9469C88.4062 22.0562 88.4854 22.1451 88.585 22.2135C88.6865 22.2818 88.8184 22.316 88.9805 22.316C89.1094 22.316 89.2207 22.2877 89.3145 22.231C89.4082 22.1744 89.4844 22.0982 89.543 22.0025C89.6035 21.9068 89.6475 21.7955 89.6748 21.6685C89.7041 21.5416 89.7188 21.4068 89.7188 21.2642V21.2027ZM91.377 18.317H93.0908V22.2369H94.0576V22.817L91.377 22.817V22.2369H92.3848V18.9H91.377V18.317ZM96.873 22.817C96.8535 22.7779 96.8369 22.732 96.8232 22.6793C96.8115 22.6265 96.8008 22.5699 96.791 22.5094C96.7422 22.5601 96.6865 22.608 96.624 22.6529C96.5635 22.6959 96.4951 22.734 96.4189 22.7672C96.3447 22.8004 96.2637 22.8267 96.1758 22.8463C96.0898 22.8658 95.9971 22.8756 95.8975 22.8756C95.7295 22.8756 95.5771 22.8521 95.4404 22.8053C95.3057 22.7564 95.1895 22.69 95.0918 22.606C94.9961 22.5201 94.9219 22.4195 94.8691 22.3043C94.8164 22.189 94.79 22.064 94.79 21.9293C94.79 21.5894 94.916 21.3297 95.168 21.15C95.4219 20.9703 95.7852 20.8805 96.2578 20.8805H96.7705V20.6724C96.7705 20.5045 96.7139 20.3717 96.6006 20.274C96.4873 20.1744 96.3271 20.1246 96.1201 20.1246C96.0264 20.1246 95.9443 20.1363 95.874 20.1598C95.8037 20.1812 95.7451 20.2115 95.6982 20.2506C95.6514 20.2896 95.6162 20.3355 95.5928 20.3883C95.5693 20.441 95.5576 20.4976 95.5576 20.5582H94.8574C94.8574 20.4351 94.8857 20.316 94.9424 20.2008C95.001 20.0836 95.0859 19.9801 95.1973 19.8902C95.3086 19.7984 95.4443 19.7252 95.6045 19.6705C95.7666 19.6158 95.9512 19.5885 96.1582 19.5885C96.3457 19.5885 96.5195 19.6119 96.6797 19.6588C96.8398 19.7037 96.9785 19.7721 97.0957 19.8639C97.2129 19.9537 97.3047 20.067 97.3711 20.2037C97.4375 20.3385 97.4707 20.4967 97.4707 20.6783V22.0904C97.4707 22.2291 97.4805 22.356 97.5 22.4713C97.5215 22.5846 97.5518 22.6832 97.5908 22.7672V22.817H96.873ZM96.0293 22.3101C96.1191 22.3101 96.2031 22.2994 96.2812 22.2779C96.3613 22.2545 96.4326 22.2252 96.4951 22.19C96.5596 22.1529 96.6143 22.1109 96.6592 22.064C96.7061 22.0172 96.7432 21.9693 96.7705 21.9205V21.3258H96.3252C96.04 21.3258 95.8291 21.3717 95.6924 21.4635C95.5576 21.5553 95.4902 21.6861 95.4902 21.856C95.4902 21.9205 95.501 21.981 95.5225 22.0377C95.5439 22.0924 95.5762 22.1402 95.6191 22.1812C95.6641 22.2203 95.7197 22.2515 95.7861 22.275C95.8545 22.2984 95.9355 22.3101 96.0293 22.3101ZM98.6074 19.6471H100.298V22.2369H101.238V22.817H98.6074V22.2369H99.5918V20.2301H98.6074V19.6471ZM99.5332 18.8267C99.5332 18.7174 99.5684 18.6275 99.6387 18.5572C99.709 18.4849 99.8076 18.4488 99.9346 18.4488C100.063 18.4488 100.163 18.4849 100.233 18.5572C100.306 18.6275 100.342 18.7174 100.342 18.8267C100.342 18.9361 100.306 19.0269 100.233 19.0992C100.163 19.1695 100.063 19.2047 99.9346 19.2047C99.8076 19.2047 99.709 19.1695 99.6387 19.0992C99.5684 19.0269 99.5332 18.9361 99.5332 18.8267ZM102.691 19.6471L102.735 20.0865C102.851 19.9283 102.989 19.8062 103.151 19.7203C103.315 19.6324 103.497 19.5885 103.696 19.5885C103.858 19.5885 104.006 19.6119 104.139 19.6588C104.273 19.7057 104.389 19.7789 104.484 19.8785C104.582 19.9781 104.657 20.107 104.71 20.2652C104.765 20.4234 104.792 20.6139 104.792 20.8365V22.817H104.092V20.8482C104.092 20.7174 104.076 20.608 104.045 20.5201C104.016 20.4322 103.973 20.3619 103.916 20.3092C103.861 20.2564 103.794 20.2193 103.714 20.1978C103.634 20.1744 103.543 20.1627 103.441 20.1627C103.287 20.1627 103.152 20.1969 103.037 20.2652C102.924 20.3336 102.832 20.4264 102.762 20.5435V22.817H102.059V19.6471H102.691ZM81.8408 46.8795V47.6471H83.0391V48.1685H81.8408V49.689C81.8408 49.8082 81.8545 49.9068 81.8818 49.9849C81.9111 50.0631 81.9512 50.1256 82.002 50.1724C82.0527 50.2193 82.1123 50.2525 82.1807 50.2721C82.249 50.2896 82.3242 50.2984 82.4062 50.2984C82.4668 50.2984 82.5293 50.2955 82.5938 50.2896C82.6602 50.2818 82.7236 50.274 82.7842 50.2662C82.8467 50.2564 82.9033 50.2467 82.9541 50.2369C83.0068 50.2252 83.0508 50.2144 83.0859 50.2047L83.165 50.6881C83.1143 50.7174 83.0527 50.7447 82.9805 50.7701C82.9102 50.7935 82.833 50.8131 82.749 50.8287C82.665 50.8443 82.5771 50.856 82.4854 50.8639C82.3955 50.8736 82.3066 50.8785 82.2188 50.8785C82.0605 50.8785 81.915 50.857 81.7822 50.814C81.6514 50.7691 81.5381 50.7008 81.4424 50.609C81.3486 50.5152 81.2744 50.3961 81.2197 50.2515C81.167 50.1051 81.1406 49.9303 81.1406 49.7271V48.1685H80.3672V47.6471H81.1406V46.8795H81.8408ZM84.7412 48.0865C84.8506 47.9303 84.9834 47.8082 85.1396 47.7203C85.2979 47.6324 85.4736 47.5885 85.667 47.5885C85.8311 47.5885 85.9814 47.6129 86.1182 47.6617C86.2568 47.7105 86.375 47.7867 86.4727 47.8902C86.5703 47.9918 86.6465 48.1236 86.7012 48.2857C86.7559 48.4459 86.7832 48.6383 86.7832 48.8629V50.817H86.083V48.857C86.083 48.7359 86.0674 48.6324 86.0361 48.5465C86.0068 48.4586 85.9639 48.3863 85.9072 48.3297C85.8525 48.273 85.7852 48.231 85.7051 48.2037C85.625 48.1764 85.5342 48.1627 85.4326 48.1627C85.2803 48.1627 85.1455 48.1949 85.0283 48.2594C84.9111 48.3219 84.8154 48.4068 84.7412 48.5142V50.817H84.041V46.317H84.7412V48.0865ZM89.1211 50.8756C88.8867 50.8756 88.6729 50.8365 88.4795 50.7584C88.2861 50.6803 88.1201 50.5728 87.9814 50.4361C87.8447 50.2994 87.7383 50.1383 87.6621 49.9527C87.5859 49.7652 87.5479 49.5631 87.5479 49.3463V49.2262C87.5479 48.9742 87.5879 48.7476 87.668 48.5465C87.75 48.3453 87.8584 48.1734 87.9932 48.0308C88.1299 47.8883 88.2881 47.7789 88.4678 47.7027C88.6494 47.6265 88.8398 47.5885 89.0391 47.5885C89.2695 47.5885 89.4727 47.6275 89.6484 47.7057C89.8242 47.7818 89.9707 47.8902 90.0879 48.0308C90.207 48.1695 90.2969 48.3346 90.3574 48.526C90.418 48.7174 90.4482 48.9273 90.4482 49.1558V49.4517H88.251C88.2627 49.5748 88.293 49.689 88.3418 49.7945C88.3906 49.9 88.4541 49.9918 88.5322 50.0699C88.6123 50.1461 88.7051 50.2066 88.8105 50.2515C88.918 50.2945 89.0352 50.316 89.1621 50.316C89.3398 50.316 89.5029 50.2808 89.6514 50.2105C89.8018 50.1402 89.9238 50.0435 90.0176 49.9205L90.3984 50.2779C90.3477 50.3541 90.2822 50.4283 90.2021 50.5006C90.1221 50.5709 90.0283 50.6344 89.9209 50.691C89.8135 50.7457 89.6924 50.7896 89.5576 50.8228C89.4248 50.858 89.2793 50.8756 89.1211 50.8756ZM89.0361 48.1539C88.9385 48.1539 88.8477 48.1715 88.7637 48.2066C88.6797 48.2418 88.6045 48.2935 88.5381 48.3619C88.4717 48.4283 88.415 48.5103 88.3682 48.608C88.3232 48.7037 88.291 48.8131 88.2715 48.9361H89.7568V48.8834C89.751 48.7896 89.7324 48.6998 89.7012 48.6139C89.6719 48.526 89.6279 48.4478 89.5693 48.3795C89.5107 48.3111 89.4365 48.2564 89.3467 48.2154C89.2588 48.1744 89.1553 48.1539 89.0361 48.1539ZM81.8408 74.8795V75.6471H83.0391V76.1685H81.8408V77.689C81.8408 77.8082 81.8545 77.9068 81.8818 77.9849C81.9111 78.0631 81.9512 78.1256 82.002 78.1724C82.0527 78.2193 82.1123 78.2525 82.1807 78.2721C82.249 78.2896 82.3242 78.2984 82.4063 78.2984C82.4668 78.2984 82.5293 78.2955 82.5938 78.2896C82.6602 78.2818 82.7236 78.274 82.7842 78.2662C82.8467 78.2564 82.9033 78.2467 82.9541 78.2369C83.0068 78.2252 83.0508 78.2144 83.0859 78.2047L83.165 78.6881C83.1143 78.7174 83.0527 78.7447 82.9805 78.7701C82.9102 78.7935 82.833 78.8131 82.749 78.8287C82.665 78.8443 82.5771 78.856 82.4854 78.8639C82.3955 78.8736 82.3066 78.8785 82.2188 78.8785C82.0605 78.8785 81.915 78.857 81.7822 78.814C81.6514 78.7691 81.5381 78.7008 81.4424 78.609C81.3486 78.5152 81.2744 78.3961 81.2197 78.2515C81.167 78.1051 81.1406 77.9303 81.1406 77.7271V76.1685H80.3672V75.6471H81.1406V74.8795H81.8408ZM84.7412 76.0865C84.8506 75.9303 84.9834 75.8082 85.1396 75.7203C85.2979 75.6324 85.4736 75.5885 85.667 75.5885C85.8311 75.5885 85.9814 75.6129 86.1182 75.6617C86.2568 75.7105 86.375 75.7867 86.4727 75.8902C86.5703 75.9918 86.6465 76.1236 86.7012 76.2857C86.7559 76.4459 86.7832 76.6383 86.7832 76.8629V78.817H86.083V76.857C86.083 76.7359 86.0674 76.6324 86.0361 76.5465C86.0068 76.4586 85.9639 76.3863 85.9072 76.3297C85.8525 76.273 85.7852 76.231 85.7051 76.2037C85.625 76.1764 85.5342 76.1627 85.4326 76.1627C85.2803 76.1627 85.1455 76.1949 85.0283 76.2594C84.9111 76.3219 84.8154 76.4068 84.7412 76.5142V78.817H84.041V74.317H84.7412V76.0865ZM89.1211 78.8756C88.8867 78.8756 88.6729 78.8365 88.4795 78.7584C88.2861 78.6803 88.1201 78.5728 87.9814 78.4361C87.8447 78.2994 87.7383 78.1383 87.6621 77.9527C87.5859 77.7652 87.5479 77.5631 87.5479 77.3463V77.2262C87.5479 76.9742 87.5879 76.7476 87.668 76.5465C87.75 76.3453 87.8584 76.1734 87.9932 76.0308C88.1299 75.8883 88.2881 75.7789 88.4678 75.7027C88.6494 75.6265 88.8398 75.5885 89.0391 75.5885C89.2695 75.5885 89.4727 75.6275 89.6484 75.7057C89.8242 75.7818 89.9707 75.8902 90.0879 76.0308C90.207 76.1695 90.2969 76.3346 90.3574 76.526C90.418 76.7174 90.4482 76.9273 90.4482 77.1558V77.4517H88.251C88.2627 77.5748 88.293 77.689 88.3418 77.7945C88.3906 77.9 88.4541 77.9918 88.5322 78.0699C88.6123 78.1461 88.7051 78.2066 88.8105 78.2515C88.918 78.2945 89.0352 78.316 89.1621 78.316C89.3398 78.316 89.5029 78.2808 89.6514 78.2105C89.8018 78.1402 89.9238 78.0435 90.0176 77.9205L90.3984 78.2779C90.3477 78.3541 90.2822 78.4283 90.2021 78.5006C90.1221 78.5709 90.0283 78.6344 89.9209 78.691C89.8135 78.7457 89.6924 78.7896 89.5576 78.8228C89.4248 78.858 89.2793 78.8756 89.1211 78.8756ZM89.0361 76.1539C88.9385 76.1539 88.8477 76.1715 88.7637 76.2066C88.6797 76.2418 88.6045 76.2935 88.5381 76.3619C88.4717 76.4283 88.415 76.5103 88.3682 76.608C88.3232 76.7037 88.291 76.8131 88.2715 76.9361H89.7568V76.8834C89.751 76.7896 89.7324 76.6998 89.7012 76.6139C89.6719 76.526 89.6279 76.4478 89.5693 76.3795C89.5107 76.3111 89.4365 76.2564 89.3467 76.2154C89.2588 76.1744 89.1553 76.1539 89.0361 76.1539ZM91.1191 77.2027C91.1191 76.9742 91.1523 76.7613 91.2188 76.564C91.2871 76.3668 91.3838 76.1959 91.5088 76.0514C91.6357 75.9068 91.79 75.7935 91.9717 75.7115C92.1533 75.6295 92.3594 75.5885 92.5898 75.5885C92.8223 75.5885 93.0293 75.6295 93.2109 75.7115C93.3945 75.7935 93.5488 75.9068 93.6738 76.0514C93.8008 76.1959 93.8975 76.3668 93.9639 76.564C94.0303 76.7613 94.0635 76.9742 94.0635 77.2027V77.2642C94.0635 77.4947 94.0303 77.7086 93.9639 77.9058C93.8975 78.1031 93.8008 78.274 93.6738 78.4185C93.5488 78.5611 93.3955 78.6734 93.2139 78.7555C93.0322 78.8375 92.8262 78.8785 92.5957 78.8785C92.3633 78.8785 92.1553 78.8375 91.9717 78.7555C91.79 78.6734 91.6357 78.5611 91.5088 78.4185C91.3838 78.274 91.2871 78.1031 91.2188 77.9058C91.1523 77.7086 91.1191 77.4947 91.1191 77.2642V77.2027ZM91.8193 77.2642C91.8193 77.4088 91.834 77.5445 91.8633 77.6715C91.8945 77.7984 91.9414 77.9107 92.0039 78.0084C92.0684 78.1041 92.1494 78.1803 92.2471 78.2369C92.3447 78.2916 92.4609 78.3189 92.5957 78.3189C92.7266 78.3189 92.8398 78.2916 92.9355 78.2369C93.0332 78.1803 93.1133 78.1041 93.1758 78.0084C93.2402 77.9107 93.2871 77.7984 93.3164 77.6715C93.3477 77.5445 93.3633 77.4088 93.3633 77.2642V77.2027C93.3633 77.0621 93.3477 76.9283 93.3164 76.8014C93.2871 76.6744 93.2402 76.5631 93.1758 76.4674C93.1133 76.3717 93.0332 76.2955 92.9355 76.2389C92.8398 76.1822 92.7246 76.1539 92.5898 76.1539C92.457 76.1539 92.3418 76.1822 92.2441 76.2389C92.1465 76.2955 92.0664 76.3717 92.0039 76.4674C91.9414 76.5631 91.8945 76.6744 91.8633 76.8014C91.834 76.9283 91.8193 77.0621 91.8193 77.2027V77.2642ZM97.0283 75.5885C97.085 75.5885 97.1416 75.5904 97.1982 75.5943C97.2549 75.5982 97.3086 75.6041 97.3594 75.6119C97.4121 75.6197 97.46 75.6285 97.5029 75.6383C97.5459 75.6461 97.582 75.6558 97.6113 75.6676L97.5117 76.356C97.2969 76.3072 97.085 76.2828 96.876 76.2828C96.6416 76.2828 96.4521 76.3316 96.3076 76.4293C96.165 76.5269 96.0596 76.6627 95.9912 76.8365V78.817H95.291V75.6471H95.9473L95.9795 76.1422C96.1084 75.9703 96.2607 75.8355 96.4365 75.7379C96.6143 75.6383 96.8115 75.5885 97.0283 75.5885ZM99.7119 77.5484L99.832 77.9293L100.723 75.6471H101.499L99.8936 79.2974C99.8584 79.3775 99.8125 79.4635 99.7559 79.5553C99.6992 79.649 99.6289 79.7359 99.5449 79.816C99.4629 79.8961 99.3643 79.9625 99.249 80.0152C99.1338 80.0699 98.999 80.0973 98.8447 80.0973C98.7803 80.0973 98.7148 80.0914 98.6484 80.0797C98.584 80.0699 98.5264 80.0582 98.4756 80.0445L98.5752 79.4996C98.5889 79.4996 98.6074 79.4996 98.6309 79.4996C98.6543 79.5015 98.6787 79.5035 98.7041 79.5055C98.7295 79.5074 98.7529 79.5084 98.7744 79.5084C98.7979 79.5103 98.8164 79.5113 98.8301 79.5113C98.8984 79.5113 98.959 79.4908 99.0117 79.4498C99.0664 79.4107 99.1143 79.3648 99.1553 79.3121C99.1963 79.2613 99.2295 79.2105 99.2549 79.1598C99.2822 79.1109 99.3018 79.0777 99.3135 79.0601L99.5215 78.6676L98.1738 75.6471H98.9473L99.7119 77.5484ZM80.3086 105.203C80.3086 104.974 80.3418 104.761 80.4082 104.564C80.4766 104.367 80.5732 104.196 80.6982 104.051C80.8252 103.907 80.9795 103.794 81.1611 103.712C81.3428 103.629 81.5488 103.588 81.7793 103.588C82.0117 103.588 82.2188 103.629 82.4004 103.712C82.584 103.794 82.7383 103.907 82.8633 104.051C82.9902 104.196 83.0869 104.367 83.1533 104.564C83.2197 104.761 83.2529 104.974 83.2529 105.203V105.264C83.2529 105.495 83.2197 105.709 83.1533 105.906C83.0869 106.103 82.9902 106.274 82.8633 106.419C82.7383 106.561 82.585 106.673 82.4033 106.755C82.2217 106.837 82.0156 106.879 81.7852 106.879C81.5527 106.879 81.3447 106.837 81.1611 106.755C80.9795 106.673 80.8252 106.561 80.6982 106.419C80.5732 106.274 80.4766 106.103 80.4082 105.906C80.3418 105.709 80.3086 105.495 80.3086 105.264V105.203ZM81.0088 105.264C81.0088 105.409 81.0234 105.545 81.0527 105.671C81.084 105.798 81.1309 105.911 81.1934 106.008C81.2578 106.104 81.3389 106.18 81.4365 106.237C81.5342 106.292 81.6504 106.319 81.7852 106.319C81.916 106.319 82.0293 106.292 82.125 106.237C82.2227 106.18 82.3027 106.104 82.3652 106.008C82.4297 105.911 82.4766 105.798 82.5059 105.671C82.5371 105.545 82.5527 105.409 82.5527 105.264V105.203C82.5527 105.062 82.5371 104.928 82.5059 104.801C82.4766 104.674 82.4297 104.563 82.3652 104.467C82.3027 104.372 82.2227 104.295 82.125 104.239C82.0293 104.182 81.9141 104.154 81.7793 104.154C81.6465 104.154 81.5313 104.182 81.4336 104.239C81.3359 104.295 81.2559 104.372 81.1934 104.467C81.1309 104.563 81.084 104.674 81.0527 104.801C81.0234 104.928 81.0088 105.062 81.0088 105.203V105.264ZM84.8379 106.817V104.169H83.9854V103.647H84.8379V103.451C84.8379 103.246 84.8682 103.065 84.9287 102.909C84.9912 102.751 85.0801 102.619 85.1953 102.513C85.3125 102.406 85.4531 102.325 85.6172 102.27C85.7813 102.213 85.9658 102.185 86.1709 102.185C86.3057 102.185 86.4336 102.196 86.5547 102.217C86.6777 102.237 86.8057 102.26 86.9385 102.288L86.877 102.844C86.8008 102.823 86.7119 102.804 86.6104 102.789C86.5088 102.771 86.3945 102.762 86.2676 102.762C86.0156 102.762 85.8311 102.822 85.7139 102.941C85.5986 103.06 85.541 103.23 85.541 103.451V103.647H86.7188V104.169H85.541V106.817H84.8379ZM82.6143 131.588C82.6709 131.588 82.7275 131.59 82.7842 131.594C82.8408 131.598 82.8945 131.604 82.9453 131.612C82.998 131.62 83.0459 131.629 83.0889 131.638C83.1318 131.646 83.168 131.656 83.1973 131.668L83.0977 132.356C82.8828 132.307 82.6709 132.283 82.4619 132.283C82.2275 132.283 82.0381 132.332 81.8936 132.429C81.751 132.527 81.6455 132.663 81.5771 132.837V134.817H80.877V131.647H81.5332L81.5654 132.142C81.6943 131.97 81.8467 131.836 82.0225 131.738C82.2002 131.638 82.3975 131.588 82.6143 131.588ZM85.5176 134.876C85.2832 134.876 85.0693 134.837 84.876 134.758C84.6826 134.68 84.5166 134.573 84.3779 134.436C84.2412 134.299 84.1348 134.138 84.0586 133.953C83.9824 133.765 83.9443 133.563 83.9443 133.346V133.226C83.9443 132.974 83.9844 132.748 84.0645 132.546C84.1465 132.345 84.2549 132.173 84.3896 132.031C84.5264 131.888 84.6846 131.779 84.8643 131.703C85.0459 131.627 85.2363 131.588 85.4355 131.588C85.666 131.588 85.8691 131.628 86.0449 131.706C86.2207 131.782 86.3672 131.89 86.4844 132.031C86.6035 132.17 86.6934 132.335 86.7539 132.526C86.8145 132.717 86.8447 132.927 86.8447 133.156V133.452H84.6475C84.6592 133.575 84.6895 133.689 84.7383 133.795C84.7871 133.9 84.8506 133.992 84.9287 134.07C85.0088 134.146 85.1016 134.207 85.207 134.252C85.3145 134.295 85.4316 134.316 85.5586 134.316C85.7363 134.316 85.8994 134.281 86.0479 134.211C86.1982 134.14 86.3203 134.044 86.4141 133.92L86.7949 134.278C86.7441 134.354 86.6787 134.428 86.5986 134.501C86.5186 134.571 86.4248 134.634 86.3174 134.691C86.21 134.746 86.0889 134.79 85.9541 134.823C85.8213 134.858 85.6758 134.876 85.5176 134.876ZM85.4326 132.154C85.335 132.154 85.2441 132.171 85.1602 132.207C85.0762 132.242 85.001 132.294 84.9346 132.362C84.8682 132.428 84.8115 132.51 84.7646 132.608C84.7197 132.704 84.6875 132.813 84.668 132.936H86.1533V132.883C86.1475 132.79 86.1289 132.7 86.0977 132.614C86.0684 132.526 86.0244 132.448 85.9658 132.379C85.9072 132.311 85.833 132.256 85.7432 132.215C85.6553 132.174 85.5518 132.154 85.4326 132.154ZM87.7734 130.317H89.4873V134.237H90.4541V134.817H87.7734V134.237H88.7813V130.9H87.7734V130.317ZM93.2695 134.817C93.25 134.778 93.2334 134.732 93.2197 134.679C93.208 134.627 93.1973 134.57 93.1875 134.509C93.1387 134.56 93.083 134.608 93.0205 134.653C92.96 134.696 92.8916 134.734 92.8154 134.767C92.7412 134.8 92.6602 134.827 92.5723 134.846C92.4863 134.866 92.3936 134.876 92.2939 134.876C92.126 134.876 91.9736 134.852 91.8369 134.805C91.7021 134.756 91.5859 134.69 91.4883 134.606C91.3926 134.52 91.3184 134.42 91.2656 134.304C91.2129 134.189 91.1865 134.064 91.1865 133.929C91.1865 133.589 91.3125 133.33 91.5645 133.15C91.8184 132.97 92.1816 132.88 92.6543 132.88H93.167V132.672C93.167 132.504 93.1104 132.372 92.9971 132.274C92.8838 132.174 92.7236 132.125 92.5166 132.125C92.4229 132.125 92.3408 132.136 92.2705 132.16C92.2002 132.181 92.1416 132.212 92.0947 132.251C92.0479 132.29 92.0127 132.336 91.9893 132.388C91.9658 132.441 91.9541 132.498 91.9541 132.558H91.2539C91.2539 132.435 91.2822 132.316 91.3389 132.201C91.3975 132.084 91.4824 131.98 91.5938 131.89C91.7051 131.798 91.8408 131.725 92.001 131.67C92.1631 131.616 92.3477 131.588 92.5547 131.588C92.7422 131.588 92.916 131.612 93.0762 131.659C93.2363 131.704 93.375 131.772 93.4922 131.864C93.6094 131.954 93.7012 132.067 93.7676 132.204C93.834 132.338 93.8672 132.497 93.8672 132.678V134.09C93.8672 134.229 93.877 134.356 93.8965 134.471C93.918 134.585 93.9482 134.683 93.9873 134.767V134.817H93.2695ZM92.4258 134.31C92.5156 134.31 92.5996 134.299 92.6777 134.278C92.7578 134.254 92.8291 134.225 92.8916 134.19C92.9561 134.153 93.0107 134.111 93.0557 134.064C93.1025 134.017 93.1396 133.969 93.167 133.92V133.326H92.7217C92.4365 133.326 92.2256 133.372 92.0889 133.463C91.9541 133.555 91.8867 133.686 91.8867 133.856C91.8867 133.92 91.8975 133.981 91.9189 134.038C91.9404 134.092 91.9727 134.14 92.0156 134.181C92.0605 134.22 92.1162 134.252 92.1826 134.275C92.251 134.298 92.332 134.31 92.4258 134.31ZM96.2549 130.879V131.647H97.4531V132.169H96.2549V133.689C96.2549 133.808 96.2686 133.907 96.2959 133.985C96.3252 134.063 96.3652 134.126 96.416 134.172C96.4668 134.219 96.5264 134.253 96.5947 134.272C96.6631 134.29 96.7383 134.298 96.8203 134.298C96.8809 134.298 96.9434 134.295 97.0078 134.29C97.0742 134.282 97.1377 134.274 97.1982 134.266C97.2607 134.256 97.3174 134.247 97.3682 134.237C97.4209 134.225 97.4648 134.214 97.5 134.205L97.5791 134.688C97.5283 134.717 97.4668 134.745 97.3945 134.77C97.3242 134.794 97.2471 134.813 97.1631 134.829C97.0791 134.844 96.9912 134.856 96.8994 134.864C96.8096 134.874 96.7207 134.879 96.6328 134.879C96.4746 134.879 96.3291 134.857 96.1963 134.814C96.0654 134.769 95.9521 134.701 95.8564 134.609C95.7627 134.515 95.6885 134.396 95.6338 134.252C95.5811 134.105 95.5547 133.93 95.5547 133.727V132.169H94.7813V131.647H95.5547V130.879H96.2549ZM98.6074 131.647H100.298V134.237H101.238V134.817H98.6074V134.237H99.5918V132.23H98.6074V131.647ZM99.5332 130.827C99.5332 130.717 99.5684 130.628 99.6387 130.557C99.709 130.485 99.8076 130.449 99.9346 130.449C100.063 130.449 100.163 130.485 100.233 130.557C100.306 130.628 100.342 130.717 100.342 130.827C100.342 130.936 100.306 131.027 100.233 131.099C100.163 131.17 100.063 131.205 99.9346 131.205C99.8076 131.205 99.709 131.17 99.6387 131.099C99.5684 131.027 99.5332 130.936 99.5332 130.827ZM103.356 133.932L103.406 134.167L103.459 133.935L104.227 131.647H104.95L103.708 134.817H103.104L101.851 131.647H102.574L103.356 133.932ZM105.814 131.647H107.505V134.237H108.445V134.817H105.814V134.237H106.799V132.23H105.814V131.647ZM106.74 130.827C106.74 130.717 106.775 130.628 106.846 130.557C106.916 130.485 107.015 130.449 107.142 130.449C107.271 130.449 107.37 130.485 107.44 130.557C107.513 130.628 107.549 130.717 107.549 130.827C107.549 130.936 107.513 131.027 107.44 131.099C107.37 131.17 107.271 131.205 107.142 131.205C107.015 131.205 106.916 131.17 106.846 131.099C106.775 131.027 106.74 130.936 106.74 130.827ZM110.669 130.879V131.647H111.867V132.169H110.669V133.689C110.669 133.808 110.683 133.907 110.71 133.985C110.739 134.063 110.779 134.126 110.83 134.172C110.881 134.219 110.94 134.253 111.009 134.272C111.077 134.29 111.152 134.298 111.234 134.298C111.295 134.298 111.357 134.295 111.422 134.29C111.488 134.282 111.552 134.274 111.612 134.266C111.675 134.256 111.731 134.247 111.782 134.237C111.835 134.225 111.879 134.214 111.914 134.205L111.993 134.688C111.942 134.717 111.881 134.745 111.809 134.77C111.738 134.794 111.661 134.813 111.577 134.829C111.493 134.844 111.405 134.856 111.313 134.864C111.224 134.874 111.135 134.879 111.047 134.879C110.889 134.879 110.743 134.857 110.61 134.814C110.479 134.769 110.366 134.701 110.271 134.609C110.177 134.515 110.103 134.396 110.048 134.252C109.995 134.105 109.969 133.93 109.969 133.727V132.169H109.195V131.647H109.969V130.879H110.669ZM114.126 133.548L114.246 133.929L115.137 131.647H115.913L114.308 135.297C114.272 135.378 114.227 135.463 114.17 135.555C114.113 135.649 114.043 135.736 113.959 135.816C113.877 135.896 113.778 135.962 113.663 136.015C113.548 136.07 113.413 136.097 113.259 136.097C113.194 136.097 113.129 136.091 113.063 136.08C112.998 136.07 112.94 136.058 112.89 136.045L112.989 135.5C113.003 135.5 113.021 135.5 113.045 135.5C113.068 135.502 113.093 135.504 113.118 135.505C113.144 135.507 113.167 135.508 113.188 135.508C113.212 135.51 113.23 135.511 113.244 135.511C113.313 135.511 113.373 135.491 113.426 135.45C113.48 135.411 113.528 135.365 113.569 135.312C113.61 135.261 113.644 135.211 113.669 135.16C113.696 135.111 113.716 135.078 113.728 135.06L113.936 134.668L112.588 131.647H113.361L114.126 133.548ZM117.349 134.398C117.349 134.33 117.359 134.265 117.381 134.205C117.404 134.144 117.438 134.092 117.48 134.049C117.523 134.004 117.576 133.969 117.639 133.944C117.703 133.919 117.776 133.906 117.858 133.906C117.94 133.906 118.013 133.919 118.075 133.944C118.14 133.969 118.193 134.004 118.236 134.049C118.281 134.092 118.314 134.144 118.336 134.205C118.359 134.265 118.371 134.33 118.371 134.398C118.371 134.466 118.359 134.53 118.336 134.588C118.314 134.645 118.281 134.695 118.236 134.738C118.193 134.781 118.14 134.814 118.075 134.837C118.013 134.863 117.94 134.876 117.858 134.876C117.776 134.876 117.703 134.863 117.639 134.837C117.576 134.814 117.523 134.781 117.48 134.738C117.438 134.695 117.404 134.645 117.381 134.588C117.359 134.53 117.349 134.466 117.349 134.398Z" fill="#A5A8AB"/>
<path d="M80.3875 265.718C80.3875 265.617 80.366 265.528 80.323 265.452C80.282 265.374 80.2224 265.305 80.1443 265.247C80.0681 265.188 79.9763 265.137 79.8689 265.094C79.7634 265.049 79.6482 265.008 79.5232 264.971C79.3552 264.922 79.1892 264.862 79.0251 264.79C78.863 264.717 78.7175 264.63 78.5886 264.526C78.4617 264.421 78.3582 264.298 78.2781 264.16C78.2 264.019 78.1609 263.857 78.1609 263.673C78.1609 263.49 78.2 263.326 78.2781 263.181C78.3582 263.035 78.4646 262.911 78.5974 262.809C78.7302 262.708 78.8845 262.63 79.0603 262.575C79.2361 262.52 79.4197 262.493 79.6111 262.493C79.8162 262.493 80.0076 262.525 80.1853 262.589C80.365 262.652 80.5212 262.741 80.6541 262.856C80.7888 262.969 80.8953 263.106 80.9734 263.266C81.0515 263.424 81.0916 263.6 81.0935 263.794H80.3904C80.3806 263.686 80.3572 263.589 80.3201 263.501C80.2849 263.411 80.2341 263.334 80.1677 263.269C80.1033 263.205 80.0242 263.155 79.9304 263.12C79.8367 263.085 79.7283 263.067 79.6052 263.067C79.4998 263.067 79.4021 263.081 79.3123 263.108C79.2224 263.135 79.1443 263.175 79.0779 263.228C79.0134 263.281 78.9626 263.344 78.9255 263.419C78.8884 263.493 78.8699 263.577 78.8699 263.671C78.8699 263.77 78.8953 263.857 78.946 263.931C78.9968 264.004 79.0632 264.067 79.1453 264.122C79.2273 264.176 79.321 264.224 79.4265 264.265C79.5339 264.304 79.6453 264.34 79.7605 264.374C79.9382 264.426 80.1082 264.492 80.2703 264.57C80.4324 264.646 80.575 264.739 80.698 264.848C80.821 264.956 80.9187 265.081 80.991 265.223C81.0632 265.366 81.0994 265.529 81.0994 265.713C81.0994 265.902 81.0593 266.069 80.9792 266.214C80.8992 266.358 80.7917 266.479 80.657 266.577C80.5222 266.674 80.366 266.749 80.1882 266.799C80.0105 266.848 79.825 266.873 79.6316 266.873C79.5007 266.873 79.3708 266.86 79.2419 266.835C79.113 266.809 78.989 266.771 78.8699 266.72C78.7527 266.67 78.6433 266.607 78.5417 266.533C78.4402 266.457 78.3513 266.37 78.2751 266.272C78.2009 266.172 78.1423 266.062 78.0994 265.941C78.0564 265.818 78.0339 265.683 78.032 265.537H78.738C78.7478 265.666 78.7761 265.778 78.823 265.874C78.8699 265.969 78.9324 266.049 79.0105 266.114C79.0886 266.176 79.1794 266.224 79.283 266.257C79.3884 266.289 79.5046 266.304 79.6316 266.304C79.7371 266.304 79.8357 266.292 79.9275 266.266C80.0193 266.241 80.0994 266.204 80.1677 266.155C80.2361 266.104 80.2898 266.043 80.3289 265.97C80.3679 265.896 80.3875 265.812 80.3875 265.718ZM83.8269 266.383C83.7195 266.54 83.5886 266.662 83.4343 266.75C83.282 266.836 83.1111 266.879 82.9216 266.879C82.7576 266.879 82.6072 266.853 82.4705 266.802C82.3357 266.752 82.2195 266.672 82.1218 266.562C82.0261 266.451 81.9509 266.31 81.8962 266.14C81.8435 265.968 81.8171 265.762 81.8171 265.522V263.647H82.5173V265.528C82.5173 265.68 82.5281 265.806 82.5496 265.906C82.573 266.005 82.6082 266.085 82.655 266.143C82.7019 266.202 82.7605 266.244 82.8308 266.269C82.9011 266.293 82.9851 266.304 83.0828 266.304C83.2703 266.304 83.4216 266.268 83.5369 266.196C83.6521 266.122 83.739 266.022 83.7976 265.897V263.647H84.5007V266.817H83.8679L83.8269 266.383ZM87.574 263.589C87.6306 263.589 87.6873 263.59 87.7439 263.594C87.8005 263.598 87.8542 263.604 87.905 263.612C87.9578 263.62 88.0056 263.629 88.0486 263.638C88.0916 263.646 88.1277 263.656 88.157 263.668L88.0574 264.356C87.8425 264.307 87.6306 264.283 87.4216 264.283C87.1873 264.283 86.9978 264.332 86.8533 264.429C86.7107 264.527 86.6052 264.663 86.5369 264.837V266.817H85.8367V263.647H86.4929L86.5251 264.142C86.6541 263.97 86.8064 263.836 86.9822 263.738C87.1599 263.638 87.3572 263.589 87.574 263.589ZM90.4773 266.876C90.2429 266.876 90.0291 266.837 89.8357 266.758C89.6423 266.68 89.4763 266.573 89.3376 266.436C89.2009 266.299 89.0945 266.138 89.0183 265.953C88.9421 265.765 88.9041 265.563 88.9041 265.346V265.226C88.9041 264.974 88.9441 264.748 89.0242 264.547C89.1062 264.345 89.2146 264.173 89.3494 264.031C89.4861 263.888 89.6443 263.779 89.824 263.703C90.0056 263.627 90.196 263.589 90.3953 263.589C90.6257 263.589 90.8289 263.628 91.0046 263.706C91.1804 263.782 91.3269 263.89 91.4441 264.031C91.5632 264.17 91.6531 264.335 91.7136 264.526C91.7742 264.717 91.8044 264.927 91.8044 265.156V265.452H89.6072C89.6189 265.575 89.6492 265.689 89.698 265.795C89.7468 265.9 89.8103 265.992 89.8884 266.07C89.9685 266.146 90.0613 266.207 90.1667 266.252C90.2742 266.295 90.3914 266.316 90.5183 266.316C90.696 266.316 90.8591 266.281 91.0076 266.211C91.158 266.14 91.28 266.044 91.3738 265.921L91.7546 266.278C91.7039 266.354 91.6384 266.428 91.5583 266.501C91.4783 266.571 91.3845 266.634 91.2771 266.691C91.1697 266.746 91.0486 266.79 90.9138 266.823C90.781 266.858 90.6355 266.876 90.4773 266.876ZM90.3923 264.154C90.2947 264.154 90.2039 264.172 90.1199 264.207C90.0359 264.242 89.9607 264.294 89.8943 264.362C89.8279 264.428 89.7712 264.51 89.7244 264.608C89.6794 264.704 89.6472 264.813 89.6277 264.936H91.113V264.883C91.1072 264.79 91.0886 264.7 91.0574 264.614C91.0281 264.526 90.9841 264.448 90.9255 264.38C90.8669 264.311 90.7927 264.256 90.7029 264.215C90.615 264.174 90.5115 264.154 90.3923 264.154ZM93.4802 266.398C93.4802 266.33 93.491 266.265 93.5125 266.205C93.5359 266.144 93.5691 266.092 93.6121 266.049C93.655 266.005 93.7078 265.969 93.7703 265.944C93.8347 265.919 93.908 265.906 93.99 265.906C94.072 265.906 94.1443 265.919 94.2068 265.944C94.2712 265.969 94.325 266.005 94.3679 266.049C94.4128 266.092 94.446 266.144 94.4675 266.205C94.491 266.265 94.5027 266.33 94.5027 266.398C94.5027 266.466 94.491 266.53 94.4675 266.589C94.446 266.645 94.4128 266.695 94.3679 266.738C94.325 266.781 94.2712 266.814 94.2068 266.838C94.1443 266.863 94.072 266.876 93.99 266.876C93.908 266.876 93.8347 266.863 93.7703 266.838C93.7078 266.814 93.655 266.781 93.6121 266.738C93.5691 266.695 93.5359 266.645 93.5125 266.589C93.491 266.53 93.4802 266.466 93.4802 266.398ZM81.1931 291.131H79.8835V294.817H79.1833V291.131H77.8826V290.551H81.1931V291.131ZM82.4939 292.087C82.6033 291.93 82.7361 291.808 82.8923 291.72C83.0505 291.632 83.2263 291.589 83.4197 291.589C83.5837 291.589 83.7341 291.613 83.8708 291.662C84.0095 291.711 84.1277 291.787 84.2253 291.89C84.323 291.992 84.3992 292.124 84.4539 292.286C84.5085 292.446 84.5359 292.638 84.5359 292.863V294.817H83.8357V292.857C83.8357 292.736 83.8201 292.632 83.7888 292.547C83.7595 292.459 83.7166 292.386 83.6599 292.33C83.6052 292.273 83.5378 292.231 83.4578 292.204C83.3777 292.176 83.2869 292.163 83.1853 292.163C83.033 292.163 82.8982 292.195 82.781 292.259C82.6638 292.322 82.5681 292.407 82.4939 292.514V294.817H81.7937V290.317H82.4939V292.087ZM86.8738 294.876C86.6394 294.876 86.4255 294.837 86.2322 294.758C86.0388 294.68 85.8728 294.573 85.7341 294.436C85.5974 294.299 85.491 294.138 85.4148 293.953C85.3386 293.765 85.3005 293.563 85.3005 293.346V293.226C85.3005 292.974 85.3406 292.748 85.4207 292.547C85.5027 292.345 85.6111 292.173 85.7458 292.031C85.8826 291.888 86.0408 291.779 86.2205 291.703C86.4021 291.627 86.5925 291.589 86.7917 291.589C87.0222 291.589 87.2253 291.628 87.4011 291.706C87.5769 291.782 87.7234 291.89 87.8406 292.031C87.9597 292.17 88.0496 292.335 88.1101 292.526C88.1707 292.717 88.2009 292.927 88.2009 293.156V293.452H86.0037C86.0154 293.575 86.0457 293.689 86.0945 293.795C86.1433 293.9 86.2068 293.992 86.2849 294.07C86.365 294.146 86.4578 294.207 86.5632 294.252C86.6707 294.295 86.7878 294.316 86.9148 294.316C87.0925 294.316 87.2556 294.281 87.4041 294.211C87.5544 294.14 87.6765 294.044 87.7703 293.921L88.1511 294.278C88.1003 294.354 88.0349 294.428 87.9548 294.501C87.8748 294.571 87.781 294.634 87.6736 294.691C87.5662 294.746 87.4451 294.79 87.3103 294.823C87.1775 294.858 87.032 294.876 86.8738 294.876ZM86.7888 292.154C86.6912 292.154 86.6003 292.172 86.5164 292.207C86.4324 292.242 86.3572 292.294 86.2908 292.362C86.2244 292.428 86.1677 292.51 86.1208 292.608C86.0759 292.704 86.0437 292.813 86.0242 292.936H87.5095V292.883C87.5037 292.79 87.4851 292.7 87.4539 292.614C87.4246 292.526 87.3806 292.448 87.322 292.38C87.2634 292.311 87.1892 292.256 87.0994 292.215C87.0115 292.174 86.908 292.154 86.7888 292.154ZM79.5935 318.88V319.647H80.7917V320.169H79.5935V321.689C79.5935 321.808 79.6072 321.907 79.6345 321.985C79.6638 322.063 79.7039 322.126 79.7546 322.172C79.8054 322.219 79.865 322.253 79.9333 322.272C80.0017 322.29 80.0769 322.298 80.1589 322.298C80.2195 322.298 80.282 322.296 80.3464 322.29C80.4128 322.282 80.4763 322.274 80.5369 322.266C80.5994 322.256 80.656 322.247 80.7068 322.237C80.7595 322.225 80.8035 322.214 80.8386 322.205L80.9177 322.688C80.8669 322.717 80.8054 322.745 80.7332 322.77C80.6628 322.794 80.5857 322.813 80.5017 322.829C80.4177 322.844 80.3298 322.856 80.238 322.864C80.1482 322.874 80.0593 322.879 79.9714 322.879C79.8132 322.879 79.6677 322.857 79.5349 322.814C79.4041 322.769 79.2908 322.701 79.1951 322.609C79.1013 322.515 79.0271 322.396 78.9724 322.252C78.9197 322.105 78.8933 321.93 78.8933 321.727V320.169H78.1199V319.647H78.8933V318.88H79.5935ZM82.4939 320.087C82.6033 319.93 82.7361 319.808 82.8923 319.72C83.0505 319.632 83.2263 319.589 83.4197 319.589C83.5837 319.589 83.7341 319.613 83.8708 319.662C84.0095 319.711 84.1277 319.787 84.2253 319.89C84.323 319.992 84.3992 320.124 84.4539 320.286C84.5085 320.446 84.5359 320.638 84.5359 320.863V322.817H83.8357V320.857C83.8357 320.736 83.8201 320.632 83.7888 320.547C83.7595 320.459 83.7166 320.386 83.6599 320.33C83.6052 320.273 83.5378 320.231 83.4578 320.204C83.3777 320.176 83.2869 320.163 83.1853 320.163C83.033 320.163 82.8982 320.195 82.781 320.259C82.6638 320.322 82.5681 320.407 82.4939 320.514V322.817H81.7937V318.317H82.4939V320.087ZM86.8738 322.876C86.6394 322.876 86.4255 322.837 86.2322 322.758C86.0388 322.68 85.8728 322.573 85.7341 322.436C85.5974 322.299 85.491 322.138 85.4148 321.953C85.3386 321.765 85.3005 321.563 85.3005 321.346V321.226C85.3005 320.974 85.3406 320.748 85.4207 320.547C85.5027 320.345 85.6111 320.173 85.7458 320.031C85.8826 319.888 86.0408 319.779 86.2205 319.703C86.4021 319.627 86.5925 319.589 86.7917 319.589C87.0222 319.589 87.2253 319.628 87.4011 319.706C87.5769 319.782 87.7234 319.89 87.8406 320.031C87.9597 320.17 88.0496 320.335 88.1101 320.526C88.1707 320.717 88.2009 320.927 88.2009 321.156V321.452H86.0037C86.0154 321.575 86.0457 321.689 86.0945 321.795C86.1433 321.9 86.2068 321.992 86.2849 322.07C86.365 322.146 86.4578 322.207 86.5632 322.252C86.6707 322.295 86.7878 322.316 86.9148 322.316C87.0925 322.316 87.2556 322.281 87.4041 322.211C87.5544 322.14 87.6765 322.044 87.7703 321.921L88.1511 322.278C88.1003 322.354 88.0349 322.428 87.9548 322.501C87.8748 322.571 87.781 322.634 87.6736 322.691C87.5662 322.746 87.4451 322.79 87.3103 322.823C87.1775 322.858 87.032 322.876 86.8738 322.876ZM86.7888 320.154C86.6912 320.154 86.6003 320.172 86.5164 320.207C86.4324 320.242 86.3572 320.294 86.2908 320.362C86.2244 320.428 86.1677 320.51 86.1208 320.608C86.0759 320.704 86.0437 320.813 86.0242 320.936H87.5095V320.883C87.5037 320.79 87.4851 320.7 87.4539 320.614C87.4246 320.526 87.3806 320.448 87.322 320.38C87.2634 320.311 87.1892 320.256 87.0994 320.215C87.0115 320.174 86.908 320.154 86.7888 320.154ZM88.8718 321.203C88.8718 320.974 88.905 320.761 88.9714 320.564C89.0398 320.367 89.1365 320.196 89.2615 320.051C89.3884 319.907 89.5427 319.794 89.7244 319.712C89.906 319.63 90.1121 319.589 90.3425 319.589C90.575 319.589 90.782 319.63 90.9636 319.712C91.1472 319.794 91.3015 319.907 91.4265 320.051C91.5535 320.196 91.6501 320.367 91.7166 320.564C91.783 320.761 91.8162 320.974 91.8162 321.203V321.264C91.8162 321.495 91.783 321.709 91.7166 321.906C91.6501 322.103 91.5535 322.274 91.4265 322.419C91.3015 322.561 91.1482 322.673 90.9666 322.755C90.7849 322.838 90.5789 322.879 90.3484 322.879C90.116 322.879 89.908 322.838 89.7244 322.755C89.5427 322.673 89.3884 322.561 89.2615 322.419C89.1365 322.274 89.0398 322.103 88.9714 321.906C88.905 321.709 88.8718 321.495 88.8718 321.264V321.203ZM89.572 321.264C89.572 321.409 89.5867 321.545 89.616 321.672C89.6472 321.798 89.6941 321.911 89.7566 322.008C89.821 322.104 89.9021 322.18 89.9998 322.237C90.0974 322.292 90.2136 322.319 90.3484 322.319C90.4792 322.319 90.5925 322.292 90.6882 322.237C90.7859 322.18 90.866 322.104 90.9285 322.008C90.9929 321.911 91.0398 321.798 91.0691 321.672C91.1003 321.545 91.116 321.409 91.116 321.264V321.203C91.116 321.062 91.1003 320.928 91.0691 320.801C91.0398 320.674 90.9929 320.563 90.9285 320.467C90.866 320.372 90.7859 320.296 90.6882 320.239C90.5925 320.182 90.4773 320.154 90.3425 320.154C90.2097 320.154 90.0945 320.182 89.9968 320.239C89.8992 320.296 89.8191 320.372 89.7566 320.467C89.6941 320.563 89.6472 320.674 89.616 320.801C89.5867 320.928 89.572 321.062 89.572 321.203V321.264ZM94.781 319.589C94.8376 319.589 94.8943 319.59 94.9509 319.594C95.0076 319.598 95.0613 319.604 95.1121 319.612C95.1648 319.62 95.2126 319.629 95.2556 319.638C95.2986 319.646 95.3347 319.656 95.364 319.668L95.2644 320.356C95.0496 320.307 94.8376 320.283 94.6287 320.283C94.3943 320.283 94.2048 320.332 94.0603 320.429C93.9177 320.527 93.8123 320.663 93.7439 320.837V322.817H93.0437V319.647H93.7L93.7322 320.142C93.8611 319.97 94.0134 319.836 94.1892 319.738C94.3669 319.638 94.5642 319.589 94.781 319.589ZM97.4646 321.548L97.5847 321.929L98.4753 319.647H99.2517L97.6462 323.297C97.6111 323.378 97.5652 323.464 97.5085 323.555C97.4519 323.649 97.3816 323.736 97.2976 323.816C97.2156 323.896 97.1169 323.963 97.0017 324.015C96.8865 324.07 96.7517 324.097 96.5974 324.097C96.533 324.097 96.4675 324.091 96.4011 324.08C96.3367 324.07 96.2791 324.058 96.2283 324.045L96.3279 323.5C96.3416 323.5 96.3601 323.5 96.3835 323.5C96.407 323.502 96.4314 323.504 96.4568 323.505C96.4822 323.507 96.5056 323.508 96.5271 323.508C96.5505 323.51 96.5691 323.511 96.5828 323.511C96.6511 323.511 96.7117 323.491 96.7644 323.45C96.8191 323.411 96.8669 323.365 96.908 323.312C96.949 323.261 96.9822 323.211 97.0076 323.16C97.0349 323.111 97.0544 323.078 97.0662 323.06L97.2742 322.668L95.9265 319.647H96.7L97.4646 321.548ZM78.0613 349.203C78.0613 348.974 78.0945 348.761 78.1609 348.564C78.2292 348.367 78.3259 348.196 78.4509 348.051C78.5779 347.907 78.7322 347.794 78.9138 347.712C79.0955 347.63 79.3015 347.589 79.532 347.589C79.7644 347.589 79.9714 347.63 80.1531 347.712C80.3367 347.794 80.491 347.907 80.616 348.051C80.7429 348.196 80.8396 348.367 80.906 348.564C80.9724 348.761 81.0056 348.974 81.0056 349.203V349.264C81.0056 349.495 80.9724 349.709 80.906 349.906C80.8396 350.103 80.7429 350.274 80.616 350.419C80.491 350.561 80.3376 350.673 80.156 350.755C79.9744 350.838 79.7683 350.879 79.5378 350.879C79.3054 350.879 79.0974 350.838 78.9138 350.755C78.7322 350.673 78.5779 350.561 78.4509 350.419C78.3259 350.274 78.2292 350.103 78.1609 349.906C78.0945 349.709 78.0613 349.495 78.0613 349.264V349.203ZM78.7615 349.264C78.7615 349.409 78.7761 349.545 78.8054 349.672C78.8367 349.798 78.8835 349.911 78.946 350.008C79.0105 350.104 79.0916 350.18 79.1892 350.237C79.2869 350.292 79.4031 350.319 79.5378 350.319C79.6687 350.319 79.782 350.292 79.8777 350.237C79.9753 350.18 80.0554 350.104 80.1179 350.008C80.1824 349.911 80.2292 349.798 80.2585 349.672C80.2898 349.545 80.3054 349.409 80.3054 349.264V349.203C80.3054 349.062 80.2898 348.928 80.2585 348.801C80.2292 348.674 80.1824 348.563 80.1179 348.467C80.0554 348.372 79.9753 348.296 79.8777 348.239C79.782 348.182 79.6667 348.154 79.532 348.154C79.3992 348.154 79.2839 348.182 79.1863 348.239C79.0886 348.296 79.0085 348.372 78.946 348.467C78.8835 348.563 78.8367 348.674 78.8054 348.801C78.7761 348.928 78.7615 349.062 78.7615 349.203V349.264ZM82.5906 350.817V348.169H81.738V347.647H82.5906V347.451C82.5906 347.246 82.6208 347.065 82.6814 346.909C82.7439 346.751 82.8328 346.619 82.948 346.513C83.0652 346.406 83.2058 346.325 83.3699 346.27C83.5339 346.214 83.7185 346.185 83.9236 346.185C84.0583 346.185 84.1863 346.196 84.3074 346.217C84.4304 346.237 84.5583 346.26 84.6912 346.288L84.6296 346.844C84.5535 346.823 84.4646 346.804 84.363 346.789C84.2615 346.771 84.1472 346.762 84.0203 346.762C83.7683 346.762 83.5837 346.822 83.4666 346.941C83.3513 347.06 83.2937 347.23 83.2937 347.451V347.647H84.4714V348.169H83.2937V350.817H82.5906ZM80.3669 375.589C80.4236 375.589 80.4802 375.59 80.5369 375.594C80.5935 375.598 80.6472 375.604 80.698 375.612C80.7507 375.62 80.7986 375.629 80.8416 375.638C80.8845 375.646 80.9207 375.656 80.95 375.668L80.8503 376.356C80.6355 376.307 80.4236 376.283 80.2146 376.283C79.9802 376.283 79.7908 376.332 79.6462 376.429C79.5037 376.527 79.3982 376.663 79.3298 376.837V378.817H78.6296V375.647H79.2859L79.3181 376.142C79.447 375.97 79.5994 375.836 79.7751 375.738C79.9529 375.638 80.1501 375.589 80.3669 375.589ZM83.2703 378.876C83.0359 378.876 82.822 378.837 82.6287 378.758C82.4353 378.68 82.2693 378.573 82.1306 378.436C81.9939 378.299 81.8875 378.138 81.8113 377.953C81.7351 377.765 81.697 377.563 81.697 377.346V377.226C81.697 376.974 81.7371 376.748 81.8171 376.547C81.8992 376.345 82.0076 376.173 82.1423 376.031C82.2791 375.888 82.4373 375.779 82.6169 375.703C82.7986 375.627 82.989 375.589 83.1882 375.589C83.4187 375.589 83.6218 375.628 83.7976 375.706C83.9734 375.782 84.1199 375.89 84.2371 376.031C84.3562 376.17 84.446 376.335 84.5066 376.526C84.5671 376.717 84.5974 376.927 84.5974 377.156V377.452H82.4001C82.4119 377.575 82.4421 377.689 82.491 377.795C82.5398 377.9 82.6033 377.992 82.6814 378.07C82.7615 378.146 82.8542 378.207 82.9597 378.252C83.0671 378.295 83.1843 378.316 83.3113 378.316C83.489 378.316 83.6521 378.281 83.8005 378.211C83.9509 378.14 84.073 378.044 84.1667 377.921L84.5476 378.278C84.4968 378.354 84.4314 378.428 84.3513 378.501C84.2712 378.571 84.1775 378.634 84.0701 378.691C83.9626 378.746 83.8416 378.79 83.7068 378.823C83.574 378.858 83.4285 378.876 83.2703 378.876ZM83.1853 376.154C83.0876 376.154 82.9968 376.172 82.9128 376.207C82.8289 376.242 82.7537 376.294 82.6873 376.362C82.6208 376.428 82.5642 376.51 82.5173 376.608C82.4724 376.704 82.4402 376.813 82.4207 376.936H83.906V376.883C83.9001 376.79 83.8816 376.7 83.8503 376.614C83.821 376.526 83.7771 376.448 83.7185 376.38C83.6599 376.311 83.5857 376.256 83.4958 376.215C83.408 376.174 83.3044 376.154 83.1853 376.154ZM85.5261 374.317H87.24V378.237H88.2068V378.817H85.5261V378.237H86.5339V374.9H85.5261V374.317ZM91.0222 378.817C91.0027 378.778 90.9861 378.732 90.9724 378.679C90.9607 378.627 90.95 378.57 90.9402 378.509C90.8914 378.56 90.8357 378.608 90.7732 378.653C90.7126 378.696 90.6443 378.734 90.5681 378.767C90.4939 378.8 90.4128 378.827 90.325 378.846C90.239 378.866 90.1462 378.876 90.0466 378.876C89.8787 378.876 89.7263 378.852 89.5896 378.805C89.4548 378.756 89.3386 378.69 89.241 378.606C89.1453 378.52 89.071 378.42 89.0183 378.304C88.9656 378.189 88.9392 378.064 88.9392 377.929C88.9392 377.589 89.0652 377.33 89.3171 377.15C89.571 376.97 89.9343 376.88 90.407 376.88H90.9197V376.672C90.9197 376.505 90.863 376.372 90.7498 376.274C90.6365 376.174 90.4763 376.125 90.2693 376.125C90.1755 376.125 90.0935 376.136 90.0232 376.16C89.9529 376.181 89.8943 376.212 89.8474 376.251C89.8005 376.29 89.7654 376.336 89.7419 376.388C89.7185 376.441 89.7068 376.498 89.7068 376.558H89.0066C89.0066 376.435 89.0349 376.316 89.0916 376.201C89.1501 376.084 89.2351 375.98 89.3464 375.89C89.4578 375.798 89.5935 375.725 89.7537 375.671C89.9158 375.616 90.1003 375.589 90.3074 375.589C90.4949 375.589 90.6687 375.612 90.8289 375.659C90.989 375.704 91.1277 375.772 91.2449 375.864C91.3621 375.954 91.4539 376.067 91.5203 376.204C91.5867 376.339 91.6199 376.497 91.6199 376.678V378.09C91.6199 378.229 91.6296 378.356 91.6492 378.471C91.6707 378.585 91.7009 378.683 91.74 378.767V378.817H91.0222ZM90.1785 378.31C90.2683 378.31 90.3523 378.299 90.4304 378.278C90.5105 378.255 90.5818 378.225 90.6443 378.19C90.7087 378.153 90.7634 378.111 90.8083 378.064C90.8552 378.017 90.8923 377.969 90.9197 377.921V377.326H90.4744C90.1892 377.326 89.9783 377.372 89.8416 377.464C89.7068 377.555 89.6394 377.686 89.6394 377.856C89.6394 377.921 89.6501 377.981 89.6716 378.038C89.6931 378.092 89.7253 378.14 89.7683 378.181C89.8132 378.22 89.8689 378.252 89.9353 378.275C90.0037 378.298 90.0847 378.31 90.1785 378.31ZM94.0076 374.88V375.647H95.2058V376.169H94.0076V377.689C94.0076 377.808 94.0212 377.907 94.0486 377.985C94.0779 378.063 94.1179 378.126 94.1687 378.172C94.2195 378.219 94.2791 378.253 94.3474 378.272C94.4158 378.29 94.491 378.298 94.573 378.298C94.6335 378.298 94.696 378.296 94.7605 378.29C94.8269 378.282 94.8904 378.274 94.9509 378.266C95.0134 378.256 95.0701 378.247 95.1208 378.237C95.1736 378.225 95.2175 378.214 95.2527 378.205L95.3318 378.688C95.281 378.717 95.2195 378.745 95.1472 378.77C95.0769 378.794 94.9998 378.813 94.9158 378.829C94.8318 378.844 94.7439 378.856 94.6521 378.864C94.5623 378.874 94.4734 378.879 94.3855 378.879C94.2273 378.879 94.0818 378.857 93.949 378.814C93.8181 378.769 93.7048 378.701 93.6091 378.609C93.5154 378.515 93.4412 378.396 93.3865 378.252C93.3337 378.105 93.3074 377.93 93.3074 377.727V376.169H92.5339V375.647H93.3074V374.88H94.0076ZM96.3601 375.647H98.0505V378.237H98.991V378.817H96.3601V378.237H97.3445V376.23H96.3601V375.647ZM97.2859 374.827C97.2859 374.717 97.321 374.628 97.3914 374.557C97.4617 374.485 97.5603 374.449 97.6873 374.449C97.8162 374.449 97.9158 374.485 97.9861 374.557C98.0583 374.628 98.0945 374.717 98.0945 374.827C98.0945 374.936 98.0583 375.027 97.9861 375.099C97.9158 375.17 97.8162 375.205 97.6873 375.205C97.5603 375.205 97.4617 375.17 97.3914 375.099C97.321 375.027 97.2859 374.936 97.2859 374.827ZM101.109 377.932L101.159 378.167L101.212 377.935L101.979 375.647H102.703L101.461 378.817H100.857L99.6033 375.647H100.327L101.109 377.932ZM103.567 375.647H105.258V378.237H106.198V378.817H103.567V378.237H104.552V376.23H103.567V375.647ZM104.493 374.827C104.493 374.717 104.528 374.628 104.598 374.557C104.669 374.485 104.767 374.449 104.894 374.449C105.023 374.449 105.123 374.485 105.193 374.557C105.265 374.628 105.302 374.717 105.302 374.827C105.302 374.936 105.265 375.027 105.193 375.099C105.123 375.17 105.023 375.205 104.894 375.205C104.767 375.205 104.669 375.17 104.598 375.099C104.528 375.027 104.493 374.936 104.493 374.827ZM108.422 374.88V375.647H109.62V376.169H108.422V377.689C108.422 377.808 108.435 377.907 108.463 377.985C108.492 378.063 108.532 378.126 108.583 378.172C108.634 378.219 108.693 378.253 108.761 378.272C108.83 378.29 108.905 378.298 108.987 378.298C109.048 378.298 109.11 378.296 109.175 378.29C109.241 378.282 109.304 378.274 109.365 378.266C109.427 378.256 109.484 378.247 109.535 378.237C109.588 378.225 109.632 378.214 109.667 378.205L109.746 378.688C109.695 378.717 109.634 378.745 109.561 378.77C109.491 378.794 109.414 378.813 109.33 378.829C109.246 378.844 109.158 378.856 109.066 378.864C108.976 378.874 108.887 378.879 108.8 378.879C108.641 378.879 108.496 378.857 108.363 378.814C108.232 378.769 108.119 378.701 108.023 378.609C107.929 378.515 107.855 378.396 107.801 378.252C107.748 378.105 107.721 377.93 107.721 377.727V376.169H106.948V375.647H107.721V374.88H108.422ZM111.879 377.548L111.999 377.929L112.889 375.647H113.666L112.06 379.297C112.025 379.378 111.979 379.464 111.923 379.555C111.866 379.649 111.796 379.736 111.712 379.816C111.63 379.896 111.531 379.963 111.416 380.015C111.301 380.07 111.166 380.097 111.011 380.097C110.947 380.097 110.882 380.091 110.815 380.08C110.751 380.07 110.693 380.058 110.642 380.045L110.742 379.5C110.756 379.5 110.774 379.5 110.798 379.5C110.821 379.502 110.845 379.504 110.871 379.505C110.896 379.507 110.92 379.508 110.941 379.508C110.965 379.51 110.983 379.511 110.997 379.511C111.065 379.511 111.126 379.491 111.178 379.45C111.233 379.411 111.281 379.365 111.322 379.312C111.363 379.261 111.396 379.211 111.422 379.16C111.449 379.111 111.469 379.078 111.48 379.06L111.688 378.668L110.341 375.647H111.114L111.879 377.548Z" fill="#A5A8AB"/>
<path d="M52.0611 146.071L61.5612 146.071L61.5612 151.004" stroke="#A5A8AB" stroke-width="2" stroke-linecap="round" stroke-linejoin="round"/>
<path d="M61.5612 146.5L61.5612 253.417" stroke="#A5A8AB" stroke-width="2" stroke-linecap="round" stroke-linejoin="round"/>
<path d="M61.1298 253.5L51.5612 253.5" stroke="#A5A8AB" stroke-width="2" stroke-linecap="round" stroke-linejoin="round"/>
<path d="M61.5612 197.819L71.0612 197.819M71.0612 197.819L66.4897 193.248M71.0612 197.819L66.4897 202.391" stroke="#A5A8AB" stroke-width="2" stroke-linecap="round" stroke-linejoin="round"/>
</svg>
